<mxfile host="app.diagrams.net" agent="Mozilla/5.0 (Windows NT 10.0; Win64; x64) AppleWebKit/537.36 (KHTML, like Gecko) Chrome/131.0.0.0 Safari/537.36" version="24.9.2">
  <diagram name="PÃ¡gina-1" id="mnDRr3qvnCF17UEJftpT">
    <mxGraphModel dx="2077" dy="1051" grid="1" gridSize="10" guides="1" tooltips="1" connect="1" arrows="1" fold="1" page="1" pageScale="1" pageWidth="827" pageHeight="1169" math="0" shadow="0">
      <root>
        <mxCell id="0" />
        <mxCell id="1" parent="0" />
        <mxCell id="Ceqohl3on_CjAqQxyiE6-2" value="" style="shape=image;verticalLabelPosition=bottom;labelBackgroundColor=default;verticalAlign=top;aspect=fixed;imageAspect=0;image=data:image/svg+xml,PHN2ZyB4bWxuczp4bGluaz0iaHR0cDovL3d3dy53My5vcmcvMTk5OS94bGluayIgeG1sbnM9Imh0dHA6Ly93d3cudzMub3JnLzIwMDAvc3ZnIiBoZWlnaHQ9IjIwNjAuNSIgd2lkdGg9IjMzNjkuMzciIHZpZXdCb3g9IjAgMCAzMzY5LjM3IDIwNjAuNSI+PGcgdHJhbnNmb3JtPSJ0cmFuc2xhdGUoMjY4MC41IDEyNjAuMDAwMTk1NTgyNTI1KSI+PHBhdGggZmlsbD0iI2RiZGJkYiIgc3Ryb2tlLXdpZHRoPSIzIiBzdHJva2U9IiNkYmRiZGIiIGQ9Ik0tMTY2MC0zNzBhMzAgMzAgMCAwIDEgMzAtMzBoNzAwYTMwIDMwIDAgMCAxIDMwIDMwdjM0MGEzMCAzMCAwIDAgMS0zMCAzMGgtNzAwYTMwIDMwIDAgMCAxLTMwLTMweiIvPjx1c2UgdHJhbnNmb3JtPSJtYXRyaXgoMSwwLDAsMSwtMTY2MCwtMzApIHRyYW5zbGF0ZSgyNjguMzk1MDYxNzI4Mzk1MDQgMTEuMTExMTExMTExMTExMTEpIiB4bGluazpocmVmPSIjYSIvPjx1c2UgdHJhbnNmb3JtPSJtYXRyaXgoMSwwLDAsMSwtMTY2MCwtMzApIHRyYW5zbGF0ZSgzODEuOTEzNTgwMjQ2OTEzNTcgMTEuMTExMTExMTExMTExMTEpIiB4bGluazpocmVmPSIjYiIvPjx1c2UgdHJhbnNmb3JtPSJtYXRyaXgoMSwwLDAsMSwtMTY2MCwtMzApIHRyYW5zbGF0ZSg0MTIuNzc3Nzc3Nzc3Nzc3NzcgMTEuMTExMTExMTExMTExMTEpIiB4bGluazpocmVmPSIjYyIvPjxwYXRoIGZpbGwtb3BhY2l0eT0iMCIgc3Ryb2tlPSIjNDc0NzQ3IiBkPSJNLTI2ODAtMTE5OGEzMCAzMCAwIDAgMSAzMC0zMEg1MzBhMzAgMzAgMCAwIDEgMzAgMzBWNzcwYTMwIDMwIDAgMCAxLTMwIDMwaC0zMTgwYTMwIDMwIDAgMCAxLTMwLTMweiIvPjxwYXRoIGZpbGw9IiM5ZDUxMjUiIGQ9Ik0tMjU3Mi0xMjI1LjZ2My41NGMwIDYuNDItNy4xIDEzLjA1LTE1Ljc2IDEzLjA1aC00Ni40OGMtOC42NiAwLTE1Ljc1LTYuNjQtMTUuNzUtMTMuMDZ2LTMuNTR6Ii8+PHBhdGggZmlsbD0iI2Y1ODUzNSIgZD0iTS0yNjE5Ljk3LTEyNjBjOC4wMyAwIDE0LjgyIDQuNCAxOC4xNyAxMS42NyA0LjYtMy4xNCAxMC45Mi0xLjk4IDE0LjA0IDIuNjUgMS4xNyAxLjY0IDEuNyAzLjMzIDEuOCA1LjMgNy44Ny42OCAxMy45NSA4LjI1IDEzLjk1IDE0LjI3djEuM2MwIDYuNDUtNy4xIDEzLTE1Ljc2IDEzaC00Ni41Yy04LjY0IDAtMTUuNzQtNi41NS0xNS43NC0xM3YtMS4zYzAtNS4wMiA0LjItMTEuODcgMTAuMDYtMTMuNTZ2LS41N2MuMDgtMTAuOTUgOC45Ny0xOS44MiAxOS45Ny0xOS43N3oiLz48cGF0aCBmaWxsPSIjZmZmIiBkPSJNLTI2MzAuNDYtMTIzNi44N2wtNS4yIDE4LjJoMy4wNGwxLjE3LTQuNDNoNS4zOGwxLjEgNC40MmgzLjA1bC00Ljc4LTE4LjJ6bS0uNDcgMTEuNGwyLjIyLTguOTggMi4xIDguOTd6TS0yNjA4LjgtMTIyMi42NmgtLjAzbC0yLjQ3LTE0LjJoLTMuMWwtMi40IDE0LjEzaC0uMDZsLTIuNC0xNC4xNGgtMi45NWwzLjUzIDE4LjJoMy4zOGwyLjM1LTEzLjdoLjA2bDIuMzYgMTMuN2gzLjRsMy42NC0xOC4yaC0yLjlsLTIuNCAxNC4yek0tMjU5NC4xLTEyMjguNmwtMS45OC0uNzJjLTEuOTMtLjctMi43NC0xLjUzLTIuNzQtMy4xLS4xNy0xLjI2Ljc0LTIuNDMgMi0yLjYuMTYtLjAyLjMtLjAyLjQ1LS4wMiAxLjI2LS4xNyAyLjQuNyAyLjU4IDEuOTYuMDQuMjUuMDMuNDQgMCAuNjh2LjM4aDIuOTN2LS40YzAtMS45LS41LTQuOC01LjE4LTQuOC0zLjQ0IDAtNS43IDEuODQtNS43IDUuMTYgMCAyLjYgMS4xIDMuOTcgMy44MiA0Ljk4bDIgLjdjMS42LjIzIDIuNzMgMS42IDIuNjQgMy4yLjA0IDEuNDUtMS4wOCAyLjY0LTIuNSAyLjY4aC0uMjhjLTIgMC0zLTEuMTItMy0zLjMzdi0uNDdoLTIuOXYuNDNjMCAyLjU1IDEuMDIgNS41NCA1LjUyIDUuNTQgMy43IDAgNi4wNy0xLjYgNi4wNy01LjQ4LjA0LTIuNS0xLjEtMy45LTMuNy00Ljh6Ii8+PHVzZSB0cmFuc2Zvcm09Im1hdHJpeCgxLDAsMCwxLC0yNjgwLDc3MCkgdHJhbnNsYXRlKDE1NjEuNCAxMi43OTk5OTk5OTk5OTk5OTkpIiB4bGluazpocmVmPSIjZCIvPjx1c2UgdHJhbnNmb3JtPSJtYXRyaXgoMSwwLDAsMSwtMjY4MCw3NzApIHRyYW5zbGF0ZSgxNjEzLjMwMDAwMDAwMDAwMDIgMTIuNzk5OTk5OTk5OTk5OTk5KSIgeGxpbms6aHJlZj0iI2UiLz48dXNlIHRyYW5zZm9ybT0ibWF0cml4KDEsMCwwLDEsLTI2ODAsNzcwKSB0cmFuc2xhdGUoMTYzOC4zMDAwMDAwMDAwMDAyIDEyLjc5OTk5OTk5OTk5OTk5OSkiIHhsaW5rOmhyZWY9IiNmIi8+PHBhdGggZmlsbC1vcGFjaXR5PSIwIiBzdHJva2U9IiM0NzQ3NDciIGQ9Ik0tMjUwMC05NzhhMzAgMzAgMCAwIDEgMzAtMzBIMzMwYTMwIDMwIDAgMCAxIDMwIDMwVjY1MGEzMCAzMCAwIDAgMS0zMCAzMGgtMjgwMGEzMCAzMCAwIDAgMS0zMC0zMHoiLz48cGF0aCBmaWxsPSIjOWQ1MTI1IiBkPSJNLTIzOTItMTAwNS42djMuNTRjMCA2LjQyLTcuMSAxMy4wNS0xNS43NiAxMy4wNWgtNDYuNDhjLTguNjYgMC0xNS43NS02LjY0LTE1Ljc1LTEzLjA2di0zLjU0eiIvPjxwYXRoIGZpbGw9IiNmNTg1MzUiIGQ9Ik0tMjQzOS45Ny0xMDQwYzguMDMgMCAxNC44MiA0LjQgMTguMTcgMTEuNjcgNC42LTMuMTQgMTAuOTItMS45OCAxNC4wNCAyLjY1IDEuMTcgMS42NCAxLjcgMy4zMyAxLjggNS4zIDcuODcuNjggMTMuOTUgOC4yNSAxMy45NSAxNC4yN3YxLjNjMCA2LjQ1LTcuMSAxMy0xNS43NiAxM2gtNDYuNWMtOC42NCAwLTE1Ljc0LTYuNTUtMTUuNzQtMTN2LTEuM2MwLTUuMDIgNC4yLTExLjg3IDEwLjA2LTEzLjU1di0uNThjLjA4LTEwLjk1IDguOTctMTkuODIgMTkuOTctMTkuNzd6Ii8+PHBhdGggZmlsbD0iI2ZmZiIgZD0iTS0yNDUxLjEtMTAxNi44N2gzLjA4bDMuMSAxNC41OCAzLjMyLTE0LjU0aDMuMWwtNC42IDE4LjJoLTMuN3pNLTI0MzYuNjMtMTAxNi44N2g1Ljc3YzMuNSAwIDUuMDQgMi4yIDUuMDQgNS4zIDAgMy4xLTEuOSA1LjQtNS4zMyA1LjRoLTIuNTd2Ny41M2gtMi45em0yLjkgOC41aDIuMDhjMS41NiAwIDIuOS0uODMgMi45LTMuMTQgMC0xLjk4LS43OC0zLjE3LTMuMS0zLjE3aC0xLjg3ek0tMjQxMi4yLTEwMDUuMTd2LjM4YzAgMy4zMi0xLjMyIDYuNTItNS42IDYuNTItNC42IDAtNi4wNC0yLjk3LTYuMDQtOS40N3MxLjQzLTkuNDYgNi4wNS05LjQ2YzUuMiAwIDUuNTQgMy44IDUuNTQgNS43di4zN2gtMi45di0uM2MwLTEuNy0uNS0zLjY0LTIuNi0zLjU3LTIuMDguMDgtMy4xIDEuMzUtMy4xIDcuMjIgMCA1Ljg3LjkyIDcuMyAzLjE0IDcuMyAyLjQyIDAgMi43LTIuNyAyLjctNC40MnYtLjN6Ii8+PHVzZSB0cmFuc2Zvcm09Im1hdHJpeCgxLDAsMCwxLC0yNTAwLDY1MCkgdHJhbnNsYXRlKDEzMjIuMTUgMTIuNzk5OTk5OTk5OTk5OTk5KSIgeGxpbms6aHJlZj0iI2ciLz48dXNlIHRyYW5zZm9ybT0ibWF0cml4KDEsMCwwLDEsLTI1MDAsNjUwKSB0cmFuc2xhdGUoMTM2Ny4xNSAxMi43OTk5OTk5OTk5OTk5OTkpIiB4bGluazpocmVmPSIjaCIvPjx1c2UgdHJhbnNmb3JtPSJtYXRyaXgoMSwwLDAsMSwtMjUwMCw2NTApIHRyYW5zbGF0ZSgxNDMxLjA1MDAwMDAwMDAwMDIgMTIuNzk5OTk5OTk5OTk5OTk5KSIgeGxpbms6aHJlZj0iI2kiLz48dXNlIHRyYW5zZm9ybT0ibWF0cml4KDEsMCwwLDEsLTI1MDAsNjUwKSB0cmFuc2xhdGUoMTQ4My45IDEyLjc5OTk5OTk5OTk5OTk5OSkiIHhsaW5rOmhyZWY9IiNqIi8+PHBhdGggZmlsbC1vcGFjaXR5PSIwIiBkPSJNLTI2MjAtMTExMGEzMCAzMCAwIDAgMSAzMC0zMEg0MTBhMzAgMzAgMCAwIDEgMzAgMzBWNzEwYTMwIDMwIDAgMCAxLTMwIDMwaC0zMDAwYTMwIDMwIDAgMCAxLTMwLTMweiIvPjxwYXRoIGZpbGw9IiM0NzQ3NDciIGQ9Ik0tMjYxOC41LTExMTBjMCAuODMtLjY3IDEuNS0xLjUgMS41cy0xLjUtLjY3LTEuNS0xLjUuNjctMS41IDEuNS0xLjUgMS41LjY3IDEuNSAxLjV6bTIuMzctMTEuNDRjMCAuODItLjY3IDEuNS0xLjUgMS41cy0xLjUtLjY4LTEuNS0xLjVjMC0uODMuNjctMS41IDEuNS0xLjVzMS41LjY3IDEuNSAxLjV6bTYuNDItOS43N2MwIC44Mi0uNyAxLjUtMS41IDEuNS0uODQgMC0xLjUtLjY4LTEuNS0xLjUgMC0uODQuNjYtMS41IDEuNS0xLjUuOCAwIDEuNS42NiAxLjUgMS41em05Ljc1LTYuNDNjMCAuODMtLjY3IDEuNS0xLjUgMS41LS44MiAwLTEuNS0uNjctMS41LTEuNXMuNjgtMS41IDEuNS0xLjVjLjgzIDAgMS41LjY3IDEuNSAxLjV6bTExLjQ1LTIuMzdjMCAuODMtLjY3IDEuNS0xLjUgMS41cy0xLjUtLjY3LTEuNS0xLjUuNjctMS41IDEuNS0xLjUgMS41LjY3IDEuNSAxLjV6bTEyIDBjMCAuODMtLjY3IDEuNS0xLjUgMS41cy0xLjUtLjY3LTEuNS0xLjUuNjctMS41IDEuNS0xLjUgMS41LjY3IDEuNSAxLjV6bTEyIDBjMCAuODMtLjY3IDEuNS0xLjUgMS41cy0xLjUtLjY3LTEuNS0xLjUuNjctMS41IDEuNS0xLjUgMS41LjY3IDEuNSAxLjV6bTEyIDBjMCAuODMtLjY3IDEuNS0xLjUgMS41cy0xLjUtLjY3LTEuNS0xLjUuNjctMS41IDEuNS0xLjUgMS41LjY3IDEuNSAxLjV6bTEyIDBjMCAuODMtLjY3IDEuNS0xLjUgMS41cy0xLjUtLjY3LTEuNS0xLjUuNjctMS41IDEuNS0xLjUgMS41LjY3IDEuNSAxLjV6bTEyIDBjMCAuODMtLjY3IDEuNS0xLjUgMS41cy0xLjUtLjY3LTEuNS0xLjUuNjctMS41IDEuNS0xLjUgMS41LjY3IDEuNSAxLjV6bTEyIDBjMCAuODMtLjY3IDEuNS0xLjUgMS41cy0xLjUtLjY3LTEuNS0xLjUuNjctMS41IDEuNS0xLjUgMS41LjY3IDEuNSAxLjV6bTEyIDBjMCAuODMtLjY3IDEuNS0xLjUgMS41cy0xLjUtLjY3LTEuNS0xLjUuNjctMS41IDEuNS0xLjUgMS41LjY3IDEuNSAxLjV6bTEyIDBjMCAuODMtLjY3IDEuNS0xLjUgMS41cy0xLjUtLjY3LTEuNS0xLjUuNjctMS41IDEuNS0xLjUgMS41LjY3IDEuNSAxLjV6bTEyIDBjMCAuODMtLjY3IDEuNS0xLjUgMS41cy0xLjUtLjY3LTEuNS0xLjUuNjctMS41IDEuNS0xLjUgMS41LjY3IDEuNSAxLjV6bTEyIDBjMCAuODMtLjY3IDEuNS0xLjUgMS41cy0xLjUtLjY3LTEuNS0xLjUuNjctMS41IDEuNS0xLjUgMS41LjY3IDEuNSAxLjV6bTEyIDBjMCAuODMtLjY3IDEuNS0xLjUgMS41cy0xLjUtLjY3LTEuNS0xLjUuNjctMS41IDEuNS0xLjUgMS41LjY3IDEuNSAxLjV6bTEyIDBjMCAuODMtLjY3IDEuNS0xLjUgMS41cy0xLjUtLjY3LTEuNS0xLjUuNjctMS41IDEuNS0xLjUgMS41LjY3IDEuNSAxLjV6bTEyIDBjMCAuODMtLjY3IDEuNS0xLjUgMS41cy0xLjUtLjY3LTEuNS0xLjUuNjctMS41IDEuNS0xLjUgMS41LjY3IDEuNSAxLjV6bTEyIDBjMCAuODMtLjY3IDEuNS0xLjUgMS41cy0xLjUtLjY3LTEuNS0xLjUuNjctMS41IDEuNS0xLjUgMS41LjY3IDEuNSAxLjV6bTEyIDBjMCAuODMtLjY3IDEuNS0xLjUgMS41cy0xLjUtLjY3LTEuNS0xLjUuNjctMS41IDEuNS0xLjUgMS41LjY3IDEuNSAxLjV6bTEyIDBjMCAuODMtLjY3IDEuNS0xLjUgMS41cy0xLjUtLjY3LTEuNS0xLjUuNjctMS41IDEuNS0xLjUgMS41LjY3IDEuNSAxLjV6bTEyIDBjMCAuODMtLjY3IDEuNS0xLjUgMS41cy0xLjUtLjY3LTEuNS0xLjUuNjctMS41IDEuNS0xLjUgMS41LjY3IDEuNSAxLjV6bTEyIDBjMCAuODMtLjY3IDEuNS0xLjUgMS41cy0xLjUtLjY3LTEuNS0xLjUuNjctMS41IDEuNS0xLjUgMS41LjY3IDEuNSAxLjV6bTEyIDBjMCAuODMtLjY3IDEuNS0xLjUgMS41cy0xLjUtLjY3LTEuNS0xLjUuNjctMS41IDEuNS0xLjUgMS41LjY3IDEuNSAxLjV6bTEyIDBjMCAuODMtLjY3IDEuNS0xLjUgMS41cy0xLjUtLjY3LTEuNS0xLjUuNjctMS41IDEuNS0xLjUgMS41LjY3IDEuNSAxLjV6bTEyIDBjMCAuODMtLjY3IDEuNS0xLjUgMS41cy0xLjUtLjY3LTEuNS0xLjUuNjctMS41IDEuNS0xLjUgMS41LjY3IDEuNSAxLjV6bTEyIDBjMCAuODMtLjY3IDEuNS0xLjUgMS41cy0xLjUtLjY3LTEuNS0xLjUuNjctMS41IDEuNS0xLjUgMS41LjY3IDEuNSAxLjV6bTEyIDBjMCAuODMtLjY3IDEuNS0xLjUgMS41cy0xLjUtLjY3LTEuNS0xLjUuNjctMS41IDEuNS0xLjUgMS41LjY3IDEuNSAxLjV6bTEyIDBjMCAuODMtLjY3IDEuNS0xLjUgMS41cy0xLjUtLjY3LTEuNS0xLjUuNjctMS41IDEuNS0xLjUgMS41LjY3IDEuNSAxLjV6bTEyIDBjMCAuODMtLjY3IDEuNS0xLjUgMS41cy0xLjUtLjY3LTEuNS0xLjUuNjctMS41IDEuNS0xLjUgMS41LjY3IDEuNSAxLjV6bTEyIDBjMCAuODMtLjY3IDEuNS0xLjUgMS41cy0xLjUtLjY3LTEuNS0xLjUuNjctMS41IDEuNS0xLjUgMS41LjY3IDEuNSAxLjV6bTEyIDBjMCAuODMtLjY3IDEuNS0xLjUgMS41cy0xLjUtLjY3LTEuNS0xLjUuNjctMS41IDEuNS0xLjUgMS41LjY3IDEuNSAxLjV6bTEyIDBjMCAuODMtLjY3IDEuNS0xLjUgMS41cy0xLjUtLjY3LTEuNS0xLjUuNjctMS41IDEuNS0xLjUgMS41LjY3IDEuNSAxLjV6bTEyIDBjMCAuODMtLjY3IDEuNS0xLjUgMS41cy0xLjUtLjY3LTEuNS0xLjUuNjctMS41IDEuNS0xLjUgMS41LjY3IDEuNSAxLjV6bTEyIDBjMCAuODMtLjY3IDEuNS0xLjUgMS41cy0xLjUtLjY3LTEuNS0xLjUuNjctMS41IDEuNS0xLjUgMS41LjY3IDEuNSAxLjV6bTEyIDBjMCAuODMtLjY3IDEuNS0xLjUgMS41cy0xLjUtLjY3LTEuNS0xLjUuNjctMS41IDEuNS0xLjUgMS41LjY3IDEuNSAxLjV6bTEyIDBjMCAuODMtLjY3IDEuNS0xLjUgMS41cy0xLjUtLjY3LTEuNS0xLjUuNjctMS41IDEuNS0xLjUgMS41LjY3IDEuNSAxLjV6bTEyIDBjMCAuODMtLjY3IDEuNS0xLjUgMS41cy0xLjUtLjY3LTEuNS0xLjUuNjctMS41IDEuNS0xLjUgMS41LjY3IDEuNSAxLjV6bTEyIDBjMCAuODMtLjY3IDEuNS0xLjUgMS41cy0xLjUtLjY3LTEuNS0xLjUuNjctMS41IDEuNS0xLjUgMS41LjY3IDEuNSAxLjV6bTEyIDBjMCAuODMtLjY3IDEuNS0xLjUgMS41cy0xLjUtLjY3LTEuNS0xLjUuNjctMS41IDEuNS0xLjUgMS41LjY3IDEuNSAxLjV6bTEyIDBjMCAuODMtLjY3IDEuNS0xLjUgMS41cy0xLjUtLjY3LTEuNS0xLjUuNjctMS41IDEuNS0xLjUgMS41LjY3IDEuNSAxLjV6bTEyIDBjMCAuODMtLjY3IDEuNS0xLjUgMS41cy0xLjUtLjY3LTEuNS0xLjUuNjctMS41IDEuNS0xLjUgMS41LjY3IDEuNSAxLjV6bTEyIDBjMCAuODMtLjY3IDEuNS0xLjUgMS41cy0xLjUtLjY3LTEuNS0xLjUuNjctMS41IDEuNS0xLjUgMS41LjY3IDEuNSAxLjV6bTEyIDBjMCAuODMtLjY3IDEuNS0xLjUgMS41cy0xLjUtLjY3LTEuNS0xLjUuNjctMS41IDEuNS0xLjUgMS41LjY3IDEuNSAxLjV6bTEyIDBjMCAuODMtLjY3IDEuNS0xLjUgMS41cy0xLjUtLjY3LTEuNS0xLjUuNjctMS41IDEuNS0xLjUgMS41LjY3IDEuNSAxLjV6bTEyIDBjMCAuODMtLjY3IDEuNS0xLjUgMS41cy0xLjUtLjY3LTEuNS0xLjUuNjctMS41IDEuNS0xLjUgMS41LjY3IDEuNSAxLjV6bTEyIDBjMCAuODMtLjY3IDEuNS0xLjUgMS41cy0xLjUtLjY3LTEuNS0xLjUuNjctMS41IDEuNS0xLjUgMS41LjY3IDEuNSAxLjV6bTEyIDBjMCAuODMtLjY3IDEuNS0xLjUgMS41cy0xLjUtLjY3LTEuNS0xLjUuNjctMS41IDEuNS0xLjUgMS41LjY3IDEuNSAxLjV6bTEyIDBjMCAuODMtLjY3IDEuNS0xLjUgMS41cy0xLjUtLjY3LTEuNS0xLjUuNjctMS41IDEuNS0xLjUgMS41LjY3IDEuNSAxLjV6bTEyIDBjMCAuODMtLjY3IDEuNS0xLjUgMS41cy0xLjUtLjY3LTEuNS0xLjUuNjctMS41IDEuNS0xLjUgMS41LjY3IDEuNSAxLjV6bTEyIDBjMCAuODMtLjY3IDEuNS0xLjUgMS41cy0xLjUtLjY3LTEuNS0xLjUuNjctMS41IDEuNS0xLjUgMS41LjY3IDEuNSAxLjV6bTEyIDBjMCAuODMtLjY3IDEuNS0xLjUgMS41cy0xLjUtLjY3LTEuNS0xLjUuNjctMS41IDEuNS0xLjUgMS41LjY3IDEuNSAxLjV6bTEyIDBjMCAuODMtLjY3IDEuNS0xLjUgMS41cy0xLjUtLjY3LTEuNS0xLjUuNjctMS41IDEuNS0xLjUgMS41LjY3IDEuNSAxLjV6bTEyIDBjMCAuODMtLjY3IDEuNS0xLjUgMS41cy0xLjUtLjY3LTEuNS0xLjUuNjctMS41IDEuNS0xLjUgMS41LjY3IDEuNSAxLjV6bTEyIDBjMCAuODMtLjY3IDEuNS0xLjUgMS41cy0xLjUtLjY3LTEuNS0xLjUuNjctMS41IDEuNS0xLjUgMS41LjY3IDEuNSAxLjV6bTEyIDBjMCAuODMtLjY3IDEuNS0xLjUgMS41cy0xLjUtLjY3LTEuNS0xLjUuNjctMS41IDEuNS0xLjUgMS41LjY3IDEuNSAxLjV6bTEyIDBjMCAuODMtLjY3IDEuNS0xLjUgMS41cy0xLjUtLjY3LTEuNS0xLjUuNjctMS41IDEuNS0xLjUgMS41LjY3IDEuNSAxLjV6bTEyIDBjMCAuODMtLjY3IDEuNS0xLjUgMS41cy0xLjUtLjY3LTEuNS0xLjUuNjctMS41IDEuNS0xLjUgMS41LjY3IDEuNSAxLjV6bTEyIDBjMCAuODMtLjY3IDEuNS0xLjUgMS41cy0xLjUtLjY3LTEuNS0xLjUuNjctMS41IDEuNS0xLjUgMS41LjY3IDEuNSAxLjV6bTEyIDBjMCAuODMtLjY3IDEuNS0xLjUgMS41cy0xLjUtLjY3LTEuNS0xLjUuNjctMS41IDEuNS0xLjUgMS41LjY3IDEuNSAxLjV6bTEyIDBjMCAuODMtLjY3IDEuNS0xLjUgMS41cy0xLjUtLjY3LTEuNS0xLjUuNjctMS41IDEuNS0xLjUgMS41LjY3IDEuNSAxLjV6bTEyIDBjMCAuODMtLjY3IDEuNS0xLjUgMS41cy0xLjUtLjY3LTEuNS0xLjUuNjctMS41IDEuNS0xLjUgMS41LjY3IDEuNSAxLjV6bTEyIDBjMCAuODMtLjY3IDEuNS0xLjUgMS41cy0xLjUtLjY3LTEuNS0xLjUuNjctMS41IDEuNS0xLjUgMS41LjY3IDEuNSAxLjV6bTEyIDBjMCAuODMtLjY3IDEuNS0xLjUgMS41cy0xLjUtLjY3LTEuNS0xLjUuNjctMS41IDEuNS0xLjUgMS41LjY3IDEuNSAxLjV6bTEyIDBjMCAuODMtLjY3IDEuNS0xLjUgMS41cy0xLjUtLjY3LTEuNS0xLjUuNjctMS41IDEuNS0xLjUgMS41LjY3IDEuNSAxLjV6bTEyIDBjMCAuODMtLjY3IDEuNS0xLjUgMS41cy0xLjUtLjY3LTEuNS0xLjUuNjctMS41IDEuNS0xLjUgMS41LjY3IDEuNSAxLjV6bTEyIDBjMCAuODMtLjY3IDEuNS0xLjUgMS41cy0xLjUtLjY3LTEuNS0xLjUuNjctMS41IDEuNS0xLjUgMS41LjY3IDEuNSAxLjV6bTEyIDBjMCAuODMtLjY3IDEuNS0xLjUgMS41cy0xLjUtLjY3LTEuNS0xLjUuNjctMS41IDEuNS0xLjUgMS41LjY3IDEuNSAxLjV6bTEyIDBjMCAuODMtLjY3IDEuNS0xLjUgMS41cy0xLjUtLjY3LTEuNS0xLjUuNjctMS41IDEuNS0xLjUgMS41LjY3IDEuNSAxLjV6bTEyIDBjMCAuODMtLjY3IDEuNS0xLjUgMS41cy0xLjUtLjY3LTEuNS0xLjUuNjctMS41IDEuNS0xLjUgMS41LjY3IDEuNSAxLjV6bTEyIDBjMCAuODMtLjY3IDEuNS0xLjUgMS41cy0xLjUtLjY3LTEuNS0xLjUuNjctMS41IDEuNS0xLjUgMS41LjY3IDEuNSAxLjV6bTEyIDBjMCAuODMtLjY3IDEuNS0xLjUgMS41cy0xLjUtLjY3LTEuNS0xLjUuNjctMS41IDEuNS0xLjUgMS41LjY3IDEuNSAxLjV6bTEyIDBjMCAuODMtLjY3IDEuNS0xLjUgMS41cy0xLjUtLjY3LTEuNS0xLjUuNjctMS41IDEuNS0xLjUgMS41LjY3IDEuNSAxLjV6bTEyIDBjMCAuODMtLjY3IDEuNS0xLjUgMS41cy0xLjUtLjY3LTEuNS0xLjUuNjctMS41IDEuNS0xLjUgMS41LjY3IDEuNSAxLjV6bTEyIDBjMCAuODMtLjY3IDEuNS0xLjUgMS41cy0xLjUtLjY3LTEuNS0xLjUuNjctMS41IDEuNS0xLjUgMS41LjY3IDEuNSAxLjV6bTEyIDBjMCAuODMtLjY3IDEuNS0xLjUgMS41cy0xLjUtLjY3LTEuNS0xLjUuNjctMS41IDEuNS0xLjUgMS41LjY3IDEuNSAxLjV6bTEyIDBjMCAuODMtLjY3IDEuNS0xLjUgMS41cy0xLjUtLjY3LTEuNS0xLjUuNjctMS41IDEuNS0xLjUgMS41LjY3IDEuNSAxLjV6bTEyIDBjMCAuODMtLjY3IDEuNS0xLjUgMS41cy0xLjUtLjY3LTEuNS0xLjUuNjctMS41IDEuNS0xLjUgMS41LjY3IDEuNSAxLjV6bTEyIDBjMCAuODMtLjY3IDEuNS0xLjUgMS41cy0xLjUtLjY3LTEuNS0xLjUuNjctMS41IDEuNS0xLjUgMS41LjY3IDEuNSAxLjV6bTEyIDBjMCAuODMtLjY3IDEuNS0xLjUgMS41cy0xLjUtLjY3LTEuNS0xLjUuNjctMS41IDEuNS0xLjUgMS41LjY3IDEuNSAxLjV6bTEyIDBjMCAuODMtLjY3IDEuNS0xLjUgMS41cy0xLjUtLjY3LTEuNS0xLjUuNjctMS41IDEuNS0xLjUgMS41LjY3IDEuNSAxLjV6bTEyIDBjMCAuODMtLjY3IDEuNS0xLjUgMS41cy0xLjUtLjY3LTEuNS0xLjUuNjctMS41IDEuNS0xLjUgMS41LjY3IDEuNSAxLjV6bTEyIDBjMCAuODMtLjY3IDEuNS0xLjUgMS41cy0xLjUtLjY3LTEuNS0xLjUuNjctMS41IDEuNS0xLjUgMS41LjY3IDEuNSAxLjV6bTEyIDBjMCAuODMtLjY3IDEuNS0xLjUgMS41cy0xLjUtLjY3LTEuNS0xLjUuNjctMS41IDEuNS0xLjUgMS41LjY3IDEuNSAxLjV6bTEyIDBjMCAuODMtLjY3IDEuNS0xLjUgMS41cy0xLjUtLjY3LTEuNS0xLjUuNjctMS41IDEuNS0xLjUgMS41LjY3IDEuNSAxLjV6bTEyIDBjMCAuODMtLjY3IDEuNS0xLjUgMS41cy0xLjUtLjY3LTEuNS0xLjUuNjctMS41IDEuNS0xLjUgMS41LjY3IDEuNSAxLjV6bTEyIDBjMCAuODMtLjY3IDEuNS0xLjUgMS41cy0xLjUtLjY3LTEuNS0xLjUuNjctMS41IDEuNS0xLjUgMS41LjY3IDEuNSAxLjV6bTEyIDBjMCAuODMtLjY3IDEuNS0xLjUgMS41cy0xLjUtLjY3LTEuNS0xLjUuNjctMS41IDEuNS0xLjUgMS41LjY3IDEuNSAxLjV6bTEyIDBjMCAuODMtLjY3IDEuNS0xLjUgMS41cy0xLjUtLjY3LTEuNS0xLjUuNjctMS41IDEuNS0xLjUgMS41LjY3IDEuNSAxLjV6bTEyIDBjMCAuODMtLjY3IDEuNS0xLjUgMS41cy0xLjUtLjY3LTEuNS0xLjUuNjctMS41IDEuNS0xLjUgMS41LjY3IDEuNSAxLjV6bTEyIDBjMCAuODMtLjY3IDEuNS0xLjUgMS41cy0xLjUtLjY3LTEuNS0xLjUuNjctMS41IDEuNS0xLjUgMS41LjY3IDEuNSAxLjV6bTEyIDBjMCAuODMtLjY3IDEuNS0xLjUgMS41cy0xLjUtLjY3LTEuNS0xLjUuNjctMS41IDEuNS0xLjUgMS41LjY3IDEuNSAxLjV6bTEyIDBjMCAuODMtLjY3IDEuNS0xLjUgMS41cy0xLjUtLjY3LTEuNS0xLjUuNjctMS41IDEuNS0xLjUgMS41LjY3IDEuNSAxLjV6bTEyIDBjMCAuODMtLjY3IDEuNS0xLjUgMS41cy0xLjUtLjY3LTEuNS0xLjUuNjctMS41IDEuNS0xLjUgMS41LjY3IDEuNSAxLjV6bTEyIDBjMCAuODMtLjY3IDEuNS0xLjUgMS41cy0xLjUtLjY3LTEuNS0xLjUuNjctMS41IDEuNS0xLjUgMS41LjY3IDEuNSAxLjV6bTEyIDBjMCAuODMtLjY3IDEuNS0xLjUgMS41cy0xLjUtLjY3LTEuNS0xLjUuNjctMS41IDEuNS0xLjUgMS41LjY3IDEuNSAxLjV6bTEyIDBjMCAuODMtLjY3IDEuNS0xLjUgMS41cy0xLjUtLjY3LTEuNS0xLjUuNjctMS41IDEuNS0xLjUgMS41LjY3IDEuNSAxLjV6bTEyIDBjMCAuODMtLjY3IDEuNS0xLjUgMS41cy0xLjUtLjY3LTEuNS0xLjUuNjctMS41IDEuNS0xLjUgMS41LjY3IDEuNSAxLjV6bTEyIDBjMCAuODMtLjY3IDEuNS0xLjUgMS41cy0xLjUtLjY3LTEuNS0xLjUuNjctMS41IDEuNS0xLjUgMS41LjY3IDEuNSAxLjV6bTEyIDBjMCAuODMtLjY3IDEuNS0xLjUgMS41cy0xLjUtLjY3LTEuNS0xLjUuNjctMS41IDEuNS0xLjUgMS41LjY3IDEuNSAxLjV6bTEyIDBjMCAuODMtLjY3IDEuNS0xLjUgMS41cy0xLjUtLjY3LTEuNS0xLjUuNjctMS41IDEuNS0xLjUgMS41LjY3IDEuNSAxLjV6bTEyIDBjMCAuODMtLjY3IDEuNS0xLjUgMS41cy0xLjUtLjY3LTEuNS0xLjUuNjctMS41IDEuNS0xLjUgMS41LjY3IDEuNSAxLjV6bTEyIDBjMCAuODMtLjY3IDEuNS0xLjUgMS41cy0xLjUtLjY3LTEuNS0xLjUuNjctMS41IDEuNS0xLjUgMS41LjY3IDEuNSAxLjV6bTEyIDBjMCAuODMtLjY3IDEuNS0xLjUgMS41cy0xLjUtLjY3LTEuNS0xLjUuNjctMS41IDEuNS0xLjUgMS41LjY3IDEuNSAxLjV6bTEyIDBjMCAuODMtLjY3IDEuNS0xLjUgMS41cy0xLjUtLjY3LTEuNS0xLjUuNjctMS41IDEuNS0xLjUgMS41LjY3IDEuNSAxLjV6bTEyIDBjMCAuODMtLjY3IDEuNS0xLjUgMS41cy0xLjUtLjY3LTEuNS0xLjUuNjctMS41IDEuNS0xLjUgMS41LjY3IDEuNSAxLjV6bTEyIDBjMCAuODMtLjY3IDEuNS0xLjUgMS41cy0xLjUtLjY3LTEuNS0xLjUuNjctMS41IDEuNS0xLjUgMS41LjY3IDEuNSAxLjV6bTEyIDBjMCAuODMtLjY3IDEuNS0xLjUgMS41cy0xLjUtLjY3LTEuNS0xLjUuNjctMS41IDEuNS0xLjUgMS41LjY3IDEuNSAxLjV6bTEyIDBjMCAuODMtLjY3IDEuNS0xLjUgMS41cy0xLjUtLjY3LTEuNS0xLjUuNjctMS41IDEuNS0xLjUgMS41LjY3IDEuNSAxLjV6bTEyIDBjMCAuODMtLjY3IDEuNS0xLjUgMS41cy0xLjUtLjY3LTEuNS0xLjUuNjctMS41IDEuNS0xLjUgMS41LjY3IDEuNSAxLjV6bTEyIDBjMCAuODMtLjY3IDEuNS0xLjUgMS41cy0xLjUtLjY3LTEuNS0xLjUuNjctMS41IDEuNS0xLjUgMS41LjY3IDEuNSAxLjV6bTEyIDBjMCAuODMtLjY3IDEuNS0xLjUgMS41cy0xLjUtLjY3LTEuNS0xLjUuNjctMS41IDEuNS0xLjUgMS41LjY3IDEuNSAxLjV6bTEyIDBjMCAuODMtLjY3IDEuNS0xLjUgMS41cy0xLjUtLjY3LTEuNS0xLjUuNjctMS41IDEuNS0xLjUgMS41LjY3IDEuNSAxLjV6bTEyIDBjMCAuODMtLjY3IDEuNS0xLjUgMS41cy0xLjUtLjY3LTEuNS0xLjUuNjctMS41IDEuNS0xLjUgMS41LjY3IDEuNSAxLjV6bTEyIDBjMCAuODMtLjY3IDEuNS0xLjUgMS41cy0xLjUtLjY3LTEuNS0xLjUuNjctMS41IDEuNS0xLjUgMS41LjY3IDEuNSAxLjV6bTEyIDBjMCAuODMtLjY3IDEuNS0xLjUgMS41cy0xLjUtLjY3LTEuNS0xLjUuNjctMS41IDEuNS0xLjUgMS41LjY3IDEuNSAxLjV6bTEyIDBjMCAuODMtLjY3IDEuNS0xLjUgMS41cy0xLjUtLjY3LTEuNS0xLjUuNjctMS41IDEuNS0xLjUgMS41LjY3IDEuNSAxLjV6bTEyIDBjMCAuODMtLjY3IDEuNS0xLjUgMS41cy0xLjUtLjY3LTEuNS0xLjUuNjctMS41IDEuNS0xLjUgMS41LjY3IDEuNSAxLjV6bTEyIDBjMCAuODMtLjY3IDEuNS0xLjUgMS41cy0xLjUtLjY3LTEuNS0xLjUuNjctMS41IDEuNS0xLjUgMS41LjY3IDEuNSAxLjV6bTEyIDBjMCAuODMtLjY3IDEuNS0xLjUgMS41cy0xLjUtLjY3LTEuNS0xLjUuNjctMS41IDEuNS0xLjUgMS41LjY3IDEuNSAxLjV6bTEyIDBjMCAuODMtLjY3IDEuNS0xLjUgMS41cy0xLjUtLjY3LTEuNS0xLjUuNjctMS41IDEuNS0xLjUgMS41LjY3IDEuNSAxLjV6bTEyIDBjMCAuODMtLjY3IDEuNS0xLjUgMS41cy0xLjUtLjY3LTEuNS0xLjUuNjctMS41IDEuNS0xLjUgMS41LjY3IDEuNSAxLjV6bTEyIDBjMCAuODMtLjY3IDEuNS0xLjUgMS41cy0xLjUtLjY3LTEuNS0xLjUuNjctMS41IDEuNS0xLjUgMS41LjY3IDEuNSAxLjV6bTEyIDBjMCAuODMtLjY3IDEuNS0xLjUgMS41cy0xLjUtLjY3LTEuNS0xLjUuNjctMS41IDEuNS0xLjUgMS41LjY3IDEuNSAxLjV6bTEyIDBjMCAuODMtLjY3IDEuNS0xLjUgMS41cy0xLjUtLjY3LTEuNS0xLjUuNjctMS41IDEuNS0xLjUgMS41LjY3IDEuNSAxLjV6bTEyIDBjMCAuODMtLjY3IDEuNS0xLjUgMS41cy0xLjUtLjY3LTEuNS0xLjUuNjctMS41IDEuNS0xLjUgMS41LjY3IDEuNSAxLjV6bTEyIDBjMCAuODMtLjY3IDEuNS0xLjUgMS41cy0xLjUtLjY3LTEuNS0xLjUuNjctMS41IDEuNS0xLjUgMS41LjY3IDEuNSAxLjV6bTEyIDBjMCAuODMtLjY3IDEuNS0xLjUgMS41cy0xLjUtLjY3LTEuNS0xLjUuNjctMS41IDEuNS0xLjUgMS41LjY3IDEuNSAxLjV6bTEyIDBjMCAuODMtLjY3IDEuNS0xLjUgMS41cy0xLjUtLjY3LTEuNS0xLjUuNjctMS41IDEuNS0xLjUgMS41LjY3IDEuNSAxLjV6bTEyIDBjMCAuODMtLjY3IDEuNS0xLjUgMS41cy0xLjUtLjY3LTEuNS0xLjUuNjctMS41IDEuNS0xLjUgMS41LjY3IDEuNSAxLjV6bTEyIDBjMCAuODMtLjY3IDEuNS0xLjUgMS41cy0xLjUtLjY3LTEuNS0xLjUuNjctMS41IDEuNS0xLjUgMS41LjY3IDEuNSAxLjV6bTEyIDBjMCAuODMtLjY3IDEuNS0xLjUgMS41cy0xLjUtLjY3LTEuNS0xLjUuNjctMS41IDEuNS0xLjUgMS41LjY3IDEuNSAxLjV6bTEyIDBjMCAuODMtLjY3IDEuNS0xLjUgMS41cy0xLjUtLjY3LTEuNS0xLjUuNjctMS41IDEuNS0xLjUgMS41LjY3IDEuNSAxLjV6bTEyIDBjMCAuODMtLjY3IDEuNS0xLjUgMS41cy0xLjUtLjY3LTEuNS0xLjUuNjctMS41IDEuNS0xLjUgMS41LjY3IDEuNSAxLjV6bTEyIDBjMCAuODMtLjY3IDEuNS0xLjUgMS41cy0xLjUtLjY3LTEuNS0xLjUuNjctMS41IDEuNS0xLjUgMS41LjY3IDEuNSAxLjV6bTEyIDBjMCAuODMtLjY3IDEuNS0xLjUgMS41cy0xLjUtLjY3LTEuNS0xLjUuNjctMS41IDEuNS0xLjUgMS41LjY3IDEuNSAxLjV6bTEyIDBjMCAuODMtLjY3IDEuNS0xLjUgMS41cy0xLjUtLjY3LTEuNS0xLjUuNjctMS41IDEuNS0xLjUgMS41LjY3IDEuNSAxLjV6bTEyIDBjMCAuODMtLjY3IDEuNS0xLjUgMS41cy0xLjUtLjY3LTEuNS0xLjUuNjctMS41IDEuNS0xLjUgMS41LjY3IDEuNSAxLjV6bTEyIDBjMCAuODMtLjY3IDEuNS0xLjUgMS41cy0xLjUtLjY3LTEuNS0xLjUuNjctMS41IDEuNS0xLjUgMS41LjY3IDEuNSAxLjV6bTEyIDBjMCAuODMtLjY3IDEuNS0xLjUgMS41cy0xLjUtLjY3LTEuNS0xLjUuNjctMS41IDEuNS0xLjUgMS41LjY3IDEuNSAxLjV6bTEyIDBjMCAuODMtLjY3IDEuNS0xLjUgMS41cy0xLjUtLjY3LTEuNS0xLjUuNjctMS41IDEuNS0xLjUgMS41LjY3IDEuNSAxLjV6bTEyIDBjMCAuODMtLjY3IDEuNS0xLjUgMS41cy0xLjUtLjY3LTEuNS0xLjUuNjctMS41IDEuNS0xLjUgMS41LjY3IDEuNSAxLjV6bTEyIDBjMCAuODMtLjY3IDEuNS0xLjUgMS41cy0xLjUtLjY3LTEuNS0xLjUuNjctMS41IDEuNS0xLjUgMS41LjY3IDEuNSAxLjV6bTEyIDBjMCAuODMtLjY3IDEuNS0xLjUgMS41cy0xLjUtLjY3LTEuNS0xLjUuNjctMS41IDEuNS0xLjUgMS41LjY3IDEuNSAxLjV6bTEyIDBjMCAuODMtLjY3IDEuNS0xLjUgMS41cy0xLjUtLjY3LTEuNS0xLjUuNjctMS41IDEuNS0xLjUgMS41LjY3IDEuNSAxLjV6bTEyIDBjMCAuODMtLjY3IDEuNS0xLjUgMS41cy0xLjUtLjY3LTEuNS0xLjUuNjctMS41IDEuNS0xLjUgMS41LjY3IDEuNSAxLjV6bTEyIDBjMCAuODMtLjY3IDEuNS0xLjUgMS41cy0xLjUtLjY3LTEuNS0xLjUuNjctMS41IDEuNS0xLjUgMS41LjY3IDEuNSAxLjV6bTEyIDBjMCAuODMtLjY3IDEuNS0xLjUgMS41cy0xLjUtLjY3LTEuNS0xLjUuNjctMS41IDEuNS0xLjUgMS41LjY3IDEuNSAxLjV6bTEyIDBjMCAuODMtLjY3IDEuNS0xLjUgMS41cy0xLjUtLjY3LTEuNS0xLjUuNjctMS41IDEuNS0xLjUgMS41LjY3IDEuNSAxLjV6bTEyIDBjMCAuODMtLjY3IDEuNS0xLjUgMS41cy0xLjUtLjY3LTEuNS0xLjUuNjctMS41IDEuNS0xLjUgMS41LjY3IDEuNSAxLjV6bTEyIDBjMCAuODMtLjY3IDEuNS0xLjUgMS41cy0xLjUtLjY3LTEuNS0xLjUuNjctMS41IDEuNS0xLjUgMS41LjY3IDEuNSAxLjV6bTEyIDBjMCAuODMtLjY3IDEuNS0xLjUgMS41cy0xLjUtLjY3LTEuNS0xLjUuNjctMS41IDEuNS0xLjUgMS41LjY3IDEuNSAxLjV6bTEyIDBjMCAuODMtLjY3IDEuNS0xLjUgMS41cy0xLjUtLjY3LTEuNS0xLjUuNjctMS41IDEuNS0xLjUgMS41LjY3IDEuNSAxLjV6bTEyIDBjMCAuODMtLjY3IDEuNS0xLjUgMS41cy0xLjUtLjY3LTEuNS0xLjUuNjctMS41IDEuNS0xLjUgMS41LjY3IDEuNSAxLjV6bTEyIDBjMCAuODMtLjY3IDEuNS0xLjUgMS41cy0xLjUtLjY3LTEuNS0xLjUuNjctMS41IDEuNS0xLjUgMS41LjY3IDEuNSAxLjV6bTEyIDBjMCAuODMtLjY3IDEuNS0xLjUgMS41cy0xLjUtLjY3LTEuNS0xLjUuNjctMS41IDEuNS0xLjUgMS41LjY3IDEuNSAxLjV6bTEyIDBjMCAuODMtLjY3IDEuNS0xLjUgMS41cy0xLjUtLjY3LTEuNS0xLjUuNjctMS41IDEuNS0xLjUgMS41LjY3IDEuNSAxLjV6bTEyIDBjMCAuODMtLjY3IDEuNS0xLjUgMS41cy0xLjUtLjY3LTEuNS0xLjUuNjctMS41IDEuNS0xLjUgMS41LjY3IDEuNSAxLjV6bTEyIDBjMCAuODMtLjY3IDEuNS0xLjUgMS41cy0xLjUtLjY3LTEuNS0xLjUuNjctMS41IDEuNS0xLjUgMS41LjY3IDEuNSAxLjV6bTEyIDBjMCAuODMtLjY3IDEuNS0xLjUgMS41cy0xLjUtLjY3LTEuNS0xLjUuNjctMS41IDEuNS0xLjUgMS41LjY3IDEuNSAxLjV6bTEyIDBjMCAuODMtLjY3IDEuNS0xLjUgMS41cy0xLjUtLjY3LTEuNS0xLjUuNjctMS41IDEuNS0xLjUgMS41LjY3IDEuNSAxLjV6bTEyIDBjMCAuODMtLjY3IDEuNS0xLjUgMS41cy0xLjUtLjY3LTEuNS0xLjUuNjctMS41IDEuNS0xLjUgMS41LjY3IDEuNSAxLjV6bTEyIDBjMCAuODMtLjY3IDEuNS0xLjUgMS41cy0xLjUtLjY3LTEuNS0xLjUuNjctMS41IDEuNS0xLjUgMS41LjY3IDEuNSAxLjV6bTEyIDBjMCAuODMtLjY3IDEuNS0xLjUgMS41cy0xLjUtLjY3LTEuNS0xLjUuNjctMS41IDEuNS0xLjUgMS41LjY3IDEuNSAxLjV6bTEyIDBjMCAuODMtLjY3IDEuNS0xLjUgMS41cy0xLjUtLjY3LTEuNS0xLjUuNjctMS41IDEuNS0xLjUgMS41LjY3IDEuNSAxLjV6bTEyIDBjMCAuODMtLjY3IDEuNS0xLjUgMS41cy0xLjUtLjY3LTEuNS0xLjUuNjctMS41IDEuNS0xLjUgMS41LjY3IDEuNSAxLjV6bTEyIDBjMCAuODMtLjY3IDEuNS0xLjUgMS41cy0xLjUtLjY3LTEuNS0xLjUuNjctMS41IDEuNS0xLjUgMS41LjY3IDEuNSAxLjV6bTEyIDBjMCAuODMtLjY3IDEuNS0xLjUgMS41cy0xLjUtLjY3LTEuNS0xLjUuNjctMS41IDEuNS0xLjUgMS41LjY3IDEuNSAxLjV6bTEyIDBjMCAuODMtLjY3IDEuNS0xLjUgMS41cy0xLjUtLjY3LTEuNS0xLjUuNjctMS41IDEuNS0xLjUgMS41LjY3IDEuNSAxLjV6bTEyIDBjMCAuODMtLjY3IDEuNS0xLjUgMS41cy0xLjUtLjY3LTEuNS0xLjUuNjctMS41IDEuNS0xLjUgMS41LjY3IDEuNSAxLjV6bTEyIDBjMCAuODMtLjY3IDEuNS0xLjUgMS41cy0xLjUtLjY3LTEuNS0xLjUuNjctMS41IDEuNS0xLjUgMS41LjY3IDEuNSAxLjV6bTEyIDBjMCAuODMtLjY3IDEuNS0xLjUgMS41cy0xLjUtLjY3LTEuNS0xLjUuNjctMS41IDEuNS0xLjUgMS41LjY3IDEuNSAxLjV6bTEyIDBjMCAuODMtLjY3IDEuNS0xLjUgMS41cy0xLjUtLjY3LTEuNS0xLjUuNjctMS41IDEuNS0xLjUgMS41LjY3IDEuNSAxLjV6bTEyIDBjMCAuODMtLjY3IDEuNS0xLjUgMS41cy0xLjUtLjY3LTEuNS0xLjUuNjctMS41IDEuNS0xLjUgMS41LjY3IDEuNSAxLjV6bTEyIDBjMCAuODMtLjY3IDEuNS0xLjUgMS41cy0xLjUtLjY3LTEuNS0xLjUuNjctMS41IDEuNS0xLjUgMS41LjY3IDEuNSAxLjV6bTEyIDBjMCAuODMtLjY3IDEuNS0xLjUgMS41cy0xLjUtLjY3LTEuNS0xLjUuNjctMS41IDEuNS0xLjUgMS41LjY3IDEuNSAxLjV6bTEyIDBjMCAuODMtLjY3IDEuNS0xLjUgMS41cy0xLjUtLjY3LTEuNS0xLjUuNjctMS41IDEuNS0xLjUgMS41LjY3IDEuNSAxLjV6bTEyIDBjMCAuODMtLjY3IDEuNS0xLjUgMS41cy0xLjUtLjY3LTEuNS0xLjUuNjctMS41IDEuNS0xLjUgMS41LjY3IDEuNSAxLjV6bTEyIDBjMCAuODMtLjY3IDEuNS0xLjUgMS41cy0xLjUtLjY3LTEuNS0xLjUuNjctMS41IDEuNS0xLjUgMS41LjY3IDEuNSAxLjV6bTEyIDBjMCAuODMtLjY3IDEuNS0xLjUgMS41cy0xLjUtLjY3LTEuNS0xLjUuNjctMS41IDEuNS0xLjUgMS41LjY3IDEuNSAxLjV6bTEyIDBjMCAuODMtLjY3IDEuNS0xLjUgMS41cy0xLjUtLjY3LTEuNS0xLjUuNjctMS41IDEuNS0xLjUgMS41LjY3IDEuNSAxLjV6bTEyIDBjMCAuODMtLjY3IDEuNS0xLjUgMS41cy0xLjUtLjY3LTEuNS0xLjUuNjctMS41IDEuNS0xLjUgMS41LjY3IDEuNSAxLjV6bTEyIDBjMCAuODMtLjY3IDEuNS0xLjUgMS41cy0xLjUtLjY3LTEuNS0xLjUuNjctMS41IDEuNS0xLjUgMS41LjY3IDEuNSAxLjV6bTEyIDBjMCAuODMtLjY3IDEuNS0xLjUgMS41cy0xLjUtLjY3LTEuNS0xLjUuNjctMS41IDEuNS0xLjUgMS41LjY3IDEuNSAxLjV6bTEyIDBjMCAuODMtLjY3IDEuNS0xLjUgMS41cy0xLjUtLjY3LTEuNS0xLjUuNjctMS41IDEuNS0xLjUgMS41LjY3IDEuNSAxLjV6bTEyIDBjMCAuODMtLjY3IDEuNS0xLjUgMS41cy0xLjUtLjY3LTEuNS0xLjUuNjctMS41IDEuNS0xLjUgMS41LjY3IDEuNSAxLjV6bTEyIDBjMCAuODMtLjY3IDEuNS0xLjUgMS41cy0xLjUtLjY3LTEuNS0xLjUuNjctMS41IDEuNS0xLjUgMS41LjY3IDEuNSAxLjV6bTEyIDBjMCAuODMtLjY3IDEuNS0xLjUgMS41cy0xLjUtLjY3LTEuNS0xLjUuNjctMS41IDEuNS0xLjUgMS41LjY3IDEuNSAxLjV6bTEyIDBjMCAuODMtLjY3IDEuNS0xLjUgMS41cy0xLjUtLjY3LTEuNS0xLjUuNjctMS41IDEuNS0xLjUgMS41LjY3IDEuNSAxLjV6bTEyIDBjMCAuODMtLjY3IDEuNS0xLjUgMS41cy0xLjUtLjY3LTEuNS0xLjUuNjctMS41IDEuNS0xLjUgMS41LjY3IDEuNSAxLjV6bTEyIDBjMCAuODMtLjY3IDEuNS0xLjUgMS41cy0xLjUtLjY3LTEuNS0xLjUuNjctMS41IDEuNS0xLjUgMS41LjY3IDEuNSAxLjV6bTEyIDBjMCAuODMtLjY3IDEuNS0xLjUgMS41cy0xLjUtLjY3LTEuNS0xLjUuNjctMS41IDEuNS0xLjUgMS41LjY3IDEuNSAxLjV6bTEyIDBjMCAuODMtLjY3IDEuNS0xLjUgMS41cy0xLjUtLjY3LTEuNS0xLjUuNjctMS41IDEuNS0xLjUgMS41LjY3IDEuNSAxLjV6bTEyIDBjMCAuODMtLjY3IDEuNS0xLjUgMS41cy0xLjUtLjY3LTEuNS0xLjUuNjctMS41IDEuNS0xLjUgMS41LjY3IDEuNSAxLjV6bTEyIDBjMCAuODMtLjY3IDEuNS0xLjUgMS41cy0xLjUtLjY3LTEuNS0xLjUuNjctMS41IDEuNS0xLjUgMS41LjY3IDEuNSAxLjV6bTEyIDBjMCAuODMtLjY3IDEuNS0xLjUgMS41cy0xLjUtLjY3LTEuNS0xLjUuNjctMS41IDEuNS0xLjUgMS41LjY3IDEuNSAxLjV6bTEyIDBjMCAuODMtLjY3IDEuNS0xLjUgMS41cy0xLjUtLjY3LTEuNS0xLjUuNjctMS41IDEuNS0xLjUgMS41LjY3IDEuNSAxLjV6bTEyIDBjMCAuODMtLjY3IDEuNS0xLjUgMS41cy0xLjUtLjY3LTEuNS0xLjUuNjctMS41IDEuNS0xLjUgMS41LjY3IDEuNSAxLjV6bTEyIDBjMCAuODMtLjY3IDEuNS0xLjUgMS41cy0xLjUtLjY3LTEuNS0xLjUuNjctMS41IDEuNS0xLjUgMS41LjY3IDEuNSAxLjV6bTEyIDBjMCAuODMtLjY3IDEuNS0xLjUgMS41cy0xLjUtLjY3LTEuNS0xLjUuNjctMS41IDEuNS0xLjUgMS41LjY3IDEuNSAxLjV6bTEyIDBjMCAuODMtLjY3IDEuNS0xLjUgMS41cy0xLjUtLjY3LTEuNS0xLjUuNjctMS41IDEuNS0xLjUgMS41LjY3IDEuNSAxLjV6bTEyIDBjMCAuODMtLjY3IDEuNS0xLjUgMS41cy0xLjUtLjY3LTEuNS0xLjUuNjctMS41IDEuNS0xLjUgMS41LjY3IDEuNSAxLjV6bTEyIDBjMCAuODMtLjY3IDEuNS0xLjUgMS41cy0xLjUtLjY3LTEuNS0xLjUuNjctMS41IDEuNS0xLjUgMS41LjY3IDEuNSAxLjV6bTEyIDBjMCAuODMtLjY3IDEuNS0xLjUgMS41cy0xLjUtLjY3LTEuNS0xLjUuNjctMS41IDEuNS0xLjUgMS41LjY3IDEuNSAxLjV6bTEyIDBjMCAuODMtLjY3IDEuNS0xLjUgMS41cy0xLjUtLjY3LTEuNS0xLjUuNjctMS41IDEuNS0xLjUgMS41LjY3IDEuNSAxLjV6bTEyIDBjMCAuODMtLjY3IDEuNS0xLjUgMS41cy0xLjUtLjY3LTEuNS0xLjUuNjctMS41IDEuNS0xLjUgMS41LjY3IDEuNSAxLjV6bTEyIDBjMCAuODMtLjY3IDEuNS0xLjUgMS41cy0xLjUtLjY3LTEuNS0xLjUuNjctMS41IDEuNS0xLjUgMS41LjY3IDEuNSAxLjV6bTEyIDBjMCAuODMtLjY3IDEuNS0xLjUgMS41cy0xLjUtLjY3LTEuNS0xLjUuNjctMS41IDEuNS0xLjUgMS41LjY3IDEuNSAxLjV6bTEyIDBjMCAuODMtLjY3IDEuNS0xLjUgMS41cy0xLjUtLjY3LTEuNS0xLjUuNjctMS41IDEuNS0xLjUgMS41LjY3IDEuNSAxLjV6bTEyIDBjMCAuODMtLjY3IDEuNS0xLjUgMS41cy0xLjUtLjY3LTEuNS0xLjUuNjctMS41IDEuNS0xLjUgMS41LjY3IDEuNSAxLjV6bTEyIDBjMCAuODMtLjY3IDEuNS0xLjUgMS41cy0xLjUtLjY3LTEuNS0xLjUuNjctMS41IDEuNS0xLjUgMS41LjY3IDEuNSAxLjV6bTEyIDBjMCAuODMtLjY3IDEuNS0xLjUgMS41cy0xLjUtLjY3LTEuNS0xLjUuNjctMS41IDEuNS0xLjUgMS41LjY3IDEuNSAxLjV6bTEyIDBjMCAuODMtLjY3IDEuNS0xLjUgMS41cy0xLjUtLjY3LTEuNS0xLjUuNjctMS41IDEuNS0xLjUgMS41LjY3IDEuNSAxLjV6bTEyIDBjMCAuODMtLjY3IDEuNS0xLjUgMS41cy0xLjUtLjY3LTEuNS0xLjUuNjctMS41IDEuNS0xLjUgMS41LjY3IDEuNSAxLjV6bTEyIDBjMCAuODMtLjY3IDEuNS0xLjUgMS41cy0xLjUtLjY3LTEuNS0xLjUuNjctMS41IDEuNS0xLjUgMS41LjY3IDEuNSAxLjV6bTEyIDBjMCAuODMtLjY3IDEuNS0xLjUgMS41cy0xLjUtLjY3LTEuNS0xLjUuNjctMS41IDEuNS0xLjUgMS41LjY3IDEuNSAxLjV6bTEyIDBjMCAuODMtLjY3IDEuNS0xLjUgMS41cy0xLjUtLjY3LTEuNS0xLjUuNjctMS41IDEuNS0xLjUgMS41LjY3IDEuNSAxLjV6bTEyIDBjMCAuODMtLjY3IDEuNS0xLjUgMS41cy0xLjUtLjY3LTEuNS0xLjUuNjctMS41IDEuNS0xLjUgMS41LjY3IDEuNSAxLjV6bTEyIDBjMCAuODMtLjY3IDEuNS0xLjUgMS41cy0xLjUtLjY3LTEuNS0xLjUuNjctMS41IDEuNS0xLjUgMS41LjY3IDEuNSAxLjV6bTEyIDBjMCAuODMtLjY3IDEuNS0xLjUgMS41cy0xLjUtLjY3LTEuNS0xLjUuNjctMS41IDEuNS0xLjUgMS41LjY3IDEuNSAxLjV6bTEyIDBjMCAuODMtLjY3IDEuNS0xLjUgMS41cy0xLjUtLjY3LTEuNS0xLjUuNjctMS41IDEuNS0xLjUgMS41LjY3IDEuNSAxLjV6bTEyIDBjMCAuODMtLjY3IDEuNS0xLjUgMS41cy0xLjUtLjY3LTEuNS0xLjUuNjctMS41IDEuNS0xLjUgMS41LjY3IDEuNSAxLjV6bTEyIDBjMCAuODMtLjY3IDEuNS0xLjUgMS41cy0xLjUtLjY3LTEuNS0xLjUuNjctMS41IDEuNS0xLjUgMS41LjY3IDEuNSAxLjV6bTEyIDBjMCAuODMtLjY3IDEuNS0xLjUgMS41cy0xLjUtLjY3LTEuNS0xLjUuNjctMS41IDEuNS0xLjUgMS41LjY3IDEuNSAxLjV6bTEyIDBjMCAuODMtLjY3IDEuNS0xLjUgMS41cy0xLjUtLjY3LTEuNS0xLjUuNjctMS41IDEuNS0xLjUgMS41LjY3IDEuNSAxLjV6bTEyIDBjMCAuODMtLjY3IDEuNS0xLjUgMS41cy0xLjUtLjY3LTEuNS0xLjUuNjctMS41IDEuNS0xLjUgMS41LjY3IDEuNSAxLjV6bTEyIDBjMCAuODMtLjY3IDEuNS0xLjUgMS41cy0xLjUtLjY3LTEuNS0xLjUuNjctMS41IDEuNS0xLjUgMS41LjY3IDEuNSAxLjV6bTEyIDBjMCAuODMtLjY3IDEuNS0xLjUgMS41cy0xLjUtLjY3LTEuNS0xLjUuNjctMS41IDEuNS0xLjUgMS41LjY3IDEuNSAxLjV6bTEyIDBjMCAuODMtLjY3IDEuNS0xLjUgMS41cy0xLjUtLjY3LTEuNS0xLjUuNjctMS41IDEuNS0xLjUgMS41LjY3IDEuNSAxLjV6bTEyIDBjMCAuODMtLjY3IDEuNS0xLjUgMS41cy0xLjUtLjY3LTEuNS0xLjUuNjctMS41IDEuNS0xLjUgMS41LjY3IDEuNSAxLjV6bTEyIDBjMCAuODMtLjY3IDEuNS0xLjUgMS41cy0xLjUtLjY3LTEuNS0xLjUuNjctMS41IDEuNS0xLjUgMS41LjY3IDEuNSAxLjV6bTEyIDBjMCAuODMtLjY3IDEuNS0xLjUgMS41cy0xLjUtLjY3LTEuNS0xLjUuNjctMS41IDEuNS0xLjUgMS41LjY3IDEuNSAxLjV6bTEyIDBjMCAuODMtLjY3IDEuNS0xLjUgMS41cy0xLjUtLjY3LTEuNS0xLjUuNjctMS41IDEuNS0xLjUgMS41LjY3IDEuNSAxLjV6bTEyIDBjMCAuODMtLjY3IDEuNS0xLjUgMS41cy0xLjUtLjY3LTEuNS0xLjUuNjctMS41IDEuNS0xLjUgMS41LjY3IDEuNSAxLjV6bTEyIDBjMCAuODMtLjY3IDEuNS0xLjUgMS41cy0xLjUtLjY3LTEuNS0xLjUuNjctMS41IDEuNS0xLjUgMS41LjY3IDEuNSAxLjV6bTEyIDBjMCAuODMtLjY3IDEuNS0xLjUgMS41cy0xLjUtLjY3LTEuNS0xLjUuNjctMS41IDEuNS0xLjUgMS41LjY3IDEuNSAxLjV6bTEyIDBjMCAuODMtLjY3IDEuNS0xLjUgMS41cy0xLjUtLjY3LTEuNS0xLjUuNjctMS41IDEuNS0xLjUgMS41LjY3IDEuNSAxLjV6bTEyIDBjMCAuODMtLjY3IDEuNS0xLjUgMS41cy0xLjUtLjY3LTEuNS0xLjUuNjctMS41IDEuNS0xLjUgMS41LjY3IDEuNSAxLjV6bTEyIDBjMCAuODMtLjY3IDEuNS0xLjUgMS41cy0xLjUtLjY3LTEuNS0xLjUuNjctMS41IDEuNS0xLjUgMS41LjY3IDEuNSAxLjV6bTEyIDBjMCAuODMtLjY3IDEuNS0xLjUgMS41cy0xLjUtLjY3LTEuNS0xLjUuNjctMS41IDEuNS0xLjUgMS41LjY3IDEuNSAxLjV6bTEyIDBjMCAuODMtLjY3IDEuNS0xLjUgMS41cy0xLjUtLjY3LTEuNS0xLjUuNjctMS41IDEuNS0xLjUgMS41LjY3IDEuNSAxLjV6bTEyIDBjMCAuODMtLjY3IDEuNS0xLjUgMS41cy0xLjUtLjY3LTEuNS0xLjUuNjctMS41IDEuNS0xLjUgMS41LjY3IDEuNSAxLjV6bTEyIDBjMCAuODMtLjY3IDEuNS0xLjUgMS41cy0xLjUtLjY3LTEuNS0xLjUuNjctMS41IDEuNS0xLjUgMS41LjY3IDEuNSAxLjV6bTEyIDBjMCAuODMtLjY3IDEuNS0xLjUgMS41cy0xLjUtLjY3LTEuNS0xLjUuNjctMS41IDEuNS0xLjUgMS41LjY3IDEuNSAxLjV6bTEyIDBjMCAuODMtLjY3IDEuNS0xLjUgMS41cy0xLjUtLjY3LTEuNS0xLjUuNjctMS41IDEuNS0xLjUgMS41LjY3IDEuNSAxLjV6bTEyIDBjMCAuODMtLjY3IDEuNS0xLjUgMS41cy0xLjUtLjY3LTEuNS0xLjUuNjctMS41IDEuNS0xLjUgMS41LjY3IDEuNSAxLjV6bTEyIDBjMCAuODMtLjY3IDEuNS0xLjUgMS41cy0xLjUtLjY3LTEuNS0xLjUuNjctMS41IDEuNS0xLjUgMS41LjY3IDEuNSAxLjV6bTEyIDBjMCAuODMtLjY3IDEuNS0xLjUgMS41cy0xLjUtLjY3LTEuNS0xLjUuNjctMS41IDEuNS0xLjUgMS41LjY3IDEuNSAxLjV6bTEyIDBjMCAuODMtLjY3IDEuNS0xLjUgMS41cy0xLjUtLjY3LTEuNS0xLjUuNjctMS41IDEuNS0xLjUgMS41LjY3IDEuNSAxLjV6bTEyIDBjMCAuODMtLjY3IDEuNS0xLjUgMS41cy0xLjUtLjY3LTEuNS0xLjUuNjctMS41IDEuNS0xLjUgMS41LjY3IDEuNSAxLjV6bTEyIDBjMCAuODMtLjY3IDEuNS0xLjUgMS41cy0xLjUtLjY3LTEuNS0xLjUuNjctMS41IDEuNS0xLjUgMS41LjY3IDEuNSAxLjV6bTEyIDBjMCAuODMtLjY3IDEuNS0xLjUgMS41cy0xLjUtLjY3LTEuNS0xLjUuNjctMS41IDEuNS0xLjUgMS41LjY3IDEuNSAxLjV6bTEyIDBjMCAuODMtLjY3IDEuNS0xLjUgMS41cy0xLjUtLjY3LTEuNS0xLjUuNjctMS41IDEuNS0xLjUgMS41LjY3IDEuNSAxLjV6bTEyIDBjMCAuODMtLjY3IDEuNS0xLjUgMS41cy0xLjUtLjY3LTEuNS0xLjUuNjctMS41IDEuNS0xLjUgMS41LjY3IDEuNSAxLjV6bTEyIDBjMCAuODMtLjY3IDEuNS0xLjUgMS41cy0xLjUtLjY3LTEuNS0xLjUuNjctMS41IDEuNS0xLjUgMS41LjY3IDEuNSAxLjV6bTExLjQ0IDIuMzdjMCAuODMtLjY3IDEuNS0xLjUgMS41LS44MiAwLTEuNS0uNjctMS41LTEuNXMuNjgtMS41IDEuNS0xLjVjLjgzIDAgMS41LjY3IDEuNSAxLjV6bTkuNzcgNi40MmMwIC44Mi0uNjYgMS41LTEuNSAxLjUtLjggMC0xLjUtLjY4LTEuNS0xLjUgMC0uODQuNy0xLjUgMS41LTEuNS44NCAwIDEuNS42NiAxLjUgMS41em02LjQzIDkuNzZjMCAuODItLjY3IDEuNS0xLjUgMS41cy0xLjUtLjY4LTEuNS0xLjVjMC0uODMuNjctMS41IDEuNS0xLjVzMS41LjY3IDEuNSAxLjV6bTIuMzcgMTEuNDRjMCAuODMtLjY3IDEuNS0xLjUgMS41cy0xLjUtLjY3LTEuNS0xLjUuNjctMS41IDEuNS0xLjUgMS41LjY3IDEuNSAxLjV6bTAgMTEuOTdjMCAuODMtLjY3IDEuNS0xLjUgMS41cy0xLjUtLjY3LTEuNS0xLjUuNjctMS41IDEuNS0xLjUgMS41LjY3IDEuNSAxLjV6bTAgMTEuOThjMCAuODMtLjY3IDEuNS0xLjUgMS41cy0xLjUtLjY3LTEuNS0xLjUuNjctMS41IDEuNS0xLjUgMS41LjY3IDEuNSAxLjV6bTAgMTEuOTdjMCAuODMtLjY3IDEuNS0xLjUgMS41cy0xLjUtLjY3LTEuNS0xLjUuNjctMS41IDEuNS0xLjUgMS41LjY3IDEuNSAxLjV6bTAgMTEuOTdjMCAuODItLjY3IDEuNS0xLjUgMS41cy0xLjUtLjY4LTEuNS0xLjVjMC0uODMuNjctMS41IDEuNS0xLjVzMS41LjY3IDEuNSAxLjV6bTAgMTEuOTdjMCAuODMtLjY3IDEuNS0xLjUgMS41cy0xLjUtLjY3LTEuNS0xLjUuNjctMS41IDEuNS0xLjUgMS41LjY3IDEuNSAxLjV6bTAgMTEuOTdjMCAuODMtLjY3IDEuNS0xLjUgMS41cy0xLjUtLjY3LTEuNS0xLjUuNjctMS41IDEuNS0xLjUgMS41LjY3IDEuNSAxLjV6bTAgMTEuOThjMCAuODItLjY3IDEuNS0xLjUgMS41cy0xLjUtLjY4LTEuNS0xLjVjMC0uODMuNjctMS41IDEuNS0xLjVzMS41LjY3IDEuNSAxLjV6bTAgMTEuOTdjMCAuODItLjY3IDEuNS0xLjUgMS41cy0xLjUtLjY4LTEuNS0xLjVjMC0uODQuNjctMS41IDEuNS0xLjVzMS41LjY2IDEuNSAxLjV6bTAgMTEuOTZjMCAuODMtLjY3IDEuNS0xLjUgMS41cy0xLjUtLjY3LTEuNS0xLjUuNjctMS41IDEuNS0xLjUgMS41LjY3IDEuNSAxLjV6bTAgMTEuOThjMCAuODMtLjY3IDEuNS0xLjUgMS41cy0xLjUtLjY3LTEuNS0xLjUuNjctMS41IDEuNS0xLjUgMS41LjY3IDEuNSAxLjV6bTAgMTEuOTdjMCAuODQtLjY3IDEuNS0xLjUgMS41cy0xLjUtLjY2LTEuNS0xLjVjMC0uODIuNjctMS41IDEuNS0xLjVzMS41LjY4IDEuNSAxLjV6bTAgMTEuOThjMCAuODMtLjY3IDEuNS0xLjUgMS41cy0xLjUtLjY3LTEuNS0xLjVjMC0uODIuNjctMS41IDEuNS0xLjVzMS41LjY4IDEuNSAxLjV6bTAgMTEuOThjMCAuODMtLjY3IDEuNS0xLjUgMS41cy0xLjUtLjY3LTEuNS0xLjUuNjctMS41IDEuNS0xLjUgMS41LjY3IDEuNSAxLjV6bTAgMTEuOTdjMCAuODMtLjY3IDEuNS0xLjUgMS41cy0xLjUtLjY3LTEuNS0xLjUuNjctMS41IDEuNS0xLjUgMS41LjY3IDEuNSAxLjV6bTAgMTEuOThjMCAuODMtLjY3IDEuNS0xLjUgMS41cy0xLjUtLjY3LTEuNS0xLjVjMC0uODIuNjctMS41IDEuNS0xLjVzMS41LjY4IDEuNSAxLjV6bTAgMTEuOThjMCAuODMtLjY3IDEuNS0xLjUgMS41cy0xLjUtLjY3LTEuNS0xLjUuNjctMS41IDEuNS0xLjUgMS41LjY3IDEuNSAxLjV6bTAgMTEuOTdjMCAuODMtLjY3IDEuNS0xLjUgMS41cy0xLjUtLjY3LTEuNS0xLjUuNjctMS41IDEuNS0xLjUgMS41LjY3IDEuNSAxLjV6bTAgMTEuOThjMCAuODMtLjY3IDEuNS0xLjUgMS41cy0xLjUtLjY3LTEuNS0xLjUuNjctMS41IDEuNS0xLjUgMS41LjY3IDEuNSAxLjV6bTAgMTEuOTdjMCAuODMtLjY3IDEuNS0xLjUgMS41cy0xLjUtLjY3LTEuNS0xLjUuNjctMS41IDEuNS0xLjUgMS41LjY3IDEuNSAxLjV6bTAgMTEuOTdjMCAuODMtLjY3IDEuNS0xLjUgMS41cy0xLjUtLjY3LTEuNS0xLjUuNjctMS41IDEuNS0xLjUgMS41LjY3IDEuNSAxLjV6bTAgMTEuOThjMCAuODMtLjY3IDEuNS0xLjUgMS41cy0xLjUtLjY3LTEuNS0xLjUuNjctMS41IDEuNS0xLjUgMS41LjY3IDEuNSAxLjV6bTAgMTEuOTdjMCAuODMtLjY3IDEuNS0xLjUgMS41cy0xLjUtLjY3LTEuNS0xLjUuNjctMS41IDEuNS0xLjUgMS41LjY3IDEuNSAxLjV6bTAgMTEuOThjMCAuODItLjY3IDEuNS0xLjUgMS41cy0xLjUtLjY4LTEuNS0xLjVjMC0uODMuNjctMS41IDEuNS0xLjVzMS41LjY3IDEuNSAxLjV6bTAgMTEuOTdjMCAuODMtLjY3IDEuNS0xLjUgMS41cy0xLjUtLjY3LTEuNS0xLjUuNjctMS41IDEuNS0xLjUgMS41LjY3IDEuNSAxLjV6bTAgMTEuOTdjMCAuODMtLjY3IDEuNS0xLjUgMS41cy0xLjUtLjY3LTEuNS0xLjUuNjctMS41IDEuNS0xLjUgMS41LjY3IDEuNSAxLjV6bTAgMTEuOThjMCAuODItLjY3IDEuNS0xLjUgMS41cy0xLjUtLjY4LTEuNS0xLjVjMC0uODMuNjctMS41IDEuNS0xLjVzMS41LjY3IDEuNSAxLjV6bTAgMTEuOTdjMCAuODItLjY3IDEuNS0xLjUgMS41cy0xLjUtLjY4LTEuNS0xLjVjMC0uODQuNjctMS41IDEuNS0xLjVzMS41LjY2IDEuNSAxLjV6bTAgMTEuOTZjMCAuODMtLjY3IDEuNS0xLjUgMS41cy0xLjUtLjY3LTEuNS0xLjUuNjctMS41IDEuNS0xLjUgMS41LjY3IDEuNSAxLjV6bTAgMTEuOThjMCAuODMtLjY3IDEuNS0xLjUgMS41cy0xLjUtLjY3LTEuNS0xLjUuNjctMS41IDEuNS0xLjUgMS41LjY3IDEuNSAxLjV6bTAgMTEuOTdjMCAuODQtLjY3IDEuNS0xLjUgMS41cy0xLjUtLjY2LTEuNS0xLjVjMC0uODIuNjctMS41IDEuNS0xLjVzMS41LjY4IDEuNSAxLjV6bTAgMTEuOThjMCAuODMtLjY3IDEuNS0xLjUgMS41cy0xLjUtLjY3LTEuNS0xLjVjMC0uODIuNjctMS41IDEuNS0xLjVzMS41LjY4IDEuNSAxLjV6bTAgMTEuOThjMCAuODMtLjY3IDEuNS0xLjUgMS41cy0xLjUtLjY3LTEuNS0xLjUuNjctMS41IDEuNS0xLjUgMS41LjY3IDEuNSAxLjV6bTAgMTEuOTdjMCAuODMtLjY3IDEuNS0xLjUgMS41cy0xLjUtLjY3LTEuNS0xLjUuNjctMS41IDEuNS0xLjUgMS41LjY3IDEuNSAxLjV6bTAgMTEuOThjMCAuODMtLjY3IDEuNS0xLjUgMS41cy0xLjUtLjY3LTEuNS0xLjVjMC0uODIuNjctMS41IDEuNS0xLjVzMS41LjY4IDEuNSAxLjV6bTAgMTEuOThjMCAuODMtLjY3IDEuNS0xLjUgMS41cy0xLjUtLjY3LTEuNS0xLjUuNjctMS41IDEuNS0xLjUgMS41LjY3IDEuNSAxLjV6bTAgMTEuOTdjMCAuODMtLjY3IDEuNS0xLjUgMS41cy0xLjUtLjY3LTEuNS0xLjUuNjctMS41IDEuNS0xLjUgMS41LjY3IDEuNSAxLjV6bTAgMTEuOThjMCAuODMtLjY3IDEuNS0xLjUgMS41cy0xLjUtLjY3LTEuNS0xLjUuNjctMS41IDEuNS0xLjUgMS41LjY3IDEuNSAxLjV6bTAgMTEuOTdjMCAuODMtLjY3IDEuNS0xLjUgMS41cy0xLjUtLjY3LTEuNS0xLjUuNjctMS41IDEuNS0xLjUgMS41LjY3IDEuNSAxLjV6bTAgMTEuOTdjMCAuODMtLjY3IDEuNS0xLjUgMS41cy0xLjUtLjY3LTEuNS0xLjUuNjctMS41IDEuNS0xLjUgMS41LjY3IDEuNSAxLjV6bTAgMTEuOThjMCAuODMtLjY3IDEuNS0xLjUgMS41cy0xLjUtLjY3LTEuNS0xLjUuNjctMS41IDEuNS0xLjUgMS41LjY3IDEuNSAxLjV6bTAgMTEuOTdjMCAuODMtLjY3IDEuNS0xLjUgMS41cy0xLjUtLjY3LTEuNS0xLjUuNjctMS41IDEuNS0xLjUgMS41LjY3IDEuNSAxLjV6bTAgMTEuOThjMCAuODItLjY3IDEuNS0xLjUgMS41cy0xLjUtLjY4LTEuNS0xLjVjMC0uODMuNjctMS41IDEuNS0xLjVzMS41LjY3IDEuNSAxLjV6bTAgMTEuOTdjMCAuODMtLjY3IDEuNS0xLjUgMS41cy0xLjUtLjY3LTEuNS0xLjUuNjctMS41IDEuNS0xLjUgMS41LjY3IDEuNSAxLjV6bTAgMTEuOTdjMCAuODMtLjY3IDEuNS0xLjUgMS41cy0xLjUtLjY3LTEuNS0xLjUuNjctMS41IDEuNS0xLjUgMS41LjY3IDEuNSAxLjV6bTAgMTEuOThjMCAuODItLjY3IDEuNS0xLjUgMS41cy0xLjUtLjY4LTEuNS0xLjVjMC0uODMuNjctMS41IDEuNS0xLjVzMS41LjY3IDEuNSAxLjV6bTAgMTEuOTdjMCAuODItLjY3IDEuNS0xLjUgMS41cy0xLjUtLjY4LTEuNS0xLjVjMC0uODQuNjctMS41IDEuNS0xLjVzMS41LjY2IDEuNSAxLjV6bTAgMTEuOTZjMCAuODMtLjY3IDEuNS0xLjUgMS41cy0xLjUtLjY3LTEuNS0xLjUuNjctMS41IDEuNS0xLjUgMS41LjY3IDEuNSAxLjV6bTAgMTEuOThjMCAuODMtLjY3IDEuNS0xLjUgMS41cy0xLjUtLjY3LTEuNS0xLjUuNjctMS41IDEuNS0xLjUgMS41LjY3IDEuNSAxLjV6bTAgMTEuOTdjMCAuODQtLjY3IDEuNS0xLjUgMS41cy0xLjUtLjY2LTEuNS0xLjVjMC0uODIuNjctMS41IDEuNS0xLjVzMS41LjY4IDEuNSAxLjV6bTAgMTEuOThjMCAuODMtLjY3IDEuNS0xLjUgMS41cy0xLjUtLjY3LTEuNS0xLjVjMC0uODIuNjctMS41IDEuNS0xLjVzMS41LjY4IDEuNSAxLjV6bTAgMTEuOThjMCAuODMtLjY3IDEuNS0xLjUgMS41cy0xLjUtLjY3LTEuNS0xLjUuNjctMS41IDEuNS0xLjUgMS41LjY3IDEuNSAxLjV6bTAgMTEuOTdjMCAuODMtLjY3IDEuNS0xLjUgMS41cy0xLjUtLjY3LTEuNS0xLjUuNjctMS41IDEuNS0xLjUgMS41LjY3IDEuNSAxLjV6bTAgMTEuOThjMCAuODMtLjY3IDEuNS0xLjUgMS41cy0xLjUtLjY3LTEuNS0xLjVjMC0uODIuNjctMS41IDEuNS0xLjVzMS41LjY4IDEuNSAxLjV6bTAgMTEuOThjMCAuODMtLjY3IDEuNS0xLjUgMS41cy0xLjUtLjY3LTEuNS0xLjUuNjctMS41IDEuNS0xLjUgMS41LjY3IDEuNSAxLjV6bTAgMTEuOTdjMCAuODMtLjY3IDEuNS0xLjUgMS41cy0xLjUtLjY3LTEuNS0xLjUuNjctMS41IDEuNS0xLjUgMS41LjY3IDEuNSAxLjV6bTAgMTEuOThjMCAuODMtLjY3IDEuNS0xLjUgMS41cy0xLjUtLjY3LTEuNS0xLjUuNjctMS41IDEuNS0xLjUgMS41LjY3IDEuNSAxLjV6bTAgMTEuOTdjMCAuODMtLjY3IDEuNS0xLjUgMS41cy0xLjUtLjY3LTEuNS0xLjUuNjctMS41IDEuNS0xLjUgMS41LjY3IDEuNSAxLjV6bTAgMTEuOTdjMCAuODMtLjY3IDEuNS0xLjUgMS41cy0xLjUtLjY3LTEuNS0xLjUuNjctMS41IDEuNS0xLjUgMS41LjY3IDEuNSAxLjV6bTAgMTEuOThjMCAuODMtLjY3IDEuNS0xLjUgMS41cy0xLjUtLjY3LTEuNS0xLjUuNjctMS41IDEuNS0xLjUgMS41LjY3IDEuNSAxLjV6bTAgMTEuOTdjMCAuODMtLjY3IDEuNS0xLjUgMS41cy0xLjUtLjY3LTEuNS0xLjUuNjctMS41IDEuNS0xLjUgMS41LjY3IDEuNSAxLjV6bTAgMTEuOTdjMCAuODItLjY3IDEuNS0xLjUgMS41cy0xLjUtLjY4LTEuNS0xLjVjMC0uODMuNjctMS41IDEuNS0xLjVzMS41LjY3IDEuNSAxLjV6bTAgMTEuOTdjMCAuODMtLjY3IDEuNS0xLjUgMS41cy0xLjUtLjY3LTEuNS0xLjUuNjctMS41IDEuNS0xLjUgMS41LjY3IDEuNSAxLjV6bTAgMTEuOTdjMCAuODMtLjY3IDEuNS0xLjUgMS41cy0xLjUtLjY3LTEuNS0xLjUuNjctMS41IDEuNS0xLjUgMS41LjY3IDEuNSAxLjV6bTAgMTEuOThjMCAuODItLjY3IDEuNS0xLjUgMS41cy0xLjUtLjY4LTEuNS0xLjVjMC0uODMuNjctMS41IDEuNS0xLjVzMS41LjY3IDEuNSAxLjV6bTAgMTEuOTdjMCAuODItLjY3IDEuNS0xLjUgMS41cy0xLjUtLjY4LTEuNS0xLjVjMC0uODQuNjctMS41IDEuNS0xLjVzMS41LjY2IDEuNSAxLjV6bTAgMTEuOTZjMCAuODMtLjY3IDEuNS0xLjUgMS41cy0xLjUtLjY3LTEuNS0xLjVjMC0uODIuNjctMS41IDEuNS0xLjVzMS41LjY4IDEuNSAxLjV6bTAgMTEuOThjMCAuODItLjY3IDEuNS0xLjUgMS41cy0xLjUtLjY4LTEuNS0xLjVjMC0uODMuNjctMS41IDEuNS0xLjVzMS41LjY3IDEuNSAxLjV6bTAgMTEuOTdjMCAuODQtLjY3IDEuNS0xLjUgMS41cy0xLjUtLjY2LTEuNS0xLjVjMC0uODIuNjctMS41IDEuNS0xLjVzMS41LjY4IDEuNSAxLjV6bTAgMTEuOThjMCAuODMtLjY3IDEuNS0xLjUgMS41cy0xLjUtLjY3LTEuNS0xLjVjMC0uODIuNjctMS41IDEuNS0xLjVzMS41LjY4IDEuNSAxLjV6bTAgMTEuOThjMCAuODMtLjY3IDEuNS0xLjUgMS41cy0xLjUtLjY3LTEuNS0xLjUuNjctMS41IDEuNS0xLjUgMS41LjY3IDEuNSAxLjV6bTAgMTEuOTdjMCAuODMtLjY3IDEuNS0xLjUgMS41cy0xLjUtLjY3LTEuNS0xLjUuNjctMS41IDEuNS0xLjUgMS41LjY3IDEuNSAxLjV6bTAgMTEuOTdjMCAuODMtLjY3IDEuNS0xLjUgMS41cy0xLjUtLjY3LTEuNS0xLjVjMC0uODIuNjctMS41IDEuNS0xLjVzMS41LjY4IDEuNSAxLjV6bTAgMTEuOThjMCAuODMtLjY3IDEuNS0xLjUgMS41cy0xLjUtLjY3LTEuNS0xLjUuNjctMS41IDEuNS0xLjUgMS41LjY3IDEuNSAxLjV6bTAgMTEuOTdjMCAuODMtLjY3IDEuNS0xLjUgMS41cy0xLjUtLjY3LTEuNS0xLjUuNjctMS41IDEuNS0xLjUgMS41LjY3IDEuNSAxLjV6bTAgMTEuOThjMCAuODItLjY3IDEuNS0xLjUgMS41cy0xLjUtLjY4LTEuNS0xLjVjMC0uODMuNjctMS41IDEuNS0xLjVzMS41LjY3IDEuNSAxLjV6bTAgMTEuOTdjMCAuODMtLjY3IDEuNS0xLjUgMS41cy0xLjUtLjY3LTEuNS0xLjUuNjctMS41IDEuNS0xLjUgMS41LjY3IDEuNSAxLjV6bTAgMTEuOTdjMCAuODMtLjY3IDEuNS0xLjUgMS41cy0xLjUtLjY3LTEuNS0xLjVjMC0uODIuNjctMS41IDEuNS0xLjVzMS41LjY4IDEuNSAxLjV6bTAgMTEuOThjMCAuODMtLjY3IDEuNS0xLjUgMS41cy0xLjUtLjY3LTEuNS0xLjUuNjctMS41IDEuNS0xLjUgMS41LjY3IDEuNSAxLjV6bTAgMTEuOTdjMCAuODMtLjY3IDEuNS0xLjUgMS41cy0xLjUtLjY3LTEuNS0xLjUuNjctMS41IDEuNS0xLjUgMS41LjY3IDEuNSAxLjV6bTAgMTEuOThjMCAuODItLjY3IDEuNS0xLjUgMS41cy0xLjUtLjY4LTEuNS0xLjVjMC0uODMuNjctMS41IDEuNS0xLjVzMS41LjY3IDEuNSAxLjV6bTAgMTEuOTdjMCAuODMtLjY3IDEuNS0xLjUgMS41cy0xLjUtLjY3LTEuNS0xLjUuNjctMS41IDEuNS0xLjUgMS41LjY3IDEuNSAxLjV6bTAgMTEuOTdjMCAuODMtLjY3IDEuNS0xLjUgMS41cy0xLjUtLjY3LTEuNS0xLjUuNjctMS41IDEuNS0xLjUgMS41LjY3IDEuNSAxLjV6bTAgMTEuOThjMCAuODItLjY3IDEuNS0xLjUgMS41cy0xLjUtLjY4LTEuNS0xLjVjMC0uODMuNjctMS41IDEuNS0xLjVzMS41LjY3IDEuNSAxLjV6bTAgMTEuOTdjMCAuODItLjY3IDEuNS0xLjUgMS41cy0xLjUtLjY4LTEuNS0xLjVjMC0uODQuNjctMS41IDEuNS0xLjVzMS41LjY2IDEuNSAxLjV6bTAgMTEuOTZjMCAuODMtLjY3IDEuNS0xLjUgMS41cy0xLjUtLjY3LTEuNS0xLjUuNjctMS41IDEuNS0xLjUgMS41LjY3IDEuNSAxLjV6bTAgMTEuOThjMCAuODMtLjY3IDEuNS0xLjUgMS41cy0xLjUtLjY3LTEuNS0xLjUuNjctMS41IDEuNS0xLjUgMS41LjY3IDEuNSAxLjV6bTAgMTEuOTdjMCAuODQtLjY3IDEuNS0xLjUgMS41cy0xLjUtLjY2LTEuNS0xLjVjMC0uODIuNjctMS41IDEuNS0xLjVzMS41LjY4IDEuNSAxLjV6bTAgMTEuOThjMCAuODMtLjY3IDEuNS0xLjUgMS41cy0xLjUtLjY3LTEuNS0xLjVjMC0uODIuNjctMS41IDEuNS0xLjVzMS41LjY4IDEuNSAxLjV6bTAgMTEuOThjMCAuODMtLjY3IDEuNS0xLjUgMS41cy0xLjUtLjY3LTEuNS0xLjUuNjctMS41IDEuNS0xLjUgMS41LjY3IDEuNSAxLjV6bTAgMTEuOTdjMCAuODMtLjY3IDEuNS0xLjUgMS41cy0xLjUtLjY3LTEuNS0xLjUuNjctMS41IDEuNS0xLjUgMS41LjY3IDEuNSAxLjV6bTAgMTEuOTdjMCAuODMtLjY3IDEuNS0xLjUgMS41cy0xLjUtLjY3LTEuNS0xLjVjMC0uODIuNjctMS41IDEuNS0xLjVzMS41LjY4IDEuNSAxLjV6bTAgMTEuOThjMCAuODMtLjY3IDEuNS0xLjUgMS41cy0xLjUtLjY3LTEuNS0xLjUuNjctMS41IDEuNS0xLjUgMS41LjY3IDEuNSAxLjV6bTAgMTEuOTdjMCAuODMtLjY3IDEuNS0xLjUgMS41cy0xLjUtLjY3LTEuNS0xLjUuNjctMS41IDEuNS0xLjUgMS41LjY3IDEuNSAxLjV6bTAgMTEuOThjMCAuODMtLjY3IDEuNS0xLjUgMS41cy0xLjUtLjY4LTEuNS0xLjVjMC0uODMuNjctMS41IDEuNS0xLjVzMS41LjY3IDEuNSAxLjV6bTAgMTEuOTdjMCAuODMtLjY3IDEuNS0xLjUgMS41cy0xLjUtLjY3LTEuNS0xLjUuNjctMS41IDEuNS0xLjUgMS41LjY3IDEuNSAxLjV6bTAgMTEuOTdjMCAuODMtLjY3IDEuNS0xLjUgMS41cy0xLjUtLjY3LTEuNS0xLjVjMC0uODIuNjctMS41IDEuNS0xLjVzMS41LjY4IDEuNSAxLjV6bTAgMTEuOThjMCAuODMtLjY3IDEuNS0xLjUgMS41cy0xLjUtLjY3LTEuNS0xLjUuNjctMS41IDEuNS0xLjUgMS41LjY3IDEuNSAxLjV6bTAgMTEuOTdjMCAuODMtLjY3IDEuNS0xLjUgMS41cy0xLjUtLjY3LTEuNS0xLjUuNjctMS41IDEuNS0xLjUgMS41LjY3IDEuNSAxLjV6bTAgMTEuOTdjMCAuODItLjY3IDEuNS0xLjUgMS41cy0xLjUtLjY4LTEuNS0xLjVjMC0uODMuNjctMS41IDEuNS0xLjVzMS41LjY3IDEuNSAxLjV6bTAgMTEuOTdjMCAuODMtLjY3IDEuNS0xLjUgMS41cy0xLjUtLjY3LTEuNS0xLjUuNjctMS41IDEuNS0xLjUgMS41LjY3IDEuNSAxLjV6bTAgMTEuOTdjMCAuODMtLjY3IDEuNS0xLjUgMS41cy0xLjUtLjY3LTEuNS0xLjUuNjctMS41IDEuNS0xLjUgMS41LjY3IDEuNSAxLjV6bTAgMTEuOThjMCAuODItLjY3IDEuNS0xLjUgMS41cy0xLjUtLjY4LTEuNS0xLjVjMC0uODMuNjctMS41IDEuNS0xLjVzMS41LjY3IDEuNSAxLjV6bTAgMTEuOTdjMCAuODItLjY3IDEuNS0xLjUgMS41cy0xLjUtLjY4LTEuNS0xLjVjMC0uODQuNjctMS41IDEuNS0xLjVzMS41LjY2IDEuNSAxLjV6bTAgMTEuOTZjMCAuODMtLjY3IDEuNS0xLjUgMS41cy0xLjUtLjY3LTEuNS0xLjVjMC0uODIuNjctMS41IDEuNS0xLjVzMS41LjY4IDEuNSAxLjV6bTAgMTEuOThjMCAuODItLjY3IDEuNS0xLjUgMS41cy0xLjUtLjY4LTEuNS0xLjVjMC0uODMuNjctMS41IDEuNS0xLjVzMS41LjY3IDEuNSAxLjV6bTAgMTEuOTdjMCAuODQtLjY3IDEuNS0xLjUgMS41cy0xLjUtLjY2LTEuNS0xLjVjMC0uODIuNjctMS41IDEuNS0xLjVzMS41LjY4IDEuNSAxLjV6bTAgMTEuOThjMCAuODMtLjY3IDEuNS0xLjUgMS41cy0xLjUtLjY3LTEuNS0xLjVjMC0uODIuNjctMS41IDEuNS0xLjVzMS41LjY4IDEuNSAxLjV6bTAgMTEuOThjMCAuODMtLjY3IDEuNS0xLjUgMS41cy0xLjUtLjY3LTEuNS0xLjUuNjctMS41IDEuNS0xLjUgMS41LjY3IDEuNSAxLjV6bTAgMTEuOTdjMCAuODMtLjY3IDEuNS0xLjUgMS41cy0xLjUtLjY3LTEuNS0xLjUuNjctMS41IDEuNS0xLjUgMS41LjY3IDEuNSAxLjV6bTAgMTEuOTdjMCAuODMtLjY3IDEuNS0xLjUgMS41cy0xLjUtLjY3LTEuNS0xLjVjMC0uODIuNjctMS41IDEuNS0xLjVzMS41LjY4IDEuNSAxLjV6bTAgMTEuOThjMCAuODMtLjY3IDEuNS0xLjUgMS41cy0xLjUtLjY3LTEuNS0xLjUuNjctMS41IDEuNS0xLjUgMS41LjY3IDEuNSAxLjV6bTAgMTEuOTdjMCAuODMtLjY3IDEuNS0xLjUgMS41cy0xLjUtLjY3LTEuNS0xLjUuNjctMS41IDEuNS0xLjUgMS41LjY3IDEuNSAxLjV6bTAgMTEuOThjMCAuODItLjY3IDEuNS0xLjUgMS41cy0xLjUtLjY4LTEuNS0xLjVjMC0uODMuNjctMS41IDEuNS0xLjVzMS41LjY3IDEuNSAxLjV6bTAgMTEuOTdjMCAuODMtLjY3IDEuNS0xLjUgMS41cy0xLjUtLjY3LTEuNS0xLjUuNjctMS41IDEuNS0xLjUgMS41LjY3IDEuNSAxLjV6bTAgMTEuOTdjMCAuODMtLjY3IDEuNS0xLjUgMS41cy0xLjUtLjY3LTEuNS0xLjUuNjctMS41IDEuNS0xLjUgMS41LjY3IDEuNSAxLjV6bTAgMTEuOThjMCAuODMtLjY3IDEuNS0xLjUgMS41cy0xLjUtLjY3LTEuNS0xLjUuNjctMS41IDEuNS0xLjUgMS41LjY3IDEuNSAxLjV6bTAgMTEuOTdjMCAuODMtLjY3IDEuNS0xLjUgMS41cy0xLjUtLjY3LTEuNS0xLjUuNjctMS41IDEuNS0xLjUgMS41LjY3IDEuNSAxLjV6bTAgMTEuOTdjMCAuODItLjY3IDEuNS0xLjUgMS41cy0xLjUtLjY4LTEuNS0xLjVjMC0uODMuNjctMS41IDEuNS0xLjVzMS41LjY3IDEuNSAxLjV6bTAgMTEuOTdjMCAuODMtLjY3IDEuNS0xLjUgMS41cy0xLjUtLjY3LTEuNS0xLjUuNjctMS41IDEuNS0xLjUgMS41LjY3IDEuNSAxLjV6bTAgMTEuOTdjMCAuODMtLjY3IDEuNS0xLjUgMS41cy0xLjUtLjY3LTEuNS0xLjUuNjctMS41IDEuNS0xLjUgMS41LjY3IDEuNSAxLjV6bTAgMTEuOThjMCAuODItLjY3IDEuNS0xLjUgMS41cy0xLjUtLjY4LTEuNS0xLjVjMC0uODMuNjctMS41IDEuNS0xLjVzMS41LjY3IDEuNSAxLjV6bTAgMTEuOTdjMCAuODItLjY3IDEuNS0xLjUgMS41cy0xLjUtLjY4LTEuNS0xLjVjMC0uODQuNjctMS41IDEuNS0xLjVzMS41LjY2IDEuNSAxLjV6bTAgMTEuOTZjMCAuODMtLjY3IDEuNS0xLjUgMS41cy0xLjUtLjY3LTEuNS0xLjVjMC0uODIuNjctMS41IDEuNS0xLjVzMS41LjY4IDEuNSAxLjV6bTAgMTEuOThjMCAuODItLjY3IDEuNS0xLjUgMS41cy0xLjUtLjY4LTEuNS0xLjVjMC0uODMuNjctMS41IDEuNS0xLjVzMS41LjY3IDEuNSAxLjV6bTAgMTEuOTdjMCAuODQtLjY3IDEuNS0xLjUgMS41cy0xLjUtLjY2LTEuNS0xLjVjMC0uODIuNjctMS41IDEuNS0xLjVzMS41LjY4IDEuNSAxLjV6bTAgMTEuOThjMCAuODMtLjY3IDEuNS0xLjUgMS41cy0xLjUtLjY3LTEuNS0xLjVjMC0uODIuNjctMS41IDEuNS0xLjVzMS41LjY4IDEuNSAxLjV6bTAgMTEuOThjMCAuODMtLjY3IDEuNS0xLjUgMS41cy0xLjUtLjY3LTEuNS0xLjUuNjctMS41IDEuNS0xLjUgMS41LjY3IDEuNSAxLjV6bTAgMTEuOTdjMCAuODMtLjY3IDEuNS0xLjUgMS41cy0xLjUtLjY3LTEuNS0xLjUuNjctMS41IDEuNS0xLjUgMS41LjY3IDEuNSAxLjV6bTAgMTEuOThjMCAuODMtLjY3IDEuNS0xLjUgMS41cy0xLjUtLjY3LTEuNS0xLjVjMC0uODIuNjctMS41IDEuNS0xLjVzMS41LjY4IDEuNSAxLjV6bTAgMTEuOThjMCAuODMtLjY3IDEuNS0xLjUgMS41cy0xLjUtLjY3LTEuNS0xLjUuNjctMS41IDEuNS0xLjUgMS41LjY3IDEuNSAxLjV6bTAgMTEuOTdjMCAuODMtLjY3IDEuNS0xLjUgMS41cy0xLjUtLjY3LTEuNS0xLjUuNjctMS41IDEuNS0xLjUgMS41LjY3IDEuNSAxLjV6bTAgMTEuOThjMCAuODMtLjY3IDEuNS0xLjUgMS41cy0xLjUtLjY3LTEuNS0xLjUuNjctMS41IDEuNS0xLjUgMS41LjY3IDEuNSAxLjV6bTAgMTEuOTdjMCAuODMtLjY3IDEuNS0xLjUgMS41cy0xLjUtLjY3LTEuNS0xLjUuNjctMS41IDEuNS0xLjUgMS41LjY3IDEuNSAxLjV6bTAgMTEuOTdjMCAuODMtLjY3IDEuNS0xLjUgMS41cy0xLjUtLjY3LTEuNS0xLjUuNjctMS41IDEuNS0xLjUgMS41LjY3IDEuNSAxLjV6bTAgMTEuOThjMCAuODMtLjY3IDEuNS0xLjUgMS41cy0xLjUtLjY3LTEuNS0xLjUuNjctMS41IDEuNS0xLjUgMS41LjY3IDEuNSAxLjV6bTAgMTEuOTdjMCAuODMtLjY3IDEuNS0xLjUgMS41cy0xLjUtLjY3LTEuNS0xLjUuNjctMS41IDEuNS0xLjUgMS41LjY3IDEuNSAxLjV6bTAgMTEuOThjMCAuODItLjY3IDEuNS0xLjUgMS41cy0xLjUtLjY4LTEuNS0xLjVjMC0uODMuNjctMS41IDEuNS0xLjVzMS41LjY3IDEuNSAxLjV6bTAgMTEuOTdjMCAuODMtLjY3IDEuNS0xLjUgMS41cy0xLjUtLjY3LTEuNS0xLjUuNjctMS41IDEuNS0xLjUgMS41LjY3IDEuNSAxLjV6bTAgMTEuOTdjMCAuODMtLjY3IDEuNS0xLjUgMS41cy0xLjUtLjY3LTEuNS0xLjUuNjctMS41IDEuNS0xLjUgMS41LjY3IDEuNSAxLjV6bTAgMTEuOThjMCAuODItLjY3IDEuNS0xLjUgMS41cy0xLjUtLjY4LTEuNS0xLjVjMC0uODMuNjctMS41IDEuNS0xLjVzMS41LjY3IDEuNSAxLjV6bTAgMTEuOTdjMCAuODItLjY3IDEuNS0xLjUgMS41cy0xLjUtLjY4LTEuNS0xLjVjMC0uODQuNjctMS41IDEuNS0xLjVzMS41LjY2IDEuNSAxLjV6bTAgMTEuOTZjMCAuODMtLjY3IDEuNS0xLjUgMS41cy0xLjUtLjY3LTEuNS0xLjUuNjctMS41IDEuNS0xLjUgMS41LjY3IDEuNSAxLjV6bTAgMTEuOThjMCAuODMtLjY3IDEuNS0xLjUgMS41cy0xLjUtLjY3LTEuNS0xLjUuNjctMS41IDEuNS0xLjUgMS41LjY3IDEuNSAxLjV6bTAgMTEuOTdjMCAuODQtLjY3IDEuNS0xLjUgMS41cy0xLjUtLjY2LTEuNS0xLjVjMC0uODIuNjctMS41IDEuNS0xLjVzMS41LjY4IDEuNSAxLjV6bTAgMTEuOThjMCAuODMtLjY3IDEuNS0xLjUgMS41cy0xLjUtLjY3LTEuNS0xLjVjMC0uODIuNjctMS41IDEuNS0xLjVzMS41LjY4IDEuNSAxLjV6bTAgMTEuOThjMCAuODMtLjY3IDEuNS0xLjUgMS41cy0xLjUtLjY3LTEuNS0xLjUuNjctMS41IDEuNS0xLjUgMS41LjY3IDEuNSAxLjV6bTAgMTEuOTdjMCAuODMtLjY3IDEuNS0xLjUgMS41cy0xLjUtLjY3LTEuNS0xLjUuNjctMS41IDEuNS0xLjUgMS41LjY3IDEuNSAxLjV6bTAgMTEuOThjMCAuODMtLjY3IDEuNS0xLjUgMS41cy0xLjUtLjY3LTEuNS0xLjVjMC0uODIuNjctMS41IDEuNS0xLjVzMS41LjY4IDEuNSAxLjV6bTAgMTEuOThjMCAuODMtLjY3IDEuNS0xLjUgMS41cy0xLjUtLjY3LTEuNS0xLjUuNjctMS41IDEuNS0xLjUgMS41LjY3IDEuNSAxLjV6bTAgMTEuOTdjMCAuODMtLjY3IDEuNS0xLjUgMS41cy0xLjUtLjY3LTEuNS0xLjUuNjctMS41IDEuNS0xLjUgMS41LjY3IDEuNSAxLjV6bTAgMTEuOThjMCAuODMtLjY3IDEuNS0xLjUgMS41cy0xLjUtLjY3LTEuNS0xLjUuNjctMS41IDEuNS0xLjUgMS41LjY3IDEuNSAxLjV6bTAgMTEuOTdjMCAuODMtLjY3IDEuNS0xLjUgMS41cy0xLjUtLjY3LTEuNS0xLjUuNjctMS41IDEuNS0xLjUgMS41LjY3IDEuNSAxLjV6bS0yLjM3IDExLjQ1YzAgLjgyLS42NyAxLjUtMS41IDEuNXMtMS41LS42OC0xLjUtMS41YzAtLjgzLjY3LTEuNSAxLjUtMS41czEuNS42NyAxLjUgMS41em0tNi40MiA5Ljc2YzAgLjg0LS42NiAxLjUtMS41IDEuNS0uOCAwLTEuNS0uNjYtMS41LTEuNSAwLS44Mi43LTEuNSAxLjUtMS41Ljg0IDAgMS41LjY4IDEuNSAxLjV6bS05Ljc1IDYuNDNjMCAuODMtLjY4IDEuNS0xLjUgMS41LS44MyAwLTEuNS0uNjctMS41LTEuNXMuNjctMS41IDEuNS0xLjVjLjgyIDAgMS41LjY3IDEuNSAxLjV6TTQxMS41IDc0MGMwIC44My0uNjcgMS41LTEuNSAxLjVzLTEuNS0uNjctMS41LTEuNS42Ny0xLjUgMS41LTEuNSAxLjUuNjcgMS41IDEuNXptLTEyIDBjMCAuODMtLjY3IDEuNS0xLjUgMS41cy0xLjUtLjY3LTEuNS0xLjUuNjctMS41IDEuNS0xLjUgMS41LjY3IDEuNSAxLjV6bS0xMiAwYzAgLjgzLS42NyAxLjUtMS41IDEuNXMtMS41LS42Ny0xLjUtMS41LjY3LTEuNSAxLjUtMS41IDEuNS42NyAxLjUgMS41em0tMTIgMGMwIC44My0uNjcgMS41LTEuNSAxLjVzLTEuNS0uNjctMS41LTEuNS42Ny0xLjUgMS41LTEuNSAxLjUuNjcgMS41IDEuNXptLTEyIDBjMCAuODMtLjY3IDEuNS0xLjUgMS41cy0xLjUtLjY3LTEuNS0xLjUuNjctMS41IDEuNS0xLjUgMS41LjY3IDEuNSAxLjV6bS0xMiAwYzAgLjgzLS42NyAxLjUtMS41IDEuNXMtMS41LS42Ny0xLjUtMS41LjY3LTEuNSAxLjUtMS41IDEuNS42NyAxLjUgMS41em0tMTIgMGMwIC44My0uNjcgMS41LTEuNSAxLjVzLTEuNS0uNjctMS41LTEuNS42Ny0xLjUgMS41LTEuNSAxLjUuNjcgMS41IDEuNXptLTEyIDBjMCAuODMtLjY3IDEuNS0xLjUgMS41cy0xLjUtLjY3LTEuNS0xLjUuNjctMS41IDEuNS0xLjUgMS41LjY3IDEuNSAxLjV6bS0xMiAwYzAgLjgzLS42NyAxLjUtMS41IDEuNXMtMS41LS42Ny0xLjUtMS41LjY3LTEuNSAxLjUtMS41IDEuNS42NyAxLjUgMS41em0tMTIgMGMwIC44My0uNjcgMS41LTEuNSAxLjVzLTEuNS0uNjctMS41LTEuNS42Ny0xLjUgMS41LTEuNSAxLjUuNjcgMS41IDEuNXptLTEyIDBjMCAuODMtLjY3IDEuNS0xLjUgMS41cy0xLjUtLjY3LTEuNS0xLjUuNjctMS41IDEuNS0xLjUgMS41LjY3IDEuNSAxLjV6bS0xMiAwYzAgLjgzLS42NyAxLjUtMS41IDEuNXMtMS41LS42Ny0xLjUtMS41LjY3LTEuNSAxLjUtMS41IDEuNS42NyAxLjUgMS41em0tMTIgMGMwIC44My0uNjcgMS41LTEuNSAxLjVzLTEuNS0uNjctMS41LTEuNS42Ny0xLjUgMS41LTEuNSAxLjUuNjcgMS41IDEuNXptLTEyIDBjMCAuODMtLjY3IDEuNS0xLjUgMS41cy0xLjUtLjY3LTEuNS0xLjUuNjctMS41IDEuNS0xLjUgMS41LjY3IDEuNSAxLjV6bS0xMiAwYzAgLjgzLS42NyAxLjUtMS41IDEuNXMtMS41LS42Ny0xLjUtMS41LjY3LTEuNSAxLjUtMS41IDEuNS42NyAxLjUgMS41em0tMTIgMGMwIC44My0uNjcgMS41LTEuNSAxLjVzLTEuNS0uNjctMS41LTEuNS42Ny0xLjUgMS41LTEuNSAxLjUuNjcgMS41IDEuNXptLTEyIDBjMCAuODMtLjY3IDEuNS0xLjUgMS41cy0xLjUtLjY3LTEuNS0xLjUuNjctMS41IDEuNS0xLjUgMS41LjY3IDEuNSAxLjV6bS0xMiAwYzAgLjgzLS42NyAxLjUtMS41IDEuNXMtMS41LS42Ny0xLjUtMS41LjY3LTEuNSAxLjUtMS41IDEuNS42NyAxLjUgMS41em0tMTIgMGMwIC44My0uNjcgMS41LTEuNSAxLjVzLTEuNS0uNjctMS41LTEuNS42Ny0xLjUgMS41LTEuNSAxLjUuNjcgMS41IDEuNXptLTEyIDBjMCAuODMtLjY3IDEuNS0xLjUgMS41cy0xLjUtLjY3LTEuNS0xLjUuNjctMS41IDEuNS0xLjUgMS41LjY3IDEuNSAxLjV6bS0xMiAwYzAgLjgzLS42NyAxLjUtMS41IDEuNXMtMS41LS42Ny0xLjUtMS41LjY3LTEuNSAxLjUtMS41IDEuNS42NyAxLjUgMS41em0tMTIgMGMwIC44My0uNjcgMS41LTEuNSAxLjVzLTEuNS0uNjctMS41LTEuNS42Ny0xLjUgMS41LTEuNSAxLjUuNjcgMS41IDEuNXptLTEyIDBjMCAuODMtLjY3IDEuNS0xLjUgMS41cy0xLjUtLjY3LTEuNS0xLjUuNjctMS41IDEuNS0xLjUgMS41LjY3IDEuNSAxLjV6bS0xMiAwYzAgLjgzLS42NyAxLjUtMS41IDEuNXMtMS41LS42Ny0xLjUtMS41LjY3LTEuNSAxLjUtMS41IDEuNS42NyAxLjUgMS41em0tMTIgMGMwIC44My0uNjcgMS41LTEuNSAxLjVzLTEuNS0uNjctMS41LTEuNS42Ny0xLjUgMS41LTEuNSAxLjUuNjcgMS41IDEuNXptLTEyIDBjMCAuODMtLjY3IDEuNS0xLjUgMS41cy0xLjUtLjY3LTEuNS0xLjUuNjctMS41IDEuNS0xLjUgMS41LjY3IDEuNSAxLjV6bS0xMiAwYzAgLjgzLS42NyAxLjUtMS41IDEuNXMtMS41LS42Ny0xLjUtMS41LjY3LTEuNSAxLjUtMS41IDEuNS42NyAxLjUgMS41em0tMTIgMGMwIC44My0uNjcgMS41LTEuNSAxLjVzLTEuNS0uNjctMS41LTEuNS42Ny0xLjUgMS41LTEuNSAxLjUuNjcgMS41IDEuNXptLTEyIDBjMCAuODMtLjY3IDEuNS0xLjUgMS41cy0xLjUtLjY3LTEuNS0xLjUuNjctMS41IDEuNS0xLjUgMS41LjY3IDEuNSAxLjV6bS0xMiAwYzAgLjgzLS42NyAxLjUtMS41IDEuNXMtMS41LS42Ny0xLjUtMS41LjY3LTEuNSAxLjUtMS41IDEuNS42NyAxLjUgMS41em0tMTIgMGMwIC44My0uNjcgMS41LTEuNSAxLjVzLTEuNS0uNjctMS41LTEuNS42Ny0xLjUgMS41LTEuNSAxLjUuNjcgMS41IDEuNXptLTEyIDBjMCAuODMtLjY3IDEuNS0xLjUgMS41cy0xLjUtLjY3LTEuNS0xLjUuNjctMS41IDEuNS0xLjUgMS41LjY3IDEuNSAxLjV6bS0xMiAwYzAgLjgzLS42NyAxLjUtMS41IDEuNXMtMS41LS42Ny0xLjUtMS41LjY3LTEuNSAxLjUtMS41IDEuNS42NyAxLjUgMS41em0tMTIgMGMwIC44My0uNjcgMS41LTEuNSAxLjVzLTEuNS0uNjctMS41LTEuNS42Ny0xLjUgMS41LTEuNSAxLjUuNjcgMS41IDEuNXptLTEyIDBjMCAuODMtLjY3IDEuNS0xLjUgMS41Uy41IDc0MC44My41IDc0MHMuNjctMS41IDEuNS0xLjUgMS41LjY3IDEuNSAxLjV6bS0xMiAwYzAgLjgzLS42NyAxLjUtMS41IDEuNXMtMS41LS42Ny0xLjUtMS41LjY3LTEuNSAxLjUtMS41IDEuNS42NyAxLjUgMS41em0tMTIgMGMwIC44My0uNjcgMS41LTEuNSAxLjVzLTEuNS0uNjctMS41LTEuNS42Ny0xLjUgMS41LTEuNSAxLjUuNjcgMS41IDEuNXptLTEyIDBjMCAuODMtLjY3IDEuNS0xLjUgMS41cy0xLjUtLjY3LTEuNS0xLjUuNjctMS41IDEuNS0xLjUgMS41LjY3IDEuNSAxLjV6bS0xMiAwYzAgLjgzLS42NyAxLjUtMS41IDEuNXMtMS41LS42Ny0xLjUtMS41LjY3LTEuNSAxLjUtMS41IDEuNS42NyAxLjUgMS41em0tMTIgMGMwIC44My0uNjcgMS41LTEuNSAxLjVzLTEuNS0uNjctMS41LTEuNS42Ny0xLjUgMS41LTEuNSAxLjUuNjcgMS41IDEuNXptLTEyIDBjMCAuODMtLjY3IDEuNS0xLjUgMS41cy0xLjUtLjY3LTEuNS0xLjUuNjctMS41IDEuNS0xLjUgMS41LjY3IDEuNSAxLjV6bS0xMiAwYzAgLjgzLS42NyAxLjUtMS41IDEuNXMtMS41LS42Ny0xLjUtMS41LjY3LTEuNSAxLjUtMS41IDEuNS42NyAxLjUgMS41em0tMTIgMGMwIC44My0uNjcgMS41LTEuNSAxLjVzLTEuNS0uNjctMS41LTEuNS42Ny0xLjUgMS41LTEuNSAxLjUuNjcgMS41IDEuNXptLTEyIDBjMCAuODMtLjY3IDEuNS0xLjUgMS41cy0xLjUtLjY3LTEuNS0xLjUuNjctMS41IDEuNS0xLjUgMS41LjY3IDEuNSAxLjV6bS0xMiAwYzAgLjgzLS42NyAxLjUtMS41IDEuNXMtMS41LS42Ny0xLjUtMS41LjY3LTEuNSAxLjUtMS41IDEuNS42NyAxLjUgMS41em0tMTIgMGMwIC44My0uNjcgMS41LTEuNSAxLjVzLTEuNS0uNjctMS41LTEuNS42Ny0xLjUgMS41LTEuNSAxLjUuNjcgMS41IDEuNXptLTEyIDBjMCAuODMtLjY3IDEuNS0xLjUgMS41cy0xLjUtLjY3LTEuNS0xLjUuNjctMS41IDEuNS0xLjUgMS41LjY3IDEuNSAxLjV6bS0xMiAwYzAgLjgzLS42NyAxLjUtMS41IDEuNXMtMS41LS42Ny0xLjUtMS41LjY3LTEuNSAxLjUtMS41IDEuNS42NyAxLjUgMS41em0tMTIgMGMwIC44My0uNjcgMS41LTEuNSAxLjVzLTEuNS0uNjctMS41LTEuNS42Ny0xLjUgMS41LTEuNSAxLjUuNjcgMS41IDEuNXptLTEyIDBjMCAuODMtLjY3IDEuNS0xLjUgMS41cy0xLjUtLjY3LTEuNS0xLjUuNjctMS41IDEuNS0xLjUgMS41LjY3IDEuNSAxLjV6bS0xMiAwYzAgLjgzLS42NyAxLjUtMS41IDEuNXMtMS41LS42Ny0xLjUtMS41LjY3LTEuNSAxLjUtMS41IDEuNS42NyAxLjUgMS41em0tMTIgMGMwIC44My0uNjcgMS41LTEuNSAxLjVzLTEuNS0uNjctMS41LTEuNS42Ny0xLjUgMS41LTEuNSAxLjUuNjcgMS41IDEuNXptLTEyIDBjMCAuODMtLjY3IDEuNS0xLjUgMS41cy0xLjUtLjY3LTEuNS0xLjUuNjctMS41IDEuNS0xLjUgMS41LjY3IDEuNSAxLjV6bS0xMiAwYzAgLjgzLS42NyAxLjUtMS41IDEuNXMtMS41LS42Ny0xLjUtMS41LjY3LTEuNSAxLjUtMS41IDEuNS42NyAxLjUgMS41em0tMTIgMGMwIC44My0uNjcgMS41LTEuNSAxLjVzLTEuNS0uNjctMS41LTEuNS42Ny0xLjUgMS41LTEuNSAxLjUuNjcgMS41IDEuNXptLTEyIDBjMCAuODMtLjY3IDEuNS0xLjUgMS41cy0xLjUtLjY3LTEuNS0xLjUuNjctMS41IDEuNS0xLjUgMS41LjY3IDEuNSAxLjV6bS0xMiAwYzAgLjgzLS42NyAxLjUtMS41IDEuNXMtMS41LS42Ny0xLjUtMS41LjY3LTEuNSAxLjUtMS41IDEuNS42NyAxLjUgMS41em0tMTIgMGMwIC44My0uNjcgMS41LTEuNSAxLjVzLTEuNS0uNjctMS41LTEuNS42Ny0xLjUgMS41LTEuNSAxLjUuNjcgMS41IDEuNXptLTEyIDBjMCAuODMtLjY3IDEuNS0xLjUgMS41cy0xLjUtLjY3LTEuNS0xLjUuNjctMS41IDEuNS0xLjUgMS41LjY3IDEuNSAxLjV6bS0xMiAwYzAgLjgzLS42NyAxLjUtMS41IDEuNXMtMS41LS42Ny0xLjUtMS41LjY3LTEuNSAxLjUtMS41IDEuNS42NyAxLjUgMS41em0tMTIgMGMwIC44My0uNjcgMS41LTEuNSAxLjVzLTEuNS0uNjctMS41LTEuNS42Ny0xLjUgMS41LTEuNSAxLjUuNjcgMS41IDEuNXptLTEyIDBjMCAuODMtLjY3IDEuNS0xLjUgMS41cy0xLjUtLjY3LTEuNS0xLjUuNjctMS41IDEuNS0xLjUgMS41LjY3IDEuNSAxLjV6bS0xMiAwYzAgLjgzLS42NyAxLjUtMS41IDEuNXMtMS41LS42Ny0xLjUtMS41LjY3LTEuNSAxLjUtMS41IDEuNS42NyAxLjUgMS41em0tMTIgMGMwIC44My0uNjcgMS41LTEuNSAxLjVzLTEuNS0uNjctMS41LTEuNS42Ny0xLjUgMS41LTEuNSAxLjUuNjcgMS41IDEuNXptLTEyIDBjMCAuODMtLjY3IDEuNS0xLjUgMS41cy0xLjUtLjY3LTEuNS0xLjUuNjctMS41IDEuNS0xLjUgMS41LjY3IDEuNSAxLjV6bS0xMiAwYzAgLjgzLS42NyAxLjUtMS41IDEuNXMtMS41LS42Ny0xLjUtMS41LjY3LTEuNSAxLjUtMS41IDEuNS42NyAxLjUgMS41em0tMTIgMGMwIC44My0uNjcgMS41LTEuNSAxLjVzLTEuNS0uNjctMS41LTEuNS42Ny0xLjUgMS41LTEuNSAxLjUuNjcgMS41IDEuNXptLTEyIDBjMCAuODMtLjY3IDEuNS0xLjUgMS41cy0xLjUtLjY3LTEuNS0xLjUuNjctMS41IDEuNS0xLjUgMS41LjY3IDEuNSAxLjV6bS0xMiAwYzAgLjgzLS42NyAxLjUtMS41IDEuNXMtMS41LS42Ny0xLjUtMS41LjY3LTEuNSAxLjUtMS41IDEuNS42NyAxLjUgMS41em0tMTIgMGMwIC44My0uNjcgMS41LTEuNSAxLjVzLTEuNS0uNjctMS41LTEuNS42Ny0xLjUgMS41LTEuNSAxLjUuNjcgMS41IDEuNXptLTEyIDBjMCAuODMtLjY3IDEuNS0xLjUgMS41cy0xLjUtLjY3LTEuNS0xLjUuNjctMS41IDEuNS0xLjUgMS41LjY3IDEuNSAxLjV6bS0xMiAwYzAgLjgzLS42NyAxLjUtMS41IDEuNXMtMS41LS42Ny0xLjUtMS41LjY3LTEuNSAxLjUtMS41IDEuNS42NyAxLjUgMS41em0tMTIgMGMwIC44My0uNjcgMS41LTEuNSAxLjVzLTEuNS0uNjctMS41LTEuNS42Ny0xLjUgMS41LTEuNSAxLjUuNjcgMS41IDEuNXptLTEyIDBjMCAuODMtLjY3IDEuNS0xLjUgMS41cy0xLjUtLjY3LTEuNS0xLjUuNjctMS41IDEuNS0xLjUgMS41LjY3IDEuNSAxLjV6bS0xMiAwYzAgLjgzLS42NyAxLjUtMS41IDEuNXMtMS41LS42Ny0xLjUtMS41LjY3LTEuNSAxLjUtMS41IDEuNS42NyAxLjUgMS41em0tMTIgMGMwIC44My0uNjcgMS41LTEuNSAxLjVzLTEuNS0uNjctMS41LTEuNS42Ny0xLjUgMS41LTEuNSAxLjUuNjcgMS41IDEuNXptLTEyIDBjMCAuODMtLjY3IDEuNS0xLjUgMS41cy0xLjUtLjY3LTEuNS0xLjUuNjctMS41IDEuNS0xLjUgMS41LjY3IDEuNSAxLjV6bS0xMiAwYzAgLjgzLS42NyAxLjUtMS41IDEuNXMtMS41LS42Ny0xLjUtMS41LjY3LTEuNSAxLjUtMS41IDEuNS42NyAxLjUgMS41em0tMTIgMGMwIC44My0uNjcgMS41LTEuNSAxLjVzLTEuNS0uNjctMS41LTEuNS42Ny0xLjUgMS41LTEuNSAxLjUuNjcgMS41IDEuNXptLTEyIDBjMCAuODMtLjY3IDEuNS0xLjUgMS41cy0xLjUtLjY3LTEuNS0xLjUuNjctMS41IDEuNS0xLjUgMS41LjY3IDEuNSAxLjV6bS0xMiAwYzAgLjgzLS42NyAxLjUtMS41IDEuNXMtMS41LS42Ny0xLjUtMS41LjY3LTEuNSAxLjUtMS41IDEuNS42NyAxLjUgMS41em0tMTIgMGMwIC44My0uNjcgMS41LTEuNSAxLjVzLTEuNS0uNjctMS41LTEuNS42Ny0xLjUgMS41LTEuNSAxLjUuNjcgMS41IDEuNXptLTEyIDBjMCAuODMtLjY3IDEuNS0xLjUgMS41cy0xLjUtLjY3LTEuNS0xLjUuNjctMS41IDEuNS0xLjUgMS41LjY3IDEuNSAxLjV6bS0xMiAwYzAgLjgzLS42NyAxLjUtMS41IDEuNXMtMS41LS42Ny0xLjUtMS41LjY3LTEuNSAxLjUtMS41IDEuNS42NyAxLjUgMS41em0tMTIgMGMwIC44My0uNjcgMS41LTEuNSAxLjVzLTEuNS0uNjctMS41LTEuNS42Ny0xLjUgMS41LTEuNSAxLjUuNjcgMS41IDEuNXptLTEyIDBjMCAuODMtLjY3IDEuNS0xLjUgMS41cy0xLjUtLjY3LTEuNS0xLjUuNjctMS41IDEuNS0xLjUgMS41LjY3IDEuNSAxLjV6bS0xMiAwYzAgLjgzLS42NyAxLjUtMS41IDEuNXMtMS41LS42Ny0xLjUtMS41LjY3LTEuNSAxLjUtMS41IDEuNS42NyAxLjUgMS41em0tMTIgMGMwIC44My0uNjcgMS41LTEuNSAxLjVzLTEuNS0uNjctMS41LTEuNS42Ny0xLjUgMS41LTEuNSAxLjUuNjcgMS41IDEuNXptLTEyIDBjMCAuODMtLjY3IDEuNS0xLjUgMS41cy0xLjUtLjY3LTEuNS0xLjUuNjctMS41IDEuNS0xLjUgMS41LjY3IDEuNSAxLjV6bS0xMiAwYzAgLjgzLS42NyAxLjUtMS41IDEuNXMtMS41LS42Ny0xLjUtMS41LjY3LTEuNSAxLjUtMS41IDEuNS42NyAxLjUgMS41em0tMTIgMGMwIC44My0uNjcgMS41LTEuNSAxLjVzLTEuNS0uNjctMS41LTEuNS42Ny0xLjUgMS41LTEuNSAxLjUuNjcgMS41IDEuNXptLTEyIDBjMCAuODMtLjY3IDEuNS0xLjUgMS41cy0xLjUtLjY3LTEuNS0xLjUuNjctMS41IDEuNS0xLjUgMS41LjY3IDEuNSAxLjV6bS0xMiAwYzAgLjgzLS42NyAxLjUtMS41IDEuNXMtMS41LS42Ny0xLjUtMS41LjY3LTEuNSAxLjUtMS41IDEuNS42NyAxLjUgMS41em0tMTIgMGMwIC44My0uNjcgMS41LTEuNSAxLjVzLTEuNS0uNjctMS41LTEuNS42Ny0xLjUgMS41LTEuNSAxLjUuNjcgMS41IDEuNXptLTEyIDBjMCAuODMtLjY3IDEuNS0xLjUgMS41cy0xLjUtLjY3LTEuNS0xLjUuNjctMS41IDEuNS0xLjUgMS41LjY3IDEuNSAxLjV6bS0xMiAwYzAgLjgzLS42NyAxLjUtMS41IDEuNXMtMS41LS42Ny0xLjUtMS41LjY3LTEuNSAxLjUtMS41IDEuNS42NyAxLjUgMS41em0tMTIgMGMwIC44My0uNjcgMS41LTEuNSAxLjVzLTEuNS0uNjctMS41LTEuNS42Ny0xLjUgMS41LTEuNSAxLjUuNjcgMS41IDEuNXptLTEyIDBjMCAuODMtLjY3IDEuNS0xLjUgMS41cy0xLjUtLjY3LTEuNS0xLjUuNjctMS41IDEuNS0xLjUgMS41LjY3IDEuNSAxLjV6bS0xMiAwYzAgLjgzLS42NyAxLjUtMS41IDEuNXMtMS41LS42Ny0xLjUtMS41LjY3LTEuNSAxLjUtMS41IDEuNS42NyAxLjUgMS41em0tMTIgMGMwIC44My0uNjcgMS41LTEuNSAxLjVzLTEuNS0uNjctMS41LTEuNS42Ny0xLjUgMS41LTEuNSAxLjUuNjcgMS41IDEuNXptLTEyIDBjMCAuODMtLjY3IDEuNS0xLjUgMS41cy0xLjUtLjY3LTEuNS0xLjUuNjctMS41IDEuNS0xLjUgMS41LjY3IDEuNSAxLjV6bS0xMiAwYzAgLjgzLS42NyAxLjUtMS41IDEuNXMtMS41LS42Ny0xLjUtMS41LjY3LTEuNSAxLjUtMS41IDEuNS42NyAxLjUgMS41em0tMTIgMGMwIC44My0uNjcgMS41LTEuNSAxLjVzLTEuNS0uNjctMS41LTEuNS42Ny0xLjUgMS41LTEuNSAxLjUuNjcgMS41IDEuNXptLTEyIDBjMCAuODMtLjY3IDEuNS0xLjUgMS41cy0xLjUtLjY3LTEuNS0xLjUuNjctMS41IDEuNS0xLjUgMS41LjY3IDEuNSAxLjV6bS0xMiAwYzAgLjgzLS42NyAxLjUtMS41IDEuNXMtMS41LS42Ny0xLjUtMS41LjY3LTEuNSAxLjUtMS41IDEuNS42NyAxLjUgMS41em0tMTIgMGMwIC44My0uNjcgMS41LTEuNSAxLjVzLTEuNS0uNjctMS41LTEuNS42Ny0xLjUgMS41LTEuNSAxLjUuNjcgMS41IDEuNXptLTEyIDBjMCAuODMtLjY3IDEuNS0xLjUgMS41cy0xLjUtLjY3LTEuNS0xLjUuNjctMS41IDEuNS0xLjUgMS41LjY3IDEuNSAxLjV6bS0xMiAwYzAgLjgzLS42NyAxLjUtMS41IDEuNXMtMS41LS42Ny0xLjUtMS41LjY3LTEuNSAxLjUtMS41IDEuNS42NyAxLjUgMS41em0tMTIgMGMwIC44My0uNjcgMS41LTEuNSAxLjVzLTEuNS0uNjctMS41LTEuNS42Ny0xLjUgMS41LTEuNSAxLjUuNjcgMS41IDEuNXptLTEyIDBjMCAuODMtLjY3IDEuNS0xLjUgMS41cy0xLjUtLjY3LTEuNS0xLjUuNjctMS41IDEuNS0xLjUgMS41LjY3IDEuNSAxLjV6bS0xMiAwYzAgLjgzLS42NyAxLjUtMS41IDEuNXMtMS41LS42Ny0xLjUtMS41LjY3LTEuNSAxLjUtMS41IDEuNS42NyAxLjUgMS41em0tMTIgMGMwIC44My0uNjcgMS41LTEuNSAxLjVzLTEuNS0uNjctMS41LTEuNS42Ny0xLjUgMS41LTEuNSAxLjUuNjcgMS41IDEuNXptLTEyIDBjMCAuODMtLjY3IDEuNS0xLjUgMS41cy0xLjUtLjY3LTEuNS0xLjUuNjctMS41IDEuNS0xLjUgMS41LjY3IDEuNSAxLjV6bS0xMiAwYzAgLjgzLS42NyAxLjUtMS41IDEuNXMtMS41LS42Ny0xLjUtMS41LjY3LTEuNSAxLjUtMS41IDEuNS42NyAxLjUgMS41em0tMTIgMGMwIC44My0uNjcgMS41LTEuNSAxLjVzLTEuNS0uNjctMS41LTEuNS42Ny0xLjUgMS41LTEuNSAxLjUuNjcgMS41IDEuNXptLTEyIDBjMCAuODMtLjY3IDEuNS0xLjUgMS41cy0xLjUtLjY3LTEuNS0xLjUuNjctMS41IDEuNS0xLjUgMS41LjY3IDEuNSAxLjV6bS0xMiAwYzAgLjgzLS42NyAxLjUtMS41IDEuNXMtMS41LS42Ny0xLjUtMS41LjY3LTEuNSAxLjUtMS41IDEuNS42NyAxLjUgMS41em0tMTIgMGMwIC44My0uNjcgMS41LTEuNSAxLjVzLTEuNS0uNjctMS41LTEuNS42Ny0xLjUgMS41LTEuNSAxLjUuNjcgMS41IDEuNXptLTEyIDBjMCAuODMtLjY3IDEuNS0xLjUgMS41cy0xLjUtLjY3LTEuNS0xLjUuNjctMS41IDEuNS0xLjUgMS41LjY3IDEuNSAxLjV6bS0xMiAwYzAgLjgzLS42NyAxLjUtMS41IDEuNXMtMS41LS42Ny0xLjUtMS41LjY3LTEuNSAxLjUtMS41IDEuNS42NyAxLjUgMS41em0tMTIgMGMwIC44My0uNjcgMS41LTEuNSAxLjVzLTEuNS0uNjctMS41LTEuNS42Ny0xLjUgMS41LTEuNSAxLjUuNjcgMS41IDEuNXptLTEyIDBjMCAuODMtLjY3IDEuNS0xLjUgMS41cy0xLjUtLjY3LTEuNS0xLjUuNjctMS41IDEuNS0xLjUgMS41LjY3IDEuNSAxLjV6bS0xMiAwYzAgLjgzLS42NyAxLjUtMS41IDEuNXMtMS41LS42Ny0xLjUtMS41LjY3LTEuNSAxLjUtMS41IDEuNS42NyAxLjUgMS41em0tMTIgMGMwIC44My0uNjcgMS41LTEuNSAxLjVzLTEuNS0uNjctMS41LTEuNS42Ny0xLjUgMS41LTEuNSAxLjUuNjcgMS41IDEuNXptLTEyIDBjMCAuODMtLjY3IDEuNS0xLjUgMS41cy0xLjUtLjY3LTEuNS0xLjUuNjctMS41IDEuNS0xLjUgMS41LjY3IDEuNSAxLjV6bS0xMiAwYzAgLjgzLS42NyAxLjUtMS41IDEuNXMtMS41LS42Ny0xLjUtMS41LjY3LTEuNSAxLjUtMS41IDEuNS42NyAxLjUgMS41em0tMTIgMGMwIC44My0uNjcgMS41LTEuNSAxLjVzLTEuNS0uNjctMS41LTEuNS42Ny0xLjUgMS41LTEuNSAxLjUuNjcgMS41IDEuNXptLTEyIDBjMCAuODMtLjY3IDEuNS0xLjUgMS41cy0xLjUtLjY3LTEuNS0xLjUuNjctMS41IDEuNS0xLjUgMS41LjY3IDEuNSAxLjV6bS0xMiAwYzAgLjgzLS42NyAxLjUtMS41IDEuNXMtMS41LS42Ny0xLjUtMS41LjY3LTEuNSAxLjUtMS41IDEuNS42NyAxLjUgMS41em0tMTIgMGMwIC44My0uNjcgMS41LTEuNSAxLjVzLTEuNS0uNjctMS41LTEuNS42Ny0xLjUgMS41LTEuNSAxLjUuNjcgMS41IDEuNXptLTEyIDBjMCAuODMtLjY3IDEuNS0xLjUgMS41cy0xLjUtLjY3LTEuNS0xLjUuNjctMS41IDEuNS0xLjUgMS41LjY3IDEuNSAxLjV6bS0xMiAwYzAgLjgzLS42NyAxLjUtMS41IDEuNXMtMS41LS42Ny0xLjUtMS41LjY3LTEuNSAxLjUtMS41IDEuNS42NyAxLjUgMS41em0tMTIgMGMwIC44My0uNjcgMS41LTEuNSAxLjVzLTEuNS0uNjctMS41LTEuNS42Ny0xLjUgMS41LTEuNSAxLjUuNjcgMS41IDEuNXptLTEyIDBjMCAuODMtLjY3IDEuNS0xLjUgMS41cy0xLjUtLjY3LTEuNS0xLjUuNjctMS41IDEuNS0xLjUgMS41LjY3IDEuNSAxLjV6bS0xMiAwYzAgLjgzLS42NyAxLjUtMS41IDEuNXMtMS41LS42Ny0xLjUtMS41LjY3LTEuNSAxLjUtMS41IDEuNS42NyAxLjUgMS41em0tMTIgMGMwIC44My0uNjcgMS41LTEuNSAxLjVzLTEuNS0uNjctMS41LTEuNS42Ny0xLjUgMS41LTEuNSAxLjUuNjcgMS41IDEuNXptLTEyIDBjMCAuODMtLjY3IDEuNS0xLjUgMS41cy0xLjUtLjY3LTEuNS0xLjUuNjctMS41IDEuNS0xLjUgMS41LjY3IDEuNSAxLjV6bS0xMiAwYzAgLjgzLS42NyAxLjUtMS41IDEuNXMtMS41LS42Ny0xLjUtMS41LjY3LTEuNSAxLjUtMS41IDEuNS42NyAxLjUgMS41em0tMTIgMGMwIC44My0uNjcgMS41LTEuNSAxLjVzLTEuNS0uNjctMS41LTEuNS42Ny0xLjUgMS41LTEuNSAxLjUuNjcgMS41IDEuNXptLTEyIDBjMCAuODMtLjY3IDEuNS0xLjUgMS41cy0xLjUtLjY3LTEuNS0xLjUuNjctMS41IDEuNS0xLjUgMS41LjY3IDEuNSAxLjV6bS0xMiAwYzAgLjgzLS42NyAxLjUtMS41IDEuNXMtMS41LS42Ny0xLjUtMS41LjY3LTEuNSAxLjUtMS41IDEuNS42NyAxLjUgMS41em0tMTIgMGMwIC44My0uNjcgMS41LTEuNSAxLjVzLTEuNS0uNjctMS41LTEuNS42Ny0xLjUgMS41LTEuNSAxLjUuNjcgMS41IDEuNXptLTEyIDBjMCAuODMtLjY3IDEuNS0xLjUgMS41cy0xLjUtLjY3LTEuNS0xLjUuNjctMS41IDEuNS0xLjUgMS41LjY3IDEuNSAxLjV6bS0xMiAwYzAgLjgzLS42NyAxLjUtMS41IDEuNXMtMS41LS42Ny0xLjUtMS41LjY3LTEuNSAxLjUtMS41IDEuNS42NyAxLjUgMS41em0tMTIgMGMwIC44My0uNjcgMS41LTEuNSAxLjVzLTEuNS0uNjctMS41LTEuNS42Ny0xLjUgMS41LTEuNSAxLjUuNjcgMS41IDEuNXptLTEyIDBjMCAuODMtLjY3IDEuNS0xLjUgMS41cy0xLjUtLjY3LTEuNS0xLjUuNjctMS41IDEuNS0xLjUgMS41LjY3IDEuNSAxLjV6bS0xMiAwYzAgLjgzLS42NyAxLjUtMS41IDEuNXMtMS41LS42Ny0xLjUtMS41LjY3LTEuNSAxLjUtMS41IDEuNS42NyAxLjUgMS41em0tMTIgMGMwIC44My0uNjcgMS41LTEuNSAxLjVzLTEuNS0uNjctMS41LTEuNS42Ny0xLjUgMS41LTEuNSAxLjUuNjcgMS41IDEuNXptLTEyIDBjMCAuODMtLjY3IDEuNS0xLjUgMS41cy0xLjUtLjY3LTEuNS0xLjUuNjctMS41IDEuNS0xLjUgMS41LjY3IDEuNSAxLjV6bS0xMiAwYzAgLjgzLS42NyAxLjUtMS41IDEuNXMtMS41LS42Ny0xLjUtMS41LjY3LTEuNSAxLjUtMS41IDEuNS42NyAxLjUgMS41em0tMTIgMGMwIC44My0uNjcgMS41LTEuNSAxLjVzLTEuNS0uNjctMS41LTEuNS42Ny0xLjUgMS41LTEuNSAxLjUuNjcgMS41IDEuNXptLTEyIDBjMCAuODMtLjY3IDEuNS0xLjUgMS41cy0xLjUtLjY3LTEuNS0xLjUuNjctMS41IDEuNS0xLjUgMS41LjY3IDEuNSAxLjV6bS0xMiAwYzAgLjgzLS42NyAxLjUtMS41IDEuNXMtMS41LS42Ny0xLjUtMS41LjY3LTEuNSAxLjUtMS41IDEuNS42NyAxLjUgMS41em0tMTIgMGMwIC44My0uNjcgMS41LTEuNSAxLjVzLTEuNS0uNjctMS41LTEuNS42Ny0xLjUgMS41LTEuNSAxLjUuNjcgMS41IDEuNXptLTEyIDBjMCAuODMtLjY3IDEuNS0xLjUgMS41cy0xLjUtLjY3LTEuNS0xLjUuNjctMS41IDEuNS0xLjUgMS41LjY3IDEuNSAxLjV6bS0xMiAwYzAgLjgzLS42NyAxLjUtMS41IDEuNXMtMS41LS42Ny0xLjUtMS41LjY3LTEuNSAxLjUtMS41IDEuNS42NyAxLjUgMS41em0tMTIgMGMwIC44My0uNjcgMS41LTEuNSAxLjVzLTEuNS0uNjctMS41LTEuNS42Ny0xLjUgMS41LTEuNSAxLjUuNjcgMS41IDEuNXptLTEyIDBjMCAuODMtLjY3IDEuNS0xLjUgMS41cy0xLjUtLjY3LTEuNS0xLjUuNjctMS41IDEuNS0xLjUgMS41LjY3IDEuNSAxLjV6bS0xMiAwYzAgLjgzLS42NyAxLjUtMS41IDEuNXMtMS41LS42Ny0xLjUtMS41LjY3LTEuNSAxLjUtMS41IDEuNS42NyAxLjUgMS41em0tMTIgMGMwIC44My0uNjcgMS41LTEuNSAxLjVzLTEuNS0uNjctMS41LTEuNS42Ny0xLjUgMS41LTEuNSAxLjUuNjcgMS41IDEuNXptLTEyIDBjMCAuODMtLjY3IDEuNS0xLjUgMS41cy0xLjUtLjY3LTEuNS0xLjUuNjctMS41IDEuNS0xLjUgMS41LjY3IDEuNSAxLjV6bS0xMiAwYzAgLjgzLS42NyAxLjUtMS41IDEuNXMtMS41LS42Ny0xLjUtMS41LjY3LTEuNSAxLjUtMS41IDEuNS42NyAxLjUgMS41em0tMTIgMGMwIC44My0uNjcgMS41LTEuNSAxLjVzLTEuNS0uNjctMS41LTEuNS42Ny0xLjUgMS41LTEuNSAxLjUuNjcgMS41IDEuNXptLTEyIDBjMCAuODMtLjY3IDEuNS0xLjUgMS41cy0xLjUtLjY3LTEuNS0xLjUuNjctMS41IDEuNS0xLjUgMS41LjY3IDEuNSAxLjV6bS0xMiAwYzAgLjgzLS42NyAxLjUtMS41IDEuNXMtMS41LS42Ny0xLjUtMS41LjY3LTEuNSAxLjUtMS41IDEuNS42NyAxLjUgMS41em0tMTIgMGMwIC44My0uNjcgMS41LTEuNSAxLjVzLTEuNS0uNjctMS41LTEuNS42Ny0xLjUgMS41LTEuNSAxLjUuNjcgMS41IDEuNXptLTEyIDBjMCAuODMtLjY3IDEuNS0xLjUgMS41cy0xLjUtLjY3LTEuNS0xLjUuNjctMS41IDEuNS0xLjUgMS41LjY3IDEuNSAxLjV6bS0xMiAwYzAgLjgzLS42NyAxLjUtMS41IDEuNXMtMS41LS42Ny0xLjUtMS41LjY3LTEuNSAxLjUtMS41IDEuNS42NyAxLjUgMS41em0tMTIgMGMwIC44My0uNjcgMS41LTEuNSAxLjVzLTEuNS0uNjctMS41LTEuNS42Ny0xLjUgMS41LTEuNSAxLjUuNjcgMS41IDEuNXptLTEyIDBjMCAuODMtLjY3IDEuNS0xLjUgMS41cy0xLjUtLjY3LTEuNS0xLjUuNjctMS41IDEuNS0xLjUgMS41LjY3IDEuNSAxLjV6bS0xMiAwYzAgLjgzLS42NyAxLjUtMS41IDEuNXMtMS41LS42Ny0xLjUtMS41LjY3LTEuNSAxLjUtMS41IDEuNS42NyAxLjUgMS41em0tMTIgMGMwIC44My0uNjcgMS41LTEuNSAxLjVzLTEuNS0uNjctMS41LTEuNS42Ny0xLjUgMS41LTEuNSAxLjUuNjcgMS41IDEuNXptLTEyIDBjMCAuODMtLjY3IDEuNS0xLjUgMS41cy0xLjUtLjY3LTEuNS0xLjUuNjctMS41IDEuNS0xLjUgMS41LjY3IDEuNSAxLjV6bS0xMiAwYzAgLjgzLS42NyAxLjUtMS41IDEuNXMtMS41LS42Ny0xLjUtMS41LjY3LTEuNSAxLjUtMS41IDEuNS42NyAxLjUgMS41em0tMTIgMGMwIC44My0uNjcgMS41LTEuNSAxLjVzLTEuNS0uNjctMS41LTEuNS42Ny0xLjUgMS41LTEuNSAxLjUuNjcgMS41IDEuNXptLTEyIDBjMCAuODMtLjY3IDEuNS0xLjUgMS41cy0xLjUtLjY3LTEuNS0xLjUuNjctMS41IDEuNS0xLjUgMS41LjY3IDEuNSAxLjV6bS0xMiAwYzAgLjgzLS42NyAxLjUtMS41IDEuNXMtMS41LS42Ny0xLjUtMS41LjY3LTEuNSAxLjUtMS41IDEuNS42NyAxLjUgMS41em0tMTIgMGMwIC44My0uNjcgMS41LTEuNSAxLjVzLTEuNS0uNjctMS41LTEuNS42Ny0xLjUgMS41LTEuNSAxLjUuNjcgMS41IDEuNXptLTEyIDBjMCAuODMtLjY3IDEuNS0xLjUgMS41cy0xLjUtLjY3LTEuNS0xLjUuNjctMS41IDEuNS0xLjUgMS41LjY3IDEuNSAxLjV6bS0xMiAwYzAgLjgzLS42NyAxLjUtMS41IDEuNXMtMS41LS42Ny0xLjUtMS41LjY3LTEuNSAxLjUtMS41IDEuNS42NyAxLjUgMS41em0tMTIgMGMwIC44My0uNjcgMS41LTEuNSAxLjVzLTEuNS0uNjctMS41LTEuNS42Ny0xLjUgMS41LTEuNSAxLjUuNjcgMS41IDEuNXptLTEyIDBjMCAuODMtLjY3IDEuNS0xLjUgMS41cy0xLjUtLjY3LTEuNS0xLjUuNjctMS41IDEuNS0xLjUgMS41LjY3IDEuNSAxLjV6bS0xMiAwYzAgLjgzLS42NyAxLjUtMS41IDEuNXMtMS41LS42Ny0xLjUtMS41LjY3LTEuNSAxLjUtMS41IDEuNS42NyAxLjUgMS41em0tMTIgMGMwIC44My0uNjcgMS41LTEuNSAxLjVzLTEuNS0uNjctMS41LTEuNS42Ny0xLjUgMS41LTEuNSAxLjUuNjcgMS41IDEuNXptLTEyIDBjMCAuODMtLjY3IDEuNS0xLjUgMS41cy0xLjUtLjY3LTEuNS0xLjUuNjctMS41IDEuNS0xLjUgMS41LjY3IDEuNSAxLjV6bS0xMiAwYzAgLjgzLS42NyAxLjUtMS41IDEuNXMtMS41LS42Ny0xLjUtMS41LjY3LTEuNSAxLjUtMS41IDEuNS42NyAxLjUgMS41em0tMTIgMGMwIC44My0uNjcgMS41LTEuNSAxLjVzLTEuNS0uNjctMS41LTEuNS42Ny0xLjUgMS41LTEuNSAxLjUuNjcgMS41IDEuNXptLTEyIDBjMCAuODMtLjY3IDEuNS0xLjUgMS41cy0xLjUtLjY3LTEuNS0xLjUuNjctMS41IDEuNS0xLjUgMS41LjY3IDEuNSAxLjV6bS0xMiAwYzAgLjgzLS42NyAxLjUtMS41IDEuNXMtMS41LS42Ny0xLjUtMS41LjY3LTEuNSAxLjUtMS41IDEuNS42NyAxLjUgMS41em0tMTIgMGMwIC44My0uNjcgMS41LTEuNSAxLjVzLTEuNS0uNjctMS41LTEuNS42Ny0xLjUgMS41LTEuNSAxLjUuNjcgMS41IDEuNXptLTEyIDBjMCAuODMtLjY3IDEuNS0xLjUgMS41cy0xLjUtLjY3LTEuNS0xLjUuNjctMS41IDEuNS0xLjUgMS41LjY3IDEuNSAxLjV6bS0xMiAwYzAgLjgzLS42NyAxLjUtMS41IDEuNXMtMS41LS42Ny0xLjUtMS41LjY3LTEuNSAxLjUtMS41IDEuNS42NyAxLjUgMS41em0tMTIgMGMwIC44My0uNjcgMS41LTEuNSAxLjVzLTEuNS0uNjctMS41LTEuNS42Ny0xLjUgMS41LTEuNSAxLjUuNjcgMS41IDEuNXptLTEyIDBjMCAuODMtLjY3IDEuNS0xLjUgMS41cy0xLjUtLjY3LTEuNS0xLjUuNjctMS41IDEuNS0xLjUgMS41LjY3IDEuNSAxLjV6bS0xMiAwYzAgLjgzLS42NyAxLjUtMS41IDEuNXMtMS41LS42Ny0xLjUtMS41LjY3LTEuNSAxLjUtMS41IDEuNS42NyAxLjUgMS41em0tMTIgMGMwIC44My0uNjcgMS41LTEuNSAxLjVzLTEuNS0uNjctMS41LTEuNS42Ny0xLjUgMS41LTEuNSAxLjUuNjcgMS41IDEuNXptLTEyIDBjMCAuODMtLjY3IDEuNS0xLjUgMS41cy0xLjUtLjY3LTEuNS0xLjUuNjctMS41IDEuNS0xLjUgMS41LjY3IDEuNSAxLjV6bS0xMiAwYzAgLjgzLS42NyAxLjUtMS41IDEuNXMtMS41LS42Ny0xLjUtMS41LjY3LTEuNSAxLjUtMS41IDEuNS42NyAxLjUgMS41em0tMTIgMGMwIC44My0uNjcgMS41LTEuNSAxLjVzLTEuNS0uNjctMS41LTEuNS42Ny0xLjUgMS41LTEuNSAxLjUuNjcgMS41IDEuNXptLTEyIDBjMCAuODMtLjY3IDEuNS0xLjUgMS41cy0xLjUtLjY3LTEuNS0xLjUuNjctMS41IDEuNS0xLjUgMS41LjY3IDEuNSAxLjV6bS0xMiAwYzAgLjgzLS42NyAxLjUtMS41IDEuNXMtMS41LS42Ny0xLjUtMS41LjY3LTEuNSAxLjUtMS41IDEuNS42NyAxLjUgMS41em0tMTIgMGMwIC44My0uNjcgMS41LTEuNSAxLjVzLTEuNS0uNjctMS41LTEuNS42Ny0xLjUgMS41LTEuNSAxLjUuNjcgMS41IDEuNXptLTEyIDBjMCAuODMtLjY3IDEuNS0xLjUgMS41cy0xLjUtLjY3LTEuNS0xLjUuNjctMS41IDEuNS0xLjUgMS41LjY3IDEuNSAxLjV6bS0xMiAwYzAgLjgzLS42NyAxLjUtMS41IDEuNXMtMS41LS42Ny0xLjUtMS41LjY3LTEuNSAxLjUtMS41IDEuNS42NyAxLjUgMS41em0tMTIgMGMwIC44My0uNjcgMS41LTEuNSAxLjVzLTEuNS0uNjctMS41LTEuNS42Ny0xLjUgMS41LTEuNSAxLjUuNjcgMS41IDEuNXptLTEyIDBjMCAuODMtLjY3IDEuNS0xLjUgMS41cy0xLjUtLjY3LTEuNS0xLjUuNjctMS41IDEuNS0xLjUgMS41LjY3IDEuNSAxLjV6bS0xMiAwYzAgLjgzLS42NyAxLjUtMS41IDEuNXMtMS41LS42Ny0xLjUtMS41LjY3LTEuNSAxLjUtMS41IDEuNS42NyAxLjUgMS41em0tMTIgMGMwIC44My0uNjcgMS41LTEuNSAxLjVzLTEuNS0uNjctMS41LTEuNS42Ny0xLjUgMS41LTEuNSAxLjUuNjcgMS41IDEuNXptLTEyIDBjMCAuODMtLjY3IDEuNS0xLjUgMS41cy0xLjUtLjY3LTEuNS0xLjUuNjctMS41IDEuNS0xLjUgMS41LjY3IDEuNSAxLjV6bS0xMiAwYzAgLjgzLS42NyAxLjUtMS41IDEuNXMtMS41LS42Ny0xLjUtMS41LjY3LTEuNSAxLjUtMS41IDEuNS42NyAxLjUgMS41em0tMTIgMGMwIC44My0uNjcgMS41LTEuNSAxLjVzLTEuNS0uNjctMS41LTEuNS42Ny0xLjUgMS41LTEuNSAxLjUuNjcgMS41IDEuNXptLTEyIDBjMCAuODMtLjY3IDEuNS0xLjUgMS41cy0xLjUtLjY3LTEuNS0xLjUuNjctMS41IDEuNS0xLjUgMS41LjY3IDEuNSAxLjV6bS0xMiAwYzAgLjgzLS42NyAxLjUtMS41IDEuNXMtMS41LS42Ny0xLjUtMS41LjY3LTEuNSAxLjUtMS41IDEuNS42NyAxLjUgMS41em0tMTIgMGMwIC44My0uNjcgMS41LTEuNSAxLjVzLTEuNS0uNjctMS41LTEuNS42Ny0xLjUgMS41LTEuNSAxLjUuNjcgMS41IDEuNXptLTEyIDBjMCAuODMtLjY3IDEuNS0xLjUgMS41cy0xLjUtLjY3LTEuNS0xLjUuNjctMS41IDEuNS0xLjUgMS41LjY3IDEuNSAxLjV6bS0xMiAwYzAgLjgzLS42NyAxLjUtMS41IDEuNXMtMS41LS42Ny0xLjUtMS41LjY3LTEuNSAxLjUtMS41IDEuNS42NyAxLjUgMS41em0tMTIgMGMwIC44My0uNjcgMS41LTEuNSAxLjVzLTEuNS0uNjctMS41LTEuNS42Ny0xLjUgMS41LTEuNSAxLjUuNjcgMS41IDEuNXptLTEyIDBjMCAuODMtLjY3IDEuNS0xLjUgMS41cy0xLjUtLjY3LTEuNS0xLjUuNjctMS41IDEuNS0xLjUgMS41LjY3IDEuNSAxLjV6bS0xMiAwYzAgLjgzLS42NyAxLjUtMS41IDEuNXMtMS41LS42Ny0xLjUtMS41LjY3LTEuNSAxLjUtMS41IDEuNS42NyAxLjUgMS41em0tMTIgMGMwIC44My0uNjcgMS41LTEuNSAxLjVzLTEuNS0uNjctMS41LTEuNS42Ny0xLjUgMS41LTEuNSAxLjUuNjcgMS41IDEuNXptLTEyIDBjMCAuODMtLjY3IDEuNS0xLjUgMS41cy0xLjUtLjY3LTEuNS0xLjUuNjctMS41IDEuNS0xLjUgMS41LjY3IDEuNSAxLjV6bS0xMiAwYzAgLjgzLS42NyAxLjUtMS41IDEuNXMtMS41LS42Ny0xLjUtMS41LjY3LTEuNSAxLjUtMS41IDEuNS42NyAxLjUgMS41em0tMTIgMGMwIC44My0uNjcgMS41LTEuNSAxLjVzLTEuNS0uNjctMS41LTEuNS42Ny0xLjUgMS41LTEuNSAxLjUuNjcgMS41IDEuNXptLTEyIDBjMCAuODMtLjY3IDEuNS0xLjUgMS41cy0xLjUtLjY3LTEuNS0xLjUuNjctMS41IDEuNS0xLjUgMS41LjY3IDEuNSAxLjV6bS0xMiAwYzAgLjgzLS42NyAxLjUtMS41IDEuNXMtMS41LS42Ny0xLjUtMS41LjY3LTEuNSAxLjUtMS41IDEuNS42NyAxLjUgMS41em0tMTIgMGMwIC44My0uNjcgMS41LTEuNSAxLjVzLTEuNS0uNjctMS41LTEuNS42Ny0xLjUgMS41LTEuNSAxLjUuNjcgMS41IDEuNXptLTEyIDBjMCAuODMtLjY3IDEuNS0xLjUgMS41cy0xLjUtLjY3LTEuNS0xLjUuNjctMS41IDEuNS0xLjUgMS41LjY3IDEuNSAxLjV6bS0xMiAwYzAgLjgzLS42NyAxLjUtMS41IDEuNXMtMS41LS42Ny0xLjUtMS41LjY3LTEuNSAxLjUtMS41IDEuNS42NyAxLjUgMS41em0tMTIgMGMwIC44My0uNjcgMS41LTEuNSAxLjVzLTEuNS0uNjctMS41LTEuNS42Ny0xLjUgMS41LTEuNSAxLjUuNjcgMS41IDEuNXptLTEyIDBjMCAuODMtLjY3IDEuNS0xLjUgMS41cy0xLjUtLjY3LTEuNS0xLjUuNjctMS41IDEuNS0xLjUgMS41LjY3IDEuNSAxLjV6bS0xMiAwYzAgLjgzLS42NyAxLjUtMS41IDEuNXMtMS41LS42Ny0xLjUtMS41LjY3LTEuNSAxLjUtMS41IDEuNS42NyAxLjUgMS41em0tMTIgMGMwIC44My0uNjcgMS41LTEuNSAxLjVzLTEuNS0uNjctMS41LTEuNS42Ny0xLjUgMS41LTEuNSAxLjUuNjcgMS41IDEuNXptLTEyIDBjMCAuODMtLjY3IDEuNS0xLjUgMS41cy0xLjUtLjY3LTEuNS0xLjUuNjctMS41IDEuNS0xLjUgMS41LjY3IDEuNSAxLjV6bS0xMiAwYzAgLjgzLS42NyAxLjUtMS41IDEuNXMtMS41LS42Ny0xLjUtMS41LjY3LTEuNSAxLjUtMS41IDEuNS42NyAxLjUgMS41em0tMTIgMGMwIC44My0uNjcgMS41LTEuNSAxLjVzLTEuNS0uNjctMS41LTEuNS42Ny0xLjUgMS41LTEuNSAxLjUuNjcgMS41IDEuNXptLTEyIDBjMCAuODMtLjY3IDEuNS0xLjUgMS41cy0xLjUtLjY3LTEuNS0xLjUuNjctMS41IDEuNS0xLjUgMS41LjY3IDEuNSAxLjV6bS0xMiAwYzAgLjgzLS42NyAxLjUtMS41IDEuNXMtMS41LS42Ny0xLjUtMS41LjY3LTEuNSAxLjUtMS41IDEuNS42NyAxLjUgMS41em0tMTIgMGMwIC44My0uNjcgMS41LTEuNSAxLjVzLTEuNS0uNjctMS41LTEuNS42Ny0xLjUgMS41LTEuNSAxLjUuNjcgMS41IDEuNXptLTEyIDBjMCAuODMtLjY3IDEuNS0xLjUgMS41cy0xLjUtLjY3LTEuNS0xLjUuNjctMS41IDEuNS0xLjUgMS41LjY3IDEuNSAxLjV6bS0xMiAwYzAgLjgzLS42NyAxLjUtMS41IDEuNXMtMS41LS42Ny0xLjUtMS41LjY3LTEuNSAxLjUtMS41IDEuNS42NyAxLjUgMS41em0tMTIgMGMwIC44My0uNjcgMS41LTEuNSAxLjVzLTEuNS0uNjctMS41LTEuNS42Ny0xLjUgMS41LTEuNSAxLjUuNjcgMS41IDEuNXptLTEyIDBjMCAuODMtLjY3IDEuNS0xLjUgMS41cy0xLjUtLjY3LTEuNS0xLjUuNjctMS41IDEuNS0xLjUgMS41LjY3IDEuNSAxLjV6bS0xMiAwYzAgLjgzLS42NyAxLjUtMS41IDEuNXMtMS41LS42Ny0xLjUtMS41LjY3LTEuNSAxLjUtMS41IDEuNS42NyAxLjUgMS41em0tMTIgMGMwIC44My0uNjcgMS41LTEuNSAxLjVzLTEuNS0uNjctMS41LTEuNS42Ny0xLjUgMS41LTEuNSAxLjUuNjcgMS41IDEuNXptLTEyIDBjMCAuODMtLjY3IDEuNS0xLjUgMS41cy0xLjUtLjY3LTEuNS0xLjUuNjctMS41IDEuNS0xLjUgMS41LjY3IDEuNSAxLjV6bS0xMiAwYzAgLjgzLS42NyAxLjUtMS41IDEuNXMtMS41LS42Ny0xLjUtMS41LjY3LTEuNSAxLjUtMS41IDEuNS42NyAxLjUgMS41em0tMTIgMGMwIC44My0uNjcgMS41LTEuNSAxLjVzLTEuNS0uNjctMS41LTEuNS42Ny0xLjUgMS41LTEuNSAxLjUuNjcgMS41IDEuNXptLTEyIDBjMCAuODMtLjY3IDEuNS0xLjUgMS41cy0xLjUtLjY3LTEuNS0xLjUuNjctMS41IDEuNS0xLjUgMS41LjY3IDEuNSAxLjV6bS0xMiAwYzAgLjgzLS42NyAxLjUtMS41IDEuNXMtMS41LS42Ny0xLjUtMS41LjY3LTEuNSAxLjUtMS41IDEuNS42NyAxLjUgMS41em0tMTIgMGMwIC44My0uNjcgMS41LTEuNSAxLjVzLTEuNS0uNjctMS41LTEuNS42Ny0xLjUgMS41LTEuNSAxLjUuNjcgMS41IDEuNXptLTEyIDBjMCAuODMtLjY3IDEuNS0xLjUgMS41cy0xLjUtLjY3LTEuNS0xLjUuNjctMS41IDEuNS0xLjUgMS41LjY3IDEuNSAxLjV6bS0xMS40NS0yLjM3YzAgLjgzLS42NyAxLjUtMS41IDEuNS0uODIgMC0xLjUtLjY3LTEuNS0xLjVzLjY4LTEuNSAxLjUtMS41Yy44MyAwIDEuNS42NyAxLjUgMS41em0tOS43Ni02LjQyYzAgLjg0LS43IDEuNS0xLjUgMS41LS44NCAwLTEuNS0uNjYtMS41LTEuNSAwLS44Mi42Ni0xLjUgMS41LTEuNS44IDAgMS41LjY4IDEuNSAxLjV6bS02LjQzLTkuNzVjMCAuODItLjY3IDEuNS0xLjUgMS41cy0xLjUtLjY4LTEuNS0xLjVjMC0uODMuNjctMS41IDEuNS0xLjVzMS41LjY3IDEuNSAxLjV6bS0yLjM3LTExLjQ1YzAgLjgzLS42NyAxLjUtMS41IDEuNXMtMS41LS42Ny0xLjUtMS41LjY3LTEuNSAxLjUtMS41IDEuNS42NyAxLjUgMS41em0wLTExLjk3YzAgLjgzLS42NyAxLjUtMS41IDEuNXMtMS41LS42Ny0xLjUtMS41LjY3LTEuNSAxLjUtMS41IDEuNS42NyAxLjUgMS41em0wLTExLjk4YzAgLjgzLS42NyAxLjUtMS41IDEuNXMtMS41LS42Ny0xLjUtMS41LjY3LTEuNSAxLjUtMS41IDEuNS42NyAxLjUgMS41em0wLTExLjk3YzAgLjgzLS42NyAxLjUtMS41IDEuNXMtMS41LS42Ny0xLjUtMS41LjY3LTEuNSAxLjUtMS41IDEuNS42NyAxLjUgMS41em0wLTExLjk4YzAgLjgzLS42NyAxLjUtMS41IDEuNXMtMS41LS42Ny0xLjUtMS41YzAtLjgyLjY3LTEuNSAxLjUtMS41czEuNS42OCAxLjUgMS41em0wLTExLjk3YzAgLjgzLS42NyAxLjUtMS41IDEuNXMtMS41LS42Ny0xLjUtMS41LjY3LTEuNSAxLjUtMS41IDEuNS42NyAxLjUgMS41em0wLTExLjk3YzAgLjgzLS42NyAxLjUtMS41IDEuNXMtMS41LS42Ny0xLjUtMS41LjY3LTEuNSAxLjUtMS41IDEuNS42NyAxLjUgMS41em0wLTExLjk4YzAgLjgzLS42NyAxLjUtMS41IDEuNXMtMS41LS42Ny0xLjUtMS41YzAtLjgyLjY3LTEuNSAxLjUtMS41czEuNS42OCAxLjUgMS41em0wLTExLjk3YzAgLjg0LS42NyAxLjUtMS41IDEuNXMtMS41LS42Ni0xLjUtMS41YzAtLjgyLjY3LTEuNSAxLjUtMS41czEuNS42OCAxLjUgMS41em0wLTExLjk2YzAgLjgzLS42NyAxLjUtMS41IDEuNXMtMS41LS42Ny0xLjUtMS41LjY3LTEuNSAxLjUtMS41IDEuNS42NyAxLjUgMS41em0wLTExLjk4YzAgLjgzLS42NyAxLjUtMS41IDEuNXMtMS41LS42Ny0xLjUtMS41LjY3LTEuNSAxLjUtMS41IDEuNS42NyAxLjUgMS41em0wLTExLjk3YzAgLjgyLS42NyAxLjUtMS41IDEuNXMtMS41LS42OC0xLjUtMS41YzAtLjg0LjY3LTEuNSAxLjUtMS41czEuNS42NiAxLjUgMS41em0wLTExLjk4YzAgLjgyLS42NyAxLjUtMS41IDEuNXMtMS41LS42OC0xLjUtMS41YzAtLjgzLjY3LTEuNSAxLjUtMS41czEuNS42NyAxLjUgMS41em0wLTExLjk4YzAgLjgzLS42NyAxLjUtMS41IDEuNXMtMS41LS42Ny0xLjUtMS41LjY3LTEuNSAxLjUtMS41IDEuNS42NyAxLjUgMS41em0wLTExLjk3YzAgLjgzLS42NyAxLjUtMS41IDEuNXMtMS41LS42Ny0xLjUtMS41LjY3LTEuNSAxLjUtMS41IDEuNS42NyAxLjUgMS41em0wLTExLjk4YzAgLjgyLS42NyAxLjUtMS41IDEuNXMtMS41LS42OC0xLjUtMS41YzAtLjgzLjY3LTEuNSAxLjUtMS41czEuNS42NyAxLjUgMS41em0wLTExLjk4YzAgLjgzLS42NyAxLjUtMS41IDEuNXMtMS41LS42Ny0xLjUtMS41LjY3LTEuNSAxLjUtMS41IDEuNS42NyAxLjUgMS41em0wLTExLjk3YzAgLjgzLS42NyAxLjUtMS41IDEuNXMtMS41LS42Ny0xLjUtMS41LjY3LTEuNSAxLjUtMS41IDEuNS42NyAxLjUgMS41em0wLTExLjk4YzAgLjgzLS42NyAxLjUtMS41IDEuNXMtMS41LS42Ny0xLjUtMS41LjY3LTEuNSAxLjUtMS41IDEuNS42NyAxLjUgMS41em0wLTExLjk3YzAgLjgzLS42NyAxLjUtMS41IDEuNXMtMS41LS42Ny0xLjUtMS41LjY3LTEuNSAxLjUtMS41IDEuNS42NyAxLjUgMS41em0wLTExLjk3YzAgLjgzLS42NyAxLjUtMS41IDEuNXMtMS41LS42Ny0xLjUtMS41LjY3LTEuNSAxLjUtMS41IDEuNS42NyAxLjUgMS41em0wLTExLjk4YzAgLjgzLS42NyAxLjUtMS41IDEuNXMtMS41LS42Ny0xLjUtMS41LjY3LTEuNSAxLjUtMS41IDEuNS42NyAxLjUgMS41em0wLTExLjk3YzAgLjgzLS42NyAxLjUtMS41IDEuNXMtMS41LS42Ny0xLjUtMS41LjY3LTEuNSAxLjUtMS41IDEuNS42NyAxLjUgMS41em0wLTExLjk3YzAgLjgzLS42NyAxLjUtMS41IDEuNXMtMS41LS42Ny0xLjUtMS41YzAtLjgyLjY3LTEuNSAxLjUtMS41czEuNS42OCAxLjUgMS41em0wLTExLjk3YzAgLjgzLS42NyAxLjUtMS41IDEuNXMtMS41LS42Ny0xLjUtMS41LjY3LTEuNSAxLjUtMS41IDEuNS42NyAxLjUgMS41em0wLTExLjk3YzAgLjgzLS42NyAxLjUtMS41IDEuNXMtMS41LS42Ny0xLjUtMS41LjY3LTEuNSAxLjUtMS41IDEuNS42NyAxLjUgMS41em0wLTExLjk4YzAgLjgzLS42NyAxLjUtMS41IDEuNXMtMS41LS42Ny0xLjUtMS41YzAtLjgyLjY3LTEuNSAxLjUtMS41czEuNS42OCAxLjUgMS41em0wLTExLjk3YzAgLjg0LS42NyAxLjUtMS41IDEuNXMtMS41LS42Ni0xLjUtMS41YzAtLjgyLjY3LTEuNSAxLjUtMS41czEuNS42OCAxLjUgMS41em0wLTExLjk2YzAgLjgyLS42NyAxLjUtMS41IDEuNXMtMS41LS42OC0xLjUtMS41YzAtLjgzLjY3LTEuNSAxLjUtMS41czEuNS42NyAxLjUgMS41em0wLTExLjk4YzAgLjgzLS42NyAxLjUtMS41IDEuNXMtMS41LS42Ny0xLjUtMS41YzAtLjgyLjY3LTEuNSAxLjUtMS41czEuNS42OCAxLjUgMS41em0wLTExLjk3YzAgLjgyLS42NyAxLjUtMS41IDEuNXMtMS41LS42OC0xLjUtMS41YzAtLjg0LjY3LTEuNSAxLjUtMS41czEuNS42NiAxLjUgMS41em0wLTExLjk4YzAgLjgyLS42NyAxLjUtMS41IDEuNXMtMS41LS42OC0xLjUtMS41YzAtLjgzLjY3LTEuNSAxLjUtMS41czEuNS42NyAxLjUgMS41em0wLTExLjk4YzAgLjgzLS42NyAxLjUtMS41IDEuNXMtMS41LS42Ny0xLjUtMS41LjY3LTEuNSAxLjUtMS41IDEuNS42NyAxLjUgMS41em0wLTExLjk3YzAgLjgzLS42NyAxLjUtMS41IDEuNXMtMS41LS42Ny0xLjUtMS41LjY3LTEuNSAxLjUtMS41IDEuNS42NyAxLjUgMS41em0wLTExLjk4YzAgLjgyLS42NyAxLjUtMS41IDEuNXMtMS41LS42OC0xLjUtMS41YzAtLjgzLjY3LTEuNSAxLjUtMS41czEuNS42NyAxLjUgMS41em0wLTExLjk4YzAgLjgzLS42NyAxLjUtMS41IDEuNXMtMS41LS42Ny0xLjUtMS41LjY3LTEuNSAxLjUtMS41IDEuNS42NyAxLjUgMS41em0wLTExLjk3YzAgLjgzLS42NyAxLjUtMS41IDEuNXMtMS41LS42Ny0xLjUtMS41LjY3LTEuNSAxLjUtMS41IDEuNS42NyAxLjUgMS41em0wLTExLjk4YzAgLjgzLS42NyAxLjUtMS41IDEuNXMtMS41LS42Ny0xLjUtMS41LjY3LTEuNSAxLjUtMS41IDEuNS42NyAxLjUgMS41em0wLTExLjk3YzAgLjgzLS42NyAxLjUtMS41IDEuNXMtMS41LS42Ny0xLjUtMS41LjY3LTEuNSAxLjUtMS41IDEuNS42NyAxLjUgMS41em0wLTExLjk3YzAgLjgyLS42NyAxLjUtMS41IDEuNXMtMS41LS42OC0xLjUtMS41YzAtLjgzLjY3LTEuNSAxLjUtMS41czEuNS42NyAxLjUgMS41em0wLTExLjk4YzAgLjgzLS42NyAxLjUtMS41IDEuNXMtMS41LS42Ny0xLjUtMS41LjY3LTEuNSAxLjUtMS41IDEuNS42NyAxLjUgMS41em0wLTExLjk3YzAgLjgzLS42NyAxLjUtMS41IDEuNXMtMS41LS42Ny0xLjUtMS41LjY3LTEuNSAxLjUtMS41IDEuNS42NyAxLjUgMS41em0wLTExLjk4YzAgLjgzLS42NyAxLjUtMS41IDEuNXMtMS41LS42Ny0xLjUtMS41YzAtLjgyLjY3LTEuNSAxLjUtMS41czEuNS42OCAxLjUgMS41em0wLTExLjk3YzAgLjgzLS42NyAxLjUtMS41IDEuNXMtMS41LS42Ny0xLjUtMS41LjY3LTEuNSAxLjUtMS41IDEuNS42NyAxLjUgMS41em0wLTExLjk3YzAgLjgzLS42NyAxLjUtMS41IDEuNXMtMS41LS42Ny0xLjUtMS41LjY3LTEuNSAxLjUtMS41IDEuNS42NyAxLjUgMS41em0wLTExLjk4YzAgLjgzLS42NyAxLjUtMS41IDEuNXMtMS41LS42Ny0xLjUtMS41YzAtLjgyLjY3LTEuNSAxLjUtMS41czEuNS42OCAxLjUgMS41em0wLTExLjk3YzAgLjg0LS42NyAxLjUtMS41IDEuNXMtMS41LS42Ni0xLjUtMS41YzAtLjgyLjY3LTEuNSAxLjUtMS41czEuNS42OCAxLjUgMS41em0wLTExLjk2YzAgLjgyLS42NyAxLjUtMS41IDEuNXMtMS41LS42OC0xLjUtMS41YzAtLjgzLjY3LTEuNSAxLjUtMS41czEuNS42NyAxLjUgMS41em0wLTExLjk4YzAgLjgzLS42NyAxLjUtMS41IDEuNXMtMS41LS42Ny0xLjUtMS41YzAtLjgyLjY3LTEuNSAxLjUtMS41czEuNS42OCAxLjUgMS41em0wLTExLjk3YzAgLjgyLS42NyAxLjUtMS41IDEuNXMtMS41LS42OC0xLjUtMS41YzAtLjg0LjY3LTEuNSAxLjUtMS41czEuNS42NiAxLjUgMS41em0wLTExLjk4YzAgLjgyLS42NyAxLjUtMS41IDEuNXMtMS41LS42OC0xLjUtMS41YzAtLjgzLjY3LTEuNSAxLjUtMS41czEuNS42NyAxLjUgMS41em0wLTExLjk4YzAgLjgzLS42NyAxLjUtMS41IDEuNXMtMS41LS42Ny0xLjUtMS41LjY3LTEuNSAxLjUtMS41IDEuNS42NyAxLjUgMS41em0wLTExLjk3YzAgLjgzLS42NyAxLjUtMS41IDEuNXMtMS41LS42Ny0xLjUtMS41LjY3LTEuNSAxLjUtMS41IDEuNS42NyAxLjUgMS41em0wLTExLjk4YzAgLjgyLS42NyAxLjUtMS41IDEuNXMtMS41LS42OC0xLjUtMS41YzAtLjgzLjY3LTEuNSAxLjUtMS41czEuNS42NyAxLjUgMS41em0wLTExLjk4YzAgLjgzLS42NyAxLjUtMS41IDEuNXMtMS41LS42Ny0xLjUtMS41LjY3LTEuNSAxLjUtMS41IDEuNS42NyAxLjUgMS41em0wLTExLjk3YzAgLjgzLS42NyAxLjUtMS41IDEuNXMtMS41LS42Ny0xLjUtMS41LjY3LTEuNSAxLjUtMS41IDEuNS42NyAxLjUgMS41em0wLTExLjk4YzAgLjgzLS42NyAxLjUtMS41IDEuNXMtMS41LS42Ny0xLjUtMS41YzAtLjgyLjY3LTEuNSAxLjUtMS41czEuNS42OCAxLjUgMS41em0wLTExLjk3YzAgLjgzLS42NyAxLjUtMS41IDEuNXMtMS41LS42Ny0xLjUtMS41LjY3LTEuNSAxLjUtMS41IDEuNS42NyAxLjUgMS41em0wLTExLjk3YzAgLjgzLS42NyAxLjUtMS41IDEuNXMtMS41LS42OC0xLjUtMS41YzAtLjgzLjY3LTEuNSAxLjUtMS41czEuNS42NyAxLjUgMS41em0wLTExLjk4YzAgLjgzLS42NyAxLjUtMS41IDEuNXMtMS41LS42Ny0xLjUtMS41LjY3LTEuNSAxLjUtMS41IDEuNS42NyAxLjUgMS41em0wLTExLjk3YzAgLjgzLS42NyAxLjUtMS41IDEuNXMtMS41LS42Ny0xLjUtMS41LjY3LTEuNSAxLjUtMS41IDEuNS42NyAxLjUgMS41em0wLTExLjk3YzAgLjgzLS42NyAxLjUtMS41IDEuNXMtMS41LS42Ny0xLjUtMS41YzAtLjgyLjY3LTEuNSAxLjUtMS41czEuNS42OCAxLjUgMS41em0wLTExLjk3YzAgLjgzLS42NyAxLjUtMS41IDEuNXMtMS41LS42Ny0xLjUtMS41LjY3LTEuNSAxLjUtMS41IDEuNS42NyAxLjUgMS41em0wLTExLjk3YzAgLjgzLS42NyAxLjUtMS41IDEuNXMtMS41LS42Ny0xLjUtMS41LjY3LTEuNSAxLjUtMS41IDEuNS42NyAxLjUgMS41em0wLTExLjk4YzAgLjgzLS42NyAxLjUtMS41IDEuNXMtMS41LS42Ny0xLjUtMS41YzAtLjgyLjY3LTEuNSAxLjUtMS41czEuNS42OCAxLjUgMS41em0wLTExLjk3YzAgLjg0LS42NyAxLjUtMS41IDEuNXMtMS41LS42Ni0xLjUtMS41YzAtLjgyLjY3LTEuNSAxLjUtMS41czEuNS42OCAxLjUgMS41em0wLTExLjk2YzAgLjgzLS42NyAxLjUtMS41IDEuNXMtMS41LS42Ny0xLjUtMS41LjY3LTEuNSAxLjUtMS41IDEuNS42NyAxLjUgMS41em0wLTExLjk4YzAgLjgzLS42NyAxLjUtMS41IDEuNXMtMS41LS42Ny0xLjUtMS41LjY3LTEuNSAxLjUtMS41IDEuNS42NyAxLjUgMS41em0wLTExLjk3YzAgLjgyLS42NyAxLjUtMS41IDEuNXMtMS41LS42OC0xLjUtMS41YzAtLjg0LjY3LTEuNSAxLjUtMS41czEuNS42NiAxLjUgMS41em0wLTExLjk4YzAgLjgyLS42NyAxLjUtMS41IDEuNXMtMS41LS42OC0xLjUtMS41YzAtLjgzLjY3LTEuNSAxLjUtMS41czEuNS42NyAxLjUgMS41em0wLTExLjk4YzAgLjgzLS42NyAxLjUtMS41IDEuNXMtMS41LS42Ny0xLjUtMS41LjY3LTEuNSAxLjUtMS41IDEuNS42NyAxLjUgMS41em0wLTExLjk3YzAgLjgzLS42NyAxLjUtMS41IDEuNXMtMS41LS42Ny0xLjUtMS41LjY3LTEuNSAxLjUtMS41IDEuNS42NyAxLjUgMS41em0wLTExLjk3YzAgLjgyLS42NyAxLjUtMS41IDEuNXMtMS41LS42OC0xLjUtMS41YzAtLjgzLjY3LTEuNSAxLjUtMS41czEuNS42NyAxLjUgMS41em0wLTExLjk4YzAgLjgzLS42NyAxLjUtMS41IDEuNXMtMS41LS42Ny0xLjUtMS41LjY3LTEuNSAxLjUtMS41IDEuNS42NyAxLjUgMS41em0wLTExLjk3YzAgLjgzLS42NyAxLjUtMS41IDEuNXMtMS41LS42Ny0xLjUtMS41LjY3LTEuNSAxLjUtMS41IDEuNS42NyAxLjUgMS41em0wLTExLjk4YzAgLjgzLS42NyAxLjUtMS41IDEuNXMtMS41LS42Ny0xLjUtMS41YzAtLjgyLjY3LTEuNSAxLjUtMS41czEuNS42OCAxLjUgMS41em0wLTExLjk3YzAgLjgzLS42NyAxLjUtMS41IDEuNXMtMS41LS42Ny0xLjUtMS41LjY3LTEuNSAxLjUtMS41IDEuNS42NyAxLjUgMS41em0wLTExLjk3YzAgLjgyLS42NyAxLjUtMS41IDEuNXMtMS41LS42OC0xLjUtMS41YzAtLjgzLjY3LTEuNSAxLjUtMS41czEuNS42NyAxLjUgMS41em0wLTExLjk4YzAgLjgzLS42NyAxLjUtMS41IDEuNXMtMS41LS42Ny0xLjUtMS41LjY3LTEuNSAxLjUtMS41IDEuNS42NyAxLjUgMS41em0wLTExLjk3YzAgLjgzLS42NyAxLjUtMS41IDEuNXMtMS41LS42Ny0xLjUtMS41LjY3LTEuNSAxLjUtMS41IDEuNS42NyAxLjUgMS41em0wLTExLjk4YzAgLjgzLS42NyAxLjUtMS41IDEuNXMtMS41LS42Ny0xLjUtMS41YzAtLjgyLjY3LTEuNSAxLjUtMS41czEuNS42OCAxLjUgMS41em0wLTExLjk3YzAgLjgzLS42NyAxLjUtMS41IDEuNXMtMS41LS42Ny0xLjUtMS41LjY3LTEuNSAxLjUtMS41IDEuNS42NyAxLjUgMS41em0wLTExLjk3YzAgLjgzLS42NyAxLjUtMS41IDEuNXMtMS41LS42Ny0xLjUtMS41LjY3LTEuNSAxLjUtMS41IDEuNS42NyAxLjUgMS41em0wLTExLjk4YzAgLjgzLS42NyAxLjUtMS41IDEuNXMtMS41LS42Ny0xLjUtMS41YzAtLjgyLjY3LTEuNSAxLjUtMS41czEuNS42OCAxLjUgMS41em0wLTExLjk3YzAgLjg0LS42NyAxLjUtMS41IDEuNXMtMS41LS42Ni0xLjUtMS41YzAtLjgyLjY3LTEuNSAxLjUtMS41czEuNS42OCAxLjUgMS41em0wLTExLjk2YzAgLjgyLS42NyAxLjUtMS41IDEuNXMtMS41LS42OC0xLjUtMS41YzAtLjgzLjY3LTEuNSAxLjUtMS41czEuNS42NyAxLjUgMS41em0wLTExLjk4YzAgLjgzLS42NyAxLjUtMS41IDEuNXMtMS41LS42Ny0xLjUtMS41YzAtLjgyLjY3LTEuNSAxLjUtMS41czEuNS42OCAxLjUgMS41em0wLTExLjk3YzAgLjgyLS42NyAxLjUtMS41IDEuNXMtMS41LS42OC0xLjUtMS41YzAtLjg0LjY3LTEuNSAxLjUtMS41czEuNS42NiAxLjUgMS41em0wLTExLjk4YzAgLjgyLS42NyAxLjUtMS41IDEuNXMtMS41LS42OC0xLjUtMS41YzAtLjgzLjY3LTEuNSAxLjUtMS41czEuNS42NyAxLjUgMS41em0wLTExLjk4YzAgLjgzLS42NyAxLjUtMS41IDEuNXMtMS41LS42Ny0xLjUtMS41LjY3LTEuNSAxLjUtMS41IDEuNS42NyAxLjUgMS41em0wLTExLjk3YzAgLjgzLS42NyAxLjUtMS41IDEuNXMtMS41LS42Ny0xLjUtMS41LjY3LTEuNSAxLjUtMS41IDEuNS42NyAxLjUgMS41em0wLTExLjk4YzAgLjgyLS42NyAxLjUtMS41IDEuNXMtMS41LS42OC0xLjUtMS41YzAtLjgzLjY3LTEuNSAxLjUtMS41czEuNS42NyAxLjUgMS41em0wLTExLjk4YzAgLjgzLS42NyAxLjUtMS41IDEuNXMtMS41LS42Ny0xLjUtMS41LjY3LTEuNSAxLjUtMS41IDEuNS42NyAxLjUgMS41em0wLTExLjk3YzAgLjgzLS42NyAxLjUtMS41IDEuNXMtMS41LS42Ny0xLjUtMS41LjY3LTEuNSAxLjUtMS41IDEuNS42NyAxLjUgMS41em0wLTExLjk4YzAgLjgzLS42NyAxLjUtMS41IDEuNXMtMS41LS42Ny0xLjUtMS41LjY3LTEuNSAxLjUtMS41IDEuNS42NyAxLjUgMS41em0wLTExLjk3YzAgLjgzLS42NyAxLjUtMS41IDEuNXMtMS41LS42Ny0xLjUtMS41LjY3LTEuNSAxLjUtMS41IDEuNS42NyAxLjUgMS41em0wLTExLjk3YzAgLjgzLS42NyAxLjUtMS41IDEuNXMtMS41LS42Ny0xLjUtMS41LjY3LTEuNSAxLjUtMS41IDEuNS42NyAxLjUgMS41em0wLTExLjk4YzAgLjgzLS42NyAxLjUtMS41IDEuNXMtMS41LS42Ny0xLjUtMS41LjY3LTEuNSAxLjUtMS41IDEuNS42NyAxLjUgMS41em0wLTExLjk3YzAgLjgzLS42NyAxLjUtMS41IDEuNXMtMS41LS42Ny0xLjUtMS41LjY3LTEuNSAxLjUtMS41IDEuNS42NyAxLjUgMS41em0wLTExLjk3YzAgLjgzLS42NyAxLjUtMS41IDEuNXMtMS41LS42Ny0xLjUtMS41YzAtLjgyLjY3LTEuNSAxLjUtMS41czEuNS42OCAxLjUgMS41em0wLTExLjk3YzAgLjgzLS42NyAxLjUtMS41IDEuNXMtMS41LS42Ny0xLjUtMS41LjY3LTEuNSAxLjUtMS41IDEuNS42NyAxLjUgMS41em0wLTExLjk3YzAgLjgzLS42NyAxLjUtMS41IDEuNXMtMS41LS42Ny0xLjUtMS41LjY3LTEuNSAxLjUtMS41IDEuNS42NyAxLjUgMS41em0wLTExLjk4YzAgLjgzLS42NyAxLjUtMS41IDEuNXMtMS41LS42Ny0xLjUtMS41YzAtLjgyLjY3LTEuNSAxLjUtMS41czEuNS42OCAxLjUgMS41em0wLTExLjk3YzAgLjg0LS42NyAxLjUtMS41IDEuNXMtMS41LS42Ni0xLjUtMS41YzAtLjgyLjY3LTEuNSAxLjUtMS41czEuNS42OCAxLjUgMS41em0wLTExLjk2YzAgLjgzLS42NyAxLjUtMS41IDEuNXMtMS41LS42Ny0xLjUtMS41LjY3LTEuNSAxLjUtMS41IDEuNS42NyAxLjUgMS41em0wLTExLjk4YzAgLjgzLS42NyAxLjUtMS41IDEuNXMtMS41LS42Ny0xLjUtMS41LjY3LTEuNSAxLjUtMS41IDEuNS42NyAxLjUgMS41em0wLTExLjk3YzAgLjgyLS42NyAxLjUtMS41IDEuNXMtMS41LS42OC0xLjUtMS41YzAtLjg0LjY3LTEuNSAxLjUtMS41czEuNS42NiAxLjUgMS41em0wLTExLjk4YzAgLjgyLS42NyAxLjUtMS41IDEuNXMtMS41LS42OC0xLjUtMS41YzAtLjgzLjY3LTEuNSAxLjUtMS41czEuNS42NyAxLjUgMS41em0wLTExLjk4YzAgLjgzLS42NyAxLjUtMS41IDEuNXMtMS41LS42Ny0xLjUtMS41LjY3LTEuNSAxLjUtMS41IDEuNS42NyAxLjUgMS41em0wLTExLjk3YzAgLjgzLS42NyAxLjUtMS41IDEuNXMtMS41LS42Ny0xLjUtMS41LjY3LTEuNSAxLjUtMS41IDEuNS42NyAxLjUgMS41em0wLTExLjk4YzAgLjgyLS42NyAxLjUtMS41IDEuNXMtMS41LS42OC0xLjUtMS41YzAtLjgzLjY3LTEuNSAxLjUtMS41czEuNS42NyAxLjUgMS41em0wLTExLjk4YzAgLjgzLS42NyAxLjUtMS41IDEuNXMtMS41LS42Ny0xLjUtMS41LjY3LTEuNSAxLjUtMS41IDEuNS42NyAxLjUgMS41em0wLTExLjk3YzAgLjgzLS42NyAxLjUtMS41IDEuNXMtMS41LS42Ny0xLjUtMS41LjY3LTEuNSAxLjUtMS41IDEuNS42NyAxLjUgMS41em0wLTExLjk4YzAgLjgzLS42NyAxLjUtMS41IDEuNXMtMS41LS42Ny0xLjUtMS41LjY3LTEuNSAxLjUtMS41IDEuNS42NyAxLjUgMS41em0wLTExLjk3YzAgLjgzLS42NyAxLjUtMS41IDEuNXMtMS41LS42Ny0xLjUtMS41LjY3LTEuNSAxLjUtMS41IDEuNS42NyAxLjUgMS41em0wLTExLjk3YzAgLjgzLS42NyAxLjUtMS41IDEuNXMtMS41LS42Ny0xLjUtMS41LjY3LTEuNSAxLjUtMS41IDEuNS42NyAxLjUgMS41em0wLTExLjk4YzAgLjgzLS42NyAxLjUtMS41IDEuNXMtMS41LS42Ny0xLjUtMS41LjY3LTEuNSAxLjUtMS41IDEuNS42NyAxLjUgMS41em0wLTExLjk3YzAgLjgzLS42NyAxLjUtMS41IDEuNXMtMS41LS42Ny0xLjUtMS41LjY3LTEuNSAxLjUtMS41IDEuNS42NyAxLjUgMS41em0wLTExLjk4YzAgLjgzLS42NyAxLjUtMS41IDEuNXMtMS41LS42Ny0xLjUtMS41YzAtLjgyLjY3LTEuNSAxLjUtMS41czEuNS42OCAxLjUgMS41em0wLTExLjk3YzAgLjgzLS42NyAxLjUtMS41IDEuNXMtMS41LS42Ny0xLjUtMS41LjY3LTEuNSAxLjUtMS41IDEuNS42NyAxLjUgMS41em0wLTExLjk3YzAgLjgzLS42NyAxLjUtMS41IDEuNXMtMS41LS42Ny0xLjUtMS41LjY3LTEuNSAxLjUtMS41IDEuNS42NyAxLjUgMS41em0wLTExLjk4YzAgLjgzLS42NyAxLjUtMS41IDEuNXMtMS41LS42Ny0xLjUtMS41YzAtLjgyLjY3LTEuNSAxLjUtMS41czEuNS42OCAxLjUgMS41em0wLTExLjk3YzAgLjg0LS42NyAxLjUtMS41IDEuNXMtMS41LS42Ni0xLjUtMS41YzAtLjgyLjY3LTEuNSAxLjUtMS41czEuNS42OCAxLjUgMS41em0wLTExLjk2YzAgLjgzLS42NyAxLjUtMS41IDEuNXMtMS41LS42Ny0xLjUtMS41LjY3LTEuNSAxLjUtMS41IDEuNS42NyAxLjUgMS41em0wLTExLjk4YzAgLjgzLS42NyAxLjUtMS41IDEuNXMtMS41LS42Ny0xLjUtMS41LjY3LTEuNSAxLjUtMS41IDEuNS42NyAxLjUgMS41em0wLTExLjk3YzAgLjgyLS42NyAxLjUtMS41IDEuNXMtMS41LS42OC0xLjUtMS41YzAtLjg0LjY3LTEuNSAxLjUtMS41czEuNS42NiAxLjUgMS41em0wLTExLjk4YzAgLjgyLS42NyAxLjUtMS41IDEuNXMtMS41LS42OC0xLjUtMS41YzAtLjgzLjY3LTEuNSAxLjUtMS41czEuNS42NyAxLjUgMS41em0wLTExLjk4YzAgLjgzLS42NyAxLjUtMS41IDEuNXMtMS41LS42Ny0xLjUtMS41LjY3LTEuNSAxLjUtMS41IDEuNS42NyAxLjUgMS41em0wLTExLjk3YzAgLjgzLS42NyAxLjUtMS41IDEuNXMtMS41LS42Ny0xLjUtMS41LjY3LTEuNSAxLjUtMS41IDEuNS42NyAxLjUgMS41em0wLTExLjk4YzAgLjgyLS42NyAxLjUtMS41IDEuNXMtMS41LS42OC0xLjUtMS41YzAtLjgzLjY3LTEuNSAxLjUtMS41czEuNS42NyAxLjUgMS41em0wLTExLjk4YzAgLjgzLS42NyAxLjUtMS41IDEuNXMtMS41LS42Ny0xLjUtMS41LjY3LTEuNSAxLjUtMS41IDEuNS42NyAxLjUgMS41em0wLTExLjk3YzAgLjgzLS42NyAxLjUtMS41IDEuNXMtMS41LS42Ny0xLjUtMS41LjY3LTEuNSAxLjUtMS41IDEuNS42NyAxLjUgMS41em0wLTExLjk4YzAgLjgzLS42NyAxLjUtMS41IDEuNXMtMS41LS42Ny0xLjUtMS41LjY3LTEuNSAxLjUtMS41IDEuNS42NyAxLjUgMS41em0wLTExLjk3YzAgLjgzLS42NyAxLjUtMS41IDEuNXMtMS41LS42Ny0xLjUtMS41LjY3LTEuNSAxLjUtMS41IDEuNS42NyAxLjUgMS41em0wLTExLjk3YzAgLjgzLS42NyAxLjUtMS41IDEuNXMtMS41LS42Ny0xLjUtMS41LjY3LTEuNSAxLjUtMS41IDEuNS42NyAxLjUgMS41em0wLTExLjk4YzAgLjgzLS42NyAxLjUtMS41IDEuNXMtMS41LS42Ny0xLjUtMS41LjY3LTEuNSAxLjUtMS41IDEuNS42NyAxLjUgMS41em0wLTExLjk3YzAgLjgzLS42NyAxLjUtMS41IDEuNXMtMS41LS42Ny0xLjUtMS41LjY3LTEuNSAxLjUtMS41IDEuNS42NyAxLjUgMS41em0wLTExLjk4YzAgLjgzLS42NyAxLjUtMS41IDEuNXMtMS41LS42Ny0xLjUtMS41YzAtLjgyLjY3LTEuNSAxLjUtMS41czEuNS42OCAxLjUgMS41em0wLTExLjk3YzAgLjgzLS42NyAxLjUtMS41IDEuNXMtMS41LS42Ny0xLjUtMS41LjY3LTEuNSAxLjUtMS41IDEuNS42NyAxLjUgMS41em0wLTExLjk3YzAgLjgzLS42NyAxLjUtMS41IDEuNXMtMS41LS42Ny0xLjUtMS41LjY3LTEuNSAxLjUtMS41IDEuNS42NyAxLjUgMS41em0wLTExLjk4YzAgLjgzLS42NyAxLjUtMS41IDEuNXMtMS41LS42Ny0xLjUtMS41YzAtLjgyLjY3LTEuNSAxLjUtMS41czEuNS42OCAxLjUgMS41em0wLTExLjk3YzAgLjg0LS42NyAxLjUtMS41IDEuNXMtMS41LS42Ni0xLjUtMS41YzAtLjgyLjY3LTEuNSAxLjUtMS41czEuNS42OCAxLjUgMS41em0wLTExLjk2YzAgLjgzLS42NyAxLjUtMS41IDEuNXMtMS41LS42Ny0xLjUtMS41LjY3LTEuNSAxLjUtMS41IDEuNS42NyAxLjUgMS41em0wLTExLjk4YzAgLjgzLS42NyAxLjUtMS41IDEuNXMtMS41LS42Ny0xLjUtMS41LjY3LTEuNSAxLjUtMS41IDEuNS42NyAxLjUgMS41em0wLTExLjk3YzAgLjgyLS42NyAxLjUtMS41IDEuNXMtMS41LS42OC0xLjUtMS41YzAtLjg0LjY3LTEuNSAxLjUtMS41czEuNS42NiAxLjUgMS41em0wLTExLjk4YzAgLjgyLS42NyAxLjUtMS41IDEuNXMtMS41LS42OC0xLjUtMS41YzAtLjgzLjY3LTEuNSAxLjUtMS41czEuNS42NyAxLjUgMS41em0wLTExLjk4YzAgLjgzLS42NyAxLjUtMS41IDEuNXMtMS41LS42Ny0xLjUtMS41LjY3LTEuNSAxLjUtMS41IDEuNS42NyAxLjUgMS41em0wLTExLjk3YzAgLjgzLS42NyAxLjUtMS41IDEuNXMtMS41LS42Ny0xLjUtMS41LjY3LTEuNSAxLjUtMS41IDEuNS42NyAxLjUgMS41em0wLTExLjk3YzAgLjgyLS42NyAxLjUtMS41IDEuNXMtMS41LS42OC0xLjUtMS41YzAtLjgzLjY3LTEuNSAxLjUtMS41czEuNS42NyAxLjUgMS41em0wLTExLjk4YzAgLjgzLS42NyAxLjUtMS41IDEuNXMtMS41LS42Ny0xLjUtMS41LjY3LTEuNSAxLjUtMS41IDEuNS42NyAxLjUgMS41em0wLTExLjk3YzAgLjgzLS42NyAxLjUtMS41IDEuNXMtMS41LS42Ny0xLjUtMS41LjY3LTEuNSAxLjUtMS41IDEuNS42NyAxLjUgMS41em0wLTExLjk4YzAgLjgzLS42NyAxLjUtMS41IDEuNXMtMS41LS42Ny0xLjUtMS41LjY3LTEuNSAxLjUtMS41IDEuNS42NyAxLjUgMS41eiIvPjx1c2UgdHJhbnNmb3JtPSJtYXRyaXgoMSwwLDAsMSwtMjYyMCw3MTApIHRyYW5zbGF0ZSgxNTExLjAyNSAxMi43OTk5OTk5OTk5OTk5OTkpIiB4bGluazpocmVmPSIjayIvPjxwYXRoIGZpbGw9IiM5ZDUwMjUiIGQ9Ik0tMTQ1MC0xNzcuNjRjMCAzMS44LTI1Ljc2IDU3LjYzLTU3LjUgNTcuNjNzLTU3LjUtMjUuODMtNTcuNS01Ny42NGMwLTMxLjggMjUuNzYtNTcuNjMgNTcuNS01Ny42M3M1Ny41IDI1LjgyIDU3LjUgNTcuNjN6Ii8+PHBhdGggZmlsbD0iIzlkNTAyNSIgZD0iTS0xNTY1LTE4Mi4zOGgxMTV2NC43M2gtMTE1di00LjczeiIvPjxwYXRoIGZpbGw9IiNmNTg1MzYiIGQ9Ik0tMTQ1MC0xODIuMzdjMCAzMS44LTI1Ljc2IDU3LjYzLTU3LjUgNTcuNjNzLTU3LjUtMjUuODItNTcuNS01Ny42M2MwLTMxLjggMjUuNzYtNTcuNjMgNTcuNS01Ny42M3M1Ny41IDI1LjgyIDU3LjUgNTcuNjN6Ii8+PHBhdGggZmlsbD0iI2ZmZiIgZD0iTS0xNDcwLjEtMTU0LjA0bC00LjQ4LTExLjc4LTkuOTcgMy44Mi0xNC4yMy0zNy40Mi0zLjk3LTEwLjMzLTEuODgtNC45LTIuOS03LjY1aC0xOC45MnYxMi41NWgxMC4yNmwzLjYzIDkuMzQtMjkuNzYgNTMuMDJoMTQuMzdsMjEuMTYtMzcuOCAxNS4wMyAzOS40IDMuNi0xLjM3IDguMS0zLjA2IDkuOTctMy44NHoiLz48dXNlIHRyYW5zZm9ybT0ibWF0cml4KDEsMCwwLDEsLTE1NjUsLTEyMC4wMDAwMDAwMDAwMDAwMykgdHJhbnNsYXRlKC0zNC40MTM1ODAyNDY5MTM1NyAxNy43Nzc3Nzc3Nzc3Nzc3OCkiIHhsaW5rOmhyZWY9IiNsIi8+PGcgZmlsbD0ibm9uZSI+PHBhdGggZD0iTS00MjYgMzYwYTYgNiAwIDAgMSA2IDZ2ODhhNiA2IDAgMCAxLTYgNmgtMTY0OGE2IDYgMCAwIDEtNi02di04OGE2IDYgMCAwIDEgNi02eiIvPjxwYXRoIHN0cm9rZS13aWR0aD0iMyIgc3Ryb2tlPSIjNWU1ZTVlIiBkPSJNLTIwODAgMzYwYzAgNS41MiA0LjQ4IDEwIDEwIDEwaDgxMGM1LjUyIDAgMTAgNC40OCAxMCAxMCAwLTUuNTIgNC40OC0xMCAxMC0xMGg4MTBjNS41MiAwIDEwLTQuNDggMTAtMTAiLz48L2c+PHBhdGggZmlsbD0iI2ZmZiIgc3Ryb2tlLXdpZHRoPSIzIiBzdHJva2U9IiM1ZTVlNWUiIGQ9Ik0tMTcxMCAyODJjMCA5Ljk0LTM4LjA2IDE4LTg1IDE4cy04NS04LjA2LTg1LTE4VjEzOGMwLTkuOTQgMzguMDYtMTggODUtMThzODUgOC4wNiA4NSAxOHoiLz48cGF0aCBmaWxsPSJub25lIiBzdHJva2Utd2lkdGg9IjMiIHN0cm9rZT0iIzVlNWU1ZSIgZD0iTS0xNzEwIDEzOGMwIDkuOTQtMzguMDYgMTgtODUgMThzLTg1LTguMDYtODUtMTgiLz48dXNlIHRyYW5zZm9ybT0ibWF0cml4KDEsMCwwLDEsLTE4NzUsMTYxKSB0cmFuc2xhdGUoNDAuNTI0NjkxMzU4MDI0NjkgNzIuMjE1Mjc3Nzc3Nzc3NzcpIiB4bGluazpocmVmPSIjbSIvPjxwYXRoIGZpbGw9IiNmZmYiIHN0cm9rZS13aWR0aD0iMyIgc3Ryb2tlPSIjNWU1ZTVlIiBkPSJNLTEyNDUgMjgyYzAgOS45NC0zOC4wNiAxOC04NSAxOHMtODUtOC4wNi04NS0xOFYxMzhjMC05Ljk0IDM4LjA2LTE4IDg1LTE4czg1IDguMDYgODUgMTh6Ii8+PHBhdGggZmlsbD0ibm9uZSIgc3Ryb2tlLXdpZHRoPSIzIiBzdHJva2U9IiM1ZTVlNWUiIGQ9Ik0tMTI0NSAxMzhjMCA5Ljk0LTM4LjA2IDE4LTg1IDE4cy04NS04LjA2LTg1LTE4Ii8+PHVzZSB0cmFuc2Zvcm09Im1hdHJpeCgxLDAsMCwxLC0xNDEwLDE2MSkgdHJhbnNsYXRlKDM5LjkwNzQwNzQwNzQwNzQxIDcyLjIxNTI3Nzc3Nzc3Nzc3KSIgeGxpbms6aHJlZj0iI24iLz48cGF0aCBmaWxsPSIjZmZmIiBzdHJva2Utd2lkdGg9IjMiIHN0cm9rZT0iIzVlNWU1ZSIgZD0iTS01NzUgMzEyYzAgOS45NC0zOC4wNiAxOC04NSAxOHMtODUtOC4wNi04NS0xOFYxNjhjMC05Ljk0IDM4LjA2LTE4IDg1LTE4czg1IDguMDYgODUgMTh6Ii8+PHBhdGggZmlsbD0ibm9uZSIgc3Ryb2tlLXdpZHRoPSIzIiBzdHJva2U9IiM1ZTVlNWUiIGQ9Ik0tNTc1IDE2OGMwIDkuOTQtMzguMDYgMTgtODUgMThzLTg1LTguMDYtODUtMTgiLz48dXNlIHRyYW5zZm9ybT0ibWF0cml4KDEsMCwwLDEsLTc0MCwxOTEpIHRyYW5zbGF0ZSg0Ny45OTM4MjcxNjA0OTM4MyA3Mi4yMTUyNzc3Nzc3Nzc3NykiIHhsaW5rOmhyZWY9IiNvIi8+PHBhdGggZmlsbD0ibm9uZSIgc3Ryb2tlLXdpZHRoPSIyIiBzdHJva2U9IiM1ZTVlNWUiIGQ9Ik0tMTc5NSAxMTcuNVYtMTY0YTYgNiAwIDAgMSA2LTZoMjA2LjA1Ii8+PHBhdGggZmlsbD0iIzVlNWU1ZSIgc3Ryb2tlLXdpZHRoPSIuMDUiIHN0cm9rZT0iIzVlNWU1ZSIgZD0iTS0xNzk0LjAzIDExOC41M2wtLjk2LS4wMy0uOTcuMDJ2LTEuMDVoMS45NHoiLz48cGF0aCBmaWxsPSIjNWU1ZTVlIiBzdHJva2Utd2lkdGg9IjIiIHN0cm9rZT0iIzVlNWU1ZSIgZD0iTS0xNTY3LjY4LTE3MGwtMTQuMjcgNC42M3YtOS4yNnoiLz48cGF0aCBmaWxsPSIjN2Q3YzdjIiBkPSJNLTE0NTYuNDQtNjk0LjU3YzMuNTcgMCA2LjQ0IDIuODcgNi40NCA2LjQydjEwMS43MmMwIDMuNTUtMi44NyA2LjQyLTYuNDQgNi40MmgtNzQuMTJjLTMuNTcgMC02LjQ0LTIuODgtNi40NC02LjQzdi0xMDEuODNjMC0zLjU2IDIuODctNi40MiA2LjQ0LTYuNDJoNzQuMTJ6Ii8+PHBhdGggZmlsbD0iI2QyZDNkMyIgZD0iTS0xNDU2LjQ0LTY5OS45YzMuNTcgMCA2LjQ0IDIuODggNi40NCA2LjQ0djEwMS43YzAgMy41Ni0yLjg3IDYuNDMtNi40NCA2LjQzaC03NC4xMmMtMy41NyAwLTYuNDQtMi44Ny02LjQ0LTYuNDJ2LTEwMS44M2MwLTMuNTUgMi44Ny02LjQyIDYuNDQtNi40Mmg3NC4xMnoiLz48cGF0aCBmaWxsPSIjNzU5YzNlIiBkPSJNLTE1MTguMjctNjc1LjA4bC01Ljk4LTYuNS02LjU4IDYuNiAxMi40MiAxMi41IDIwLjk3LTIxLjEtNC43OC00Ljg4LTE2LjA3IDEzLjM4ek0tMTUxOC4yNy02NDUuMTNsLTUuOTgtNi41My02LjU4IDYuNjMgMTIuNDIgMTIuNDggMjAuOTctMjEuMS00Ljc4LTQuOS0xNi4wNyAxMy40MnoiLz48cGF0aCBmaWxsPSIjZTA1MjQzIiBkPSJNLTE1MTcuNi02MTUuMmwtMTIuOC0xMS42aDYuMjZsOS43MiA5LjMzIDEwLjItOS4zMmg1Ljc4bC0xMi44IDExLjYgMTMuNDcgMTIuMjRoLTYuNDJsLTEwLjQ4LTkuODQtMTAuODQgOS44NGgtNS42OHoiLz48dXNlIHRyYW5zZm9ybT0ibWF0cml4KDEsMCwwLDEsLTE1MzcsLTU4MCkgdHJhbnNsYXRlKDI1LjY2MDQ5MzgyNzE2MDQ5NCAxNy43Nzc3Nzc3Nzc3Nzc3OCkiIHhsaW5rOmhyZWY9IiNwIi8+PHVzZSB0cmFuc2Zvcm09Im1hdHJpeCgxLDAsMCwxLC0xNTM3LC01ODApIHRyYW5zbGF0ZSgxMi4wODAyNDY5MTM1ODAyNDMgNDQuNDQ0NDQ0NDQ0NDQ0NDQpIiB4bGluazpocmVmPSIjcSIvPjx1c2UgdHJhbnNmb3JtPSJtYXRyaXgoMSwwLDAsMSwtMTUzNywtNTgwKSB0cmFuc2xhdGUoLTExMy4wNDMyMDk4NzY1NDMxMyA3MS4xMTExMTExMTExMTExMSkiIHhsaW5rOmhyZWY9IiNyIi8+PHBhdGggZmlsbD0ibm9uZSIgc3Ryb2tlLXdpZHRoPSIyIiBzdHJva2U9IiM1ZTVlNWUiIGQ9Ik0tMTQ0OS4xLTE3NS42N2gxMDYuMzRhNiA2IDAgMCAxIDYgNnYyNjkuOCIvPjxwYXRoIGZpbGw9IiM1ZTVlNWUiIHN0cm9rZS13aWR0aD0iLjA1IiBzdHJva2U9IiM1ZTVlNWUiIGQ9Ik0tMTQ0OS4wNi0xNzQuN2gtMS4wN2wuMS0xLjk1aC45N3oiLz48cGF0aCBmaWxsPSIjNWU1ZTVlIiBzdHJva2Utd2lkdGg9IjIiIHN0cm9rZT0iIzVlNWU1ZSIgZD0iTS0xMzM2Ljc2IDExNS40bC00LjYzLTE0LjI2aDkuMjh6Ii8+PHBhdGggZmlsbD0ibm9uZSIgc3Ryb2tlLXdpZHRoPSIyIiBzdHJva2U9IiM1ZTVlNWUiIGQ9Ik0tMTMzMCAxMTcuNVYtOS43NWE2IDYgMCAwIDEgNi02aDIwOC41NmE2IDYgMCAwIDAgNi02Vi0xMzEuNSIvPjxwYXRoIGZpbGw9IiM1ZTVlNWUiIHN0cm9rZS13aWR0aD0iLjA1IiBzdHJva2U9IiM1ZTVlNWUiIGQ9Ik0tMTMyOS4wMyAxMTguNTNsLS45Ni0uMDMtLjk3LjAydi0xLjA1aDEuOTR6Ii8+PHBhdGggZmlsbD0iIzVlNWU1ZSIgc3Ryb2tlLXdpZHRoPSIyIiBzdHJva2U9IiM1ZTVlNWUiIGQ9Ik0tMTEwOS40NC0xNDYuNzZsNC42MyAxNC4yNmgtOS4yOHoiLz48cGF0aCBmaWxsPSIjOGMzMTIzIiBkPSJNLTEyNTAgNDI1LjQybDU3Ljk4IDguNjJ2NS4wOGMwIDcuNTUtMjUuOTggMTMuNjUtNTggMTMuNjUtMzIgMC01Ny45OC02LjEtNTcuOTgtMTMuNjR2LTUuNTN6Ii8+PHBhdGggZmlsbD0iIzhjMzEyMyIgZD0iTS0xMjQ5Ljk4IDQ2Mi4xM2MyNC4yIDAgNDQuOTMtMy41MyA1My41OC04LjVsMi44OC00Ljc4IDEuMTUtNC40djUuNDVsLTE5IDgxYzAgNS4wOC0xNy4zIDkuMS0zOC42IDkuMS0yMS4zMyAwLTM4LjYtNC4wMi0zOC42LTkuMWwtMTkuMDItODF2LTUuMzVsNC4zOCA5LjI3YzguNzYgNC44NyAyOS4yNyA4LjMgNTMuMjQgOC4zeiIvPjxwYXRoIGZpbGw9IiNlMDUyNDMiIGQ9Ik0tMTI1MCA0MjBjMzIgMCA1OCA2LjEyIDU4IDEzLjYyIDAgNy41LTI2IDEzLjU3LTU4IDEzLjU3cy01OC02LjAyLTU4LTEzLjU4YzAtNy41NiAyNi0xMy42MiA1OC0xMy42MnoiLz48cGF0aCBmaWxsPSIjZTA1MjQzIiBkPSJNLTEyNTAgNDU2LjZjMjkuODQgMCA1NC40LTUuMiA1Ny42Mi0xMi4wNmwtMTkuMDIgODFjMCA1LjA1LTE3LjI4IDkuMS0zOC42IDkuMS0yMS4zMyAwLTM4LjYtNC4wNS0zOC42LTkuMWwtMTkuMDMtODFjMy4yMyA2Ljg1IDI3Ljc4IDEyLjA3IDU3LjYyIDEyLjA3eiIvPjxwYXRoIGZpbGw9IiNmZmYiIGQ9Ik0tMTI2My42NSA0NjQuMzhoMjUuMXYyNC45NmgtMjUuMXYtMjQuOTZ6TS0xMjcxLjI0IDQ5OC4xN2M2LjgzIDAgMTIuMzggNS41IDEyLjM4IDEyLjMgMCA2LjgtNS41NSAxMi4zLTEyLjM4IDEyLjMtNi44NCAwLTEyLjQtNS41LTEyLjQtMTIuMyAwLTYuOCA1LjU2LTEyLjMgMTIuNC0xMi4zek0tMTIxOS4yIDUyMi4yaC0yNC44bDEyLjQtMjIuOTQgMTIuNCAyMi45NHoiLz48dXNlIHRyYW5zZm9ybT0ibWF0cml4KDEsMCwwLDEsLTEzMDgsNTQwKSB0cmFuc2xhdGUoLTcuMzA4NjQxOTc1MzA4NjQ2IDE3Ljc3Nzc3Nzc3Nzc3Nzc4KSIgeGxpbms6aHJlZj0iI3MiLz48cGF0aCBmaWxsPSJub25lIiBzdHJva2Utd2lkdGg9IjIiIHN0cm9rZT0iIzVlNWU1ZSIgZD0iTS02NjAgMTQ3LjVWMTIyYTYgNiAwIDAgMC02LTZoLTEyM2E2IDYgMCAwIDEtNi02di04Ii8+PHBhdGggZmlsbD0iIzVlNWU1ZSIgc3Ryb2tlLXdpZHRoPSIuMDUiIHN0cm9rZT0iIzVlNWU1ZSIgZD0iTS02NTkuMDIgMTQ4LjUzbC0uOTctLjAzLS45OC4wMnYtMS4wNWgxLjk2eiIvPjxwYXRoIGZpbGw9IiM1ZTVlNWUiIHN0cm9rZS13aWR0aD0iMiIgc3Ryb2tlPSIjNWU1ZTVlIiBkPSJNLTc5NSA4Ni43NGw0LjYzIDE0LjI2aC05LjI2eiIvPjxwYXRoIGZpbGw9IiNmZmYiIHN0cm9rZS13aWR0aD0iMyIgc3Ryb2tlPSIjNWU1ZTVlIiBkPSJNLTcxMCA2NGMwIDkuOTQtMzguMDYgMTgtODUgMThzLTg1LTguMDYtODUtMThWLTgwYzAtOS45NCAzOC4wNi0xOCA4NS0xOHM4NSA4LjA2IDg1IDE4eiIvPjxwYXRoIGZpbGw9Im5vbmUiIHN0cm9rZS13aWR0aD0iMyIgc3Ryb2tlPSIjNWU1ZTVlIiBkPSJNLTcxMC04MGMwIDkuOTQtMzguMDYgMTgtODUgMThzLTg1LTguMDYtODUtMTgiLz48dXNlIHRyYW5zZm9ybT0ibWF0cml4KDEsMCwwLDEsLTg3NSwtNTcpIHRyYW5zbGF0ZSgxNi41MTIzNDU2NzkwMTIzNCA3Mi4yMTUyNzc3Nzc3Nzc3NykiIHhsaW5rOmhyZWY9IiN0Ii8+PHBhdGggZmlsbD0iI2ZmZiIgc3Ryb2tlLXdpZHRoPSIzIiBzdHJva2U9IiM1ZTVlNWUiIGQ9Ik0tNDI1IDYyYzAgOS45NC0zOC4wNiAxOC04NSAxOHMtODUtOC4wNi04NS0xOFYtODJjMC05Ljk0IDM4LjA2LTE4IDg1LTE4czg1IDguMDYgODUgMTh6Ii8+PHBhdGggZmlsbD0ibm9uZSIgc3Ryb2tlLXdpZHRoPSIzIiBzdHJva2U9IiM1ZTVlNWUiIGQ9Ik0tNDI1LTgyYzAgOS45NC0zOC4wNiAxOC04NSAxOHMtODUtOC4wNi04NS0xOCIvPjx1c2UgdHJhbnNmb3JtPSJtYXRyaXgoMSwwLDAsMSwtNTkwLC01OSkgdHJhbnNsYXRlKDQuODQ1Njc5MDEyMzQ1Njg0IDcyLjIxNTI3Nzc3Nzc3Nzc3KSIgeGxpbms6aHJlZj0iI3UiLz48cGF0aCBmaWxsPSJub25lIiBzdHJva2Utd2lkdGg9IjIiIHN0cm9rZT0iIzVlNWU1ZSIgZD0iTS02NjAgMTQ3LjVWMTIxYTYgNiAwIDAgMSA2LTZoMTM4YTYgNiAwIDAgMCA2LTZ2LTkiLz48cGF0aCBmaWxsPSIjNWU1ZTVlIiBzdHJva2Utd2lkdGg9Ii4wNSIgc3Ryb2tlPSIjNWU1ZTVlIiBkPSJNLTY1OS4wMiAxNDguNTNsLS45Ny0uMDMtLjk4LjAydi0xLjA1aDEuOTZ6Ii8+PHBhdGggZmlsbD0iIzVlNWU1ZSIgc3Ryb2tlLXdpZHRoPSIyIiBzdHJva2U9IiM1ZTVlNWUiIGQ9Ik0tNTEwIDg0Ljc0bDQuNjMgMTQuMjZoLTkuMjZ6Ii8+PHBhdGggZmlsbD0ibm9uZSIgc3Ryb2tlLXdpZHRoPSIyIiBzdHJva2U9IiM1ZTVlNWUiIGQ9Ik0tOTk0LjEtMTU1LjY3SC04MDFhNiA2IDAgMCAxIDYgNlYtMTE4TS05OTQuMDYtMTU1LjY3aC0xLjAzIi8+PHBhdGggZmlsbD0iIzVlNWU1ZSIgc3Ryb2tlLXdpZHRoPSIyIiBzdHJva2U9IiM1ZTVlNWUiIGQ9Ik0tNzk1LTEwMi43NGwtNC42My0xNC4yNmg5LjI2eiIvPjxwYXRoIGZpbGw9IiM5ZDUwMjUiIGQ9Ik0tOTg1LTIwNy42NGMwIDMxLjgtMjUuNzYgNTcuNjMtNTcuNSA1Ny42M3MtNTcuNS0yNS44My01Ny41LTU3LjY0YzAtMzEuOCAyNS43Ni01Ny42MyA1Ny41LTU3LjYzczU3LjUgMjUuODIgNTcuNSA1Ny42M3oiLz48cGF0aCBmaWxsPSIjOWQ1MDI1IiBkPSJNLTExMDAtMjEyLjM4aDExNXY0LjczaC0xMTV2LTQuNzN6Ii8+PHBhdGggZmlsbD0iI2Y1ODUzNiIgZD0iTS05ODUtMjEyLjM3YzAgMzEuOC0yNS43NiA1Ny42My01Ny41IDU3LjYzcy01Ny41LTI1LjgyLTU3LjUtNTcuNjNjMC0zMS44IDI1Ljc2LTU3LjYzIDU3LjUtNTcuNjNzNTcuNSAyNS44MiA1Ny41IDU3LjYzeiIvPjxwYXRoIGZpbGw9IiNmZmYiIGQ9Ik0tMTAwNS4xLTE4NC4wNGwtNC40OC0xMS43OC05Ljk3IDMuODItMTQuMjMtMzcuNDItMy45Ny0xMC4zMy0xLjg4LTQuOS0yLjktNy42NWgtMTguOTJ2MTIuNTVoMTAuMjZsMy42MyA5LjM0LTI5Ljc2IDUzLjAyaDE0LjM3bDIxLjE2LTM3LjggMTUuMDMgMzkuNCAzLjYtMS4zNyA4LjEtMy4wNiA5Ljk3LTMuODR6Ii8+PHVzZSB0cmFuc2Zvcm09Im1hdHJpeCgxLDAsMCwxLC0xMTAwLC0xNTApIHRyYW5zbGF0ZSgtNDYuNjM1ODAyNDY5MTM1NzggMTcuNzc3Nzc3Nzc3Nzc3NzgpIiB4bGluazpocmVmPSIjdiIvPjxwYXRoIGZpbGw9Im5vbmUiIHN0cm9rZS13aWR0aD0iMiIgc3Ryb2tlPSIjNWU1ZTVlIiBkPSJNLTEzMzAgMTE3LjVWLTE5NGE2IDYgMCAwIDEgNi02aDIwNi4wNSIvPjxwYXRoIGZpbGw9IiM1ZTVlNWUiIHN0cm9rZS13aWR0aD0iLjA1IiBzdHJva2U9IiM1ZTVlNWUiIGQ9Ik0tMTMyOS4wMyAxMTguNTNsLS45Ni0uMDMtLjk3LjAydi0xLjA1aDEuOTR6Ii8+PHBhdGggZmlsbD0iIzVlNWU1ZSIgc3Ryb2tlLXdpZHRoPSIyIiBzdHJva2U9IiM1ZTVlNWUiIGQ9Ik0tMTEwMi42OC0yMDBsLTE0LjI3IDQuNjN2LTkuMjZ6Ii8+PHBhdGggZmlsbD0iIzVlNWU1ZSIgc3Ryb2tlLXdpZHRoPSIuMDUiIHN0cm9rZT0iIzVlNWU1ZSIgZD0iTS0xMjc5LjAzLTQyMGgtMS45NHYtMTk5LjMzaDEuOTR6TS0xNDQ5LTYyOS4wMlYtNjMxaDgwLjY0djEuOTZ6Ii8+PHBhdGggZmlsbD0iIzVlNWU1ZSIgZD0iTS0xNDQ4Ljk3LTYyOS4wMmgtMS4wM1YtNjMxaDEuMDN6Ii8+PHBhdGggZmlsbD0iIzVlNWU1ZSIgc3Ryb2tlLXdpZHRoPSIuMDUiIHN0cm9rZT0iIzVlNWU1ZSIvPjxwYXRoIGZpbGw9IiM1ZTVlNWUiIGQ9Ik0tMTI4MC00MDQuNzRsLTQuNjMtMTQuMjZoOS4yN3oiLz48cGF0aCBmaWxsPSIjNWU1ZTVlIiBzdHJva2Utd2lkdGg9Ii4wNSIgc3Ryb2tlPSIjNWU1ZTVlIiBkPSJNLTEyODAtNDAxLjU4bC01Ljk4LTE4LjRoMTEuOTZ6bS0zLjMtMTYuNDVsMy4zIDEwLjE0IDMuMy0xMC4xM3oiLz48dXNlIHRyYW5zZm9ybT0ibWF0cml4KDEsMCwwLDEsLTEzNjguMzU5NzkyNzgzODQ2OCwtNjQwLjY2NjY2NjY2NjY2NjYpIHRyYW5zbGF0ZSgwLjAwNDk5OTk5OTk5OTk5NTQ1MjUgMTQuMjIyMjIyMjIyMjIyMjIzKSIgeGxpbms6aHJlZj0iI3ciLz48dXNlIHRyYW5zZm9ybT0ibWF0cml4KDEsMCwwLDEsLTEzNjguMzU5NzkyNzgzODQ2OCwtNjQwLjY2NjY2NjY2NjY2NjYpIHRyYW5zbGF0ZSg2Ny4wMTczNDU2NzkwMTIzNSAxNC4yMjIyMjIyMjIyMjIyMjMpIiB4bGluazpocmVmPSIjeCIvPjxwYXRoIGZpbGw9Im5vbmUiIHN0cm9rZS13aWR0aD0iMiIgc3Ryb2tlPSIjNWU1ZTVlIiBkPSJNLTk4NC4xLTIwNS42N0gtNTE2YTYgNiAwIDAgMSA2IDZWLTEyMCIvPjxwYXRoIGZpbGw9IiM1ZTVlNWUiIHN0cm9rZS13aWR0aD0iLjA1IiBzdHJva2U9IiM1ZTVlNWUiIGQ9Ik0tOTg0LjA2LTIwNC43aC0xLjA3bC4xLTEuOTVoLjk3eiIvPjxwYXRoIGZpbGw9IiM1ZTVlNWUiIHN0cm9rZS13aWR0aD0iMiIgc3Ryb2tlPSIjNWU1ZTVlIiBkPSJNLTUxMC0xMDQuNzRsLTQuNjMtMTQuMjZoOS4yNnoiLz48cGF0aCBmaWxsPSIjY2MyMjY0IiBzdHJva2Utb3BhY2l0eT0iMCIgc3Ryb2tlPSIjZmZmIiBkPSJNLTIwODAtNTQwaDEyMHYxMjBoLTEyMHYtMTIweiIvPjxwYXRoIGZpbGw9IiNmZmYiIHN0cm9rZS1vcGFjaXR5PSIwIiBzdHJva2U9IiNmZmYiIGQ9Ik0tMjAyOS42Mi00NjMuMmgtMTcuNmMtMS44NC0uMDUtMy40NC0uNTMtNS4wNC0xLjQ4LTUuMDQtMy4xMi03Ljg0LTguMy03Ljc2LTE0LjI3LS4zMi02LjggMy45Mi0xMi43MyAxMC40LTE0LjYzdi0xLjI3Yy4yNC04LjUgNC44LTE1LjcgMTIuNTYtMTkuMzQgOC4yNC0zLjYzIDE3LjM3LTEuODQgMjMuNiA0LjcgMi4xNyAyLjE4IDMuNiA0LjMgNC44IDcuMDQgMS43Ny0xLjM3IDMuNy0yLjA2IDUuOTMtMi4wNiA0LjMyIDAgOS4yOCAzLjI4IDEwLjE2IDEwLjUyIDQuMDggMSAxMi41NiA0LjMzIDEyLjU2IDE1LjIuMjMgNS43Mi0yLjU3IDEwLjc0LTcuNiAxMy40M2wtMS42LTIuOGM0LTIuMTYgNi4xNS02LjEzIDUuOS0xMC42MiAwLTkuNC03Ljc1LTExLjcyLTExLjItMTIuMy0uNC0uMS0uOC0uMy0xLjAzLS43LS4yNC0uMy0uMzItLjcyLS4yNC0xLjE1LS40OC01LjgtMy44NC04LjQtNy4wNC04LjQtMi4xNy4wNS0zLjkzIDEtNS4yIDIuNzUtLjMzLjQ3LS45LjctMS41My42My0uNTYtLjEtMS4wNC0uNDctMS4yOC0xLjA1LTEuMDUtMy4yMy0yLjY1LTUuNzYtNC45OC04LjItNS4zNi01LjUtMTMuMDQtNy4wMi0yMC4wOC0zLjk2LTYuNCAzLjEyLTEwLjMyIDkuMTQtMTAuNTYgMTYuMjggMCAuOC4wOCAxLjQ4LjE2IDIuMjIuMDguODQtLjQ4IDEuNjMtMS4yOCAxLjgtNS42OCAxLjE1LTkuNiA2LjE4LTkuMjggMTEuOTMtLjE2IDQuODcgMi4xNiA5LjA0IDYuMzIgMTEuNTIgMS4wNC43IDIuMDggMSAzLjI4IDFoMTcuNnoiLz48cGF0aCBmaWxsPSIjZmZmIiBzdHJva2Utb3BhY2l0eT0iMCIgc3Ryb2tlPSIjZmZmIiBkPSJNLTE5ODEuNzctNDUzLjZsLTExLjM4LTExLjRjMi4xOC00Ljg2IDIuMDUtOS45LS4zNy0xNC42NC00LjI4LTguMzUtMTQuNTMtMTEuNjgtMjIuODYtNy4zNy04LjMzIDQuMjYtMTEuNjYgMTQuNS03LjM4IDIyLjggNC4yOCA4LjM1IDE0LjQ4IDExLjY3IDIyLjg2IDcuNGwxMS4yIDExLjE4YzEuMSAxLjEzIDIuNDIgMS42MiAzLjk3IDEuNjIgMS41NSAwIDIuOS0uNSA0LTEuNjJoLjA1YzIuMTQtMi4yNCAyLjE0LTUuOC0uMS04em0tMjYuODctNC41NGMtNy42IDAtMTMuNzUtNi4xNS0xMy43NS0xMy43NCAwLTcuNTggNi4xNi0xMy43NCAxMy43Ni0xMy43NHMxMy43NiA2LjE2IDEzLjc2IDEzLjc0YzAgNy42LTYuMTUgMTMuNzQtMTMuNzYgMTMuNzR6bTI0LjY0IDEwLjI0Yy0uOTYuOS0yLjUuOS0zLjQ2IDBsLTEwLjY2LTEwLjdjMS4zNy0xLjA3IDIuNC0yLjE0IDMuNDItMy41OGwxMC43IDEwLjgyYy45NS45NC45NSAyLjQ3IDAgMy40NnoiLz48cGF0aCBmaWxsPSIjZmZmIiBzdHJva2Utb3BhY2l0eT0iMCIgc3Ryb2tlPSIjZmZmIiBkPSJNLTIwMDQuMjQtNDc5LjNsLTEuOSAyLjU2Yy0xLjItLjg4LTIuNTMtMS4yLTQtMS0yLjk0LjQzLTQuOTggMy4xOC00LjU0IDYuMTIuMiAxLjUuOSAyLjczIDIuMTMgMy42MmwtMS44NSAyLjVjLTMuNzYtMi45LTQuNDctOC4zLTEuNTctMTIuMDUgMi44Mi0zLjY3IDguMDItNC40NiAxMS44LTEuNzZ6Ii8+PHVzZSB0cmFuc2Zvcm09Im1hdHJpeCgxLDAsMCwxLC0yMTA5Ljk5OTk5OTk5OTk5OSwtNDExKSB0cmFuc2xhdGUoOTAgMTcuNzc3Nzc3Nzc3Nzc3NzgpIiB4bGluazpocmVmPSIjeSIvPjxwYXRoIGZpbGw9IiM1ZTVlNWUiIHN0cm9rZS13aWR0aD0iLjA1IiBzdHJva2U9IiM1ZTVlNWUiIGQ9Ik0tMjAxOS4wMy0yMDYuMDRsLjA3LjgzLjE4Ljc1LjMuNzMuNDIuNjcuNS42LjYuNS42OC40Mi43My4zLjc2LjIuODQuMDZoNzUuOXYxLjk0aC03NS45OGwtMS4wNS0uMDgtMS4wNi0uMjYtMS0uNDItLjk0LS41Ny0uODMtLjcyLS43LS44My0uNi0uOTMtLjQtMS0uMjYtMS4wOC0uMDctMS4wNlYtNDAxLjVoMS45NHptMzU2LjUzIDUuMDZ2MS45NWgtMjMzLjIzdi0xLjk0eiIvPjxwYXRoIGZpbGw9IiM1ZTVlNWUiIGQ9Ik0tMTY2MS41LTE5OS4wM2gtMS4wM3YtMS45NGgxLjAzeiIvPjxwYXRoIGZpbGw9IiM1ZTVlNWUiIHN0cm9rZS13aWR0aD0iLjA1IiBzdHJva2U9IiM1ZTVlNWUiLz48cGF0aCBmaWxsPSIjNWU1ZTVlIiBkPSJNLTIwMTUuMzctNDAyLjVoLTkuMjdsNC42NC0xNC4yNnoiLz48cGF0aCBmaWxsPSIjNWU1ZTVlIiBzdHJva2Utd2lkdGg9Ii4wNSIgc3Ryb2tlPSIjNWU1ZTVlIiBkPSJNLTIwMTQuMDItNDAxLjUyaC0xMS45Nmw1Ljk4LTE4LjR6bS05LjI3LTEuOTVoNi42bC0zLjMtMTAuMTR6Ii8+PHVzZSB0cmFuc2Zvcm09Im1hdHJpeCgxLDAsMCwxLC0xOTM4LjA0ODQ0MzA1Njg2NiwtMjEwLjY2NjY2NjY2NjY2NjY2KSB0cmFuc2xhdGUoMC4wMDQ5OTk5OTk5OTk5OTkwMDUgMTQuMjIyMjIyMjIyMjIyMjIzKSIgeGxpbms6aHJlZj0iI3oiLz48cGF0aCBmaWxsPSIjMmU3M2I4IiBkPSJNODAgMTg1LjNsLTE1LTE5LjUtMjEuMTYgNjQuMTZMNjUgMjk0LjFsMTUtMTkuNXYtODkuM3oiLz48cGF0aCBmaWxsPSIjNTI5NGNmIiBkPSJNMzguNzUgMzEwTDY1IDI5NC4xNlYxNjUuODRMMzguNzQgMTUwIDcuNTggMjMwbDMxLjE3IDgweiIvPjxwYXRoIGZpbGw9IiMyZTczYjgiIGQ9Ik0xLjI0IDMxMGgzNy41VjE1MEgxLjI0bC0yMi41IDgwIDIyLjUgODB6Ii8+PHBhdGggZmlsbD0iIzIwNWI5OSIgZD0iTS0yNSAyOTQuMTZMMS4yMyAzMTBWMTUwTC0yNSAxNjUuODQtMzYuNjIgMjMwLTI1IDI5NC4xNnoiLz48cGF0aCBmaWxsPSIjMTk0ODZmIiBkPSJNLTQwIDI3NC42bDE1IDE5LjVWMTY1LjhsLTE1IDE5LjV2ODkuM3oiLz48dXNlIHRyYW5zZm9ybT0ibWF0cml4KDEsMCwwLDEsLTQwLDMxMCkgdHJhbnNsYXRlKDM2LjYwNDkzODI3MTYwNDk0IDE3Ljc3Nzc3Nzc3Nzc3Nzc4KSIgeGxpbms6aHJlZj0iI0EiLz48dXNlIHRyYW5zZm9ybT0ibWF0cml4KDEsMCwwLDEsLTQwLDMxMCkgdHJhbnNsYXRlKC0wLjA2MTcyODM5NTA2MTczNDg4NiA0NC40NDQ0NDQ0NDQ0NDQ0NCkiIHhsaW5rOmhyZWY9IiNCIi8+PHBhdGggZmlsbD0ibm9uZSIgc3Ryb2tlLXdpZHRoPSIyIiBzdHJva2U9IiM1ZTVlNWUiIGQ9Ik0tNTcyLjUgMjQwaDE3NCIvPjxwYXRoIGZpbGw9IiM1ZTVlNWUiIHN0cm9rZS13aWR0aD0iLjA1IiBzdHJva2U9IiM1ZTVlNWUiIGQ9Ik0tNTcyLjQ3IDI0MC45N2gtMS4wM3YtMS45NGgxLjAzeiIvPjxwYXRoIGZpbGw9IiM1ZTVlNWUiIHN0cm9rZS13aWR0aD0iMiIgc3Ryb2tlPSIjNWU1ZTVlIiBkPSJNLTM4My4yNCAyNDBsLTE0LjI2IDQuNjN2LTkuMjZ6Ii8+PHBhdGggZmlsbD0ibm9uZSIgc3Ryb2tlLXdpZHRoPSIyIiBzdHJva2U9IiM1ZTVlNWUiIGQ9Ik0tMjgwIDI0MGgyMjEuNSIvPjxwYXRoIGZpbGw9IiM1ZTVlNWUiIHN0cm9rZS13aWR0aD0iLjA1IiBzdHJva2U9IiM1ZTVlNWUiIGQ9Ik0tMjc5Ljk4IDI0MC45N0gtMjgxdi0xLjk0aDEuMDJ6Ii8+PHBhdGggZmlsbD0iIzVlNWU1ZSIgc3Ryb2tlLXdpZHRoPSIyIiBzdHJva2U9IiM1ZTVlNWUiIGQ9Ik0tNDMuMjQgMjQwbC0xNC4yNiA0LjYzdi05LjI2eiIvPjxwYXRoIGZpbGw9IiM5ZDUwMjUiIGQ9Ik0zMDAgMjMwLjQ0YzAtMzEuODMgMjUuNzYtNTUuNzUgNTcuNS01NS43NXM1Ny41IDIzLjkgNTcuNSA1NS43NCIvPjxwYXRoIGZpbGw9IiM5ZDUwMjUiIGQ9Ik00MTUgMjMwLjQ0YzAgMzEuNzQtMjUuNzYgNTkuNTUtNTcuNSA1OS41NVMzMDAgMjYyLjE3IDMwMCAyMzAuNDMiLz48cGF0aCBmaWxsPSIjZjU4NTM2IiBkPSJNMzU3LjUgMTcwYy0zMS43NCAwLTU3LjUgMjMuOTgtNTcuNSA1NS44IDAgMzEuNyAyNS43NiA1OS41IDU3LjUgNTkuNXM1Ny41LTI3LjY4IDU3LjUtNTkuNWMwLTMxLjkzLTI1Ljc2LTU1LjgtNTcuNS01NS44eiIvPjxwYXRoIGZpbGw9IiNmZmYiIGQ9Ik0zNjYuOTIgMjI3LjQ4di03LjM1Yy0uNS00LjQtMy44NS03Ljc0LTguMjQtOC4yOC01LjItLjYtOS45IDMuMS0xMC41IDguMjh2Ny4zNWgtNC44NnYxNi4yN2gyOC4zNHYtMTYuMjd6bS00LjYgMGgtOS42MnYtNy4zNWMwLTIuNSAyLTQuNSA0LjQ4LTQuNWwuMy4wMmMyLjYtLjEgNC43NCAxLjkyIDQuODUgNC40OHoiLz48cGF0aCBmaWxsPSIjZmJiZjkzIiBkPSJNMzI2LjMgMTk0LjVoOS40NXY2Ni4zaC05LjQ0di02Ni4zek0zNzkuMjIgMTk0LjVoOS40NHY2Ni4zaC05LjQ0di02Ni4zeiIvPjxwYXRoIGZpbGw9IiNmZmYiIGQ9Ik0zMTMuMSAyMzEuMjZ2NC45bDkuNDMtNy41Ny05LjQ0LTcuNnY0Ljk0TTQwMS45IDIyNS45NFYyMjFsLTkuNDUgNy42IDkuNDQgNy41N3YtNC45Ii8+PHVzZSB0cmFuc2Zvcm09Im1hdHJpeCgxLDAsMCwxLDMwMCwyOTAuMDAwMDAwMDAwMDAwMSkgdHJhbnNsYXRlKDIyLjM3NjU0MzIwOTg3NjU0NCAxNy43Nzc3Nzc3Nzc3Nzc3OCkiIHhsaW5rOmhyZWY9IiNDIi8+PHVzZSB0cmFuc2Zvcm09Im1hdHJpeCgxLDAsMCwxLDMwMCwyOTAuMDAwMDAwMDAwMDAwMSkgdHJhbnNsYXRlKDY3LjkzMjA5ODc2NTQzMjEgMTcuNzc3Nzc3Nzc3Nzc3NzgpIiB4bGluazpocmVmPSIjRCIvPjx1c2UgdHJhbnNmb3JtPSJtYXRyaXgoMSwwLDAsMSwzMDAsMjkwLjAwMDAwMDAwMDAwMDEpIHRyYW5zbGF0ZSg4Ljc5NjI5NjI5NjI5NjMwNSA0NC40NDQ0NDQ0NDQ0NDQ0NCkiIHhsaW5rOmhyZWY9IiNFIi8+PHVzZSB0cmFuc2Zvcm09Im1hdHJpeCgxLDAsMCwxLDMwMCwyOTAuMDAwMDAwMDAwMDAwMSkgdHJhbnNsYXRlKDgxLjUxMjM0NTY3OTAxMjM0IDQ0LjQ0NDQ0NDQ0NDQ0NDQ0KSIgeGxpbms6aHJlZj0iI0QiLz48dXNlIHRyYW5zZm9ybT0ibWF0cml4KDEsMCwwLDEsMzAwLDI5MC4wMDAwMDAwMDAwMDAxKSB0cmFuc2xhdGUoMjIuMzE0ODE0ODE0ODE0ODE3IDcxLjExMTExMTExMTExMTExKSIgeGxpbms6aHJlZj0iI0YiLz48dXNlIHRyYW5zZm9ybT0ibWF0cml4KDEsMCwwLDEsMzAwLDI5MC4wMDAwMDAwMDAwMDAxKSB0cmFuc2xhdGUoMTMuMTQ4MTQ4MTQ4MTQ4MTUyIDk3Ljc3Nzc3Nzc3Nzc3Nzc3KSIgeGxpbms6aHJlZj0iI0ciLz48dXNlIHRyYW5zZm9ybT0ibWF0cml4KDEsMCwwLDEsMzAwLDI5MC4wMDAwMDAwMDAwMDAxKSB0cmFuc2xhdGUoNzcuMTYwNDkzODI3MTYwNSA5Ny43Nzc3Nzc3Nzc3Nzc3NykiIHhsaW5rOmhyZWY9IiNEIi8+PHVzZSB0cmFuc2Zvcm09Im1hdHJpeCgxLDAsMCwxLDMwMCwyOTAuMDAwMDAwMDAwMDAwMSkgdHJhbnNsYXRlKDQxLjQ4MTQ4MTQ4MTQ4MTQ4IDEyNC40NDQ0NDQ0NDQ0NDQ0NikiIHhsaW5rOmhyZWY9IiNIIi8+PHBhdGggZmlsbD0iIzlkNTAyNSIgZD0iTS0zODAgMjY1LjE3bDYuMyAzLjE1IDExLjEzLTM4LjI1LTExLjE0LTM4LjQtNi4zIDMuMTR2NzAuMzd6Ii8+PHBhdGggZmlsbD0iI2Y1ODUzNiIgZD0iTS0zNjEuNTIgMTk0LjU1bC0xMi4xOC0yLjgzdjc2LjZsMTIuMTgtMi44NHYtNzAuOTN6Ii8+PHBhdGggZmlsbD0iIzlkNTAyNSIgZD0iTS0zNjYuMTMgMTg3LjlsOS4yNS00LjcgMTEuNTQgNDYuODgtMTEuNTQgNDYuNjgtOS4yNS00LjY3di04NC4yeiIvPjxwYXRoIGZpbGw9IiNmNTg1MzYiIGQ9Ik0tMzM3Ljk0IDI3MC41bC0xOC45MyA2LjA4VjE4My4ybDE4Ljk0IDYuMDh2ODEuMjN6Ii8+PHBhdGggZmlsbD0iIzlkNTAyNSIgZD0iTS0yOTQuOSAxOTkuNjNoNy41NnY1OC4yM2wtNy41Ny0uNHYtNTcuODN6Ii8+PHBhdGggZmlsbD0iIzZiM2ExOSIgZD0iTS0zMjQuMyAyMDAuNDdsOC41LTQuNCAyNy44NyAzLjU2LjgyIDcuNDYtNy42MyAxLjA2LTI5LjU4LTcuN3oiLz48cGF0aCBmaWxsPSIjZmJiZjkzIiBkPSJNLTMyNC4wNiAyNTkuNWw4LjQ4IDQuNCAyOC43LTExLTcuNjItMS4wNy0yOS41NiA3LjY4eiIvPjxwYXRoIGZpbGw9IiM5ZDUwMjUiIGQ9Ik0tMzIxLjkyIDI0Ny4xNWwxNS4xNyAyLjA0di0zOC40bC0xNS4xNyAyLjAzdjM0LjMyeiIvPjxwYXRoIGZpbGw9IiM5ZDUwMjUiIGQ9Ik0tMzQ1LjM0IDI4Mi41NmwxNC44IDcuNDQgMTIuNzItNjAuMTItMTIuNy01OS44OC0xNC44MiA3LjQ0djEwNS4xMnoiLz48cGF0aCBmaWxsPSIjZjU4NTM2IiBkPSJNLTMzMC41IDE3MHYxMjBsNDkuNS0yNC44NHYtNzAuMzJ6bTQzLjE1IDgzLjA0bC0yOC4zNiA4LjUydi02My4xMmwyOC4zNSA4LjUyeiIvPjxwYXRoIGZpbGw9IiNmNTg1MzYiIGQ9Ik0tMzA2Ljc1IDIxMC44djM4LjVsMTUuNzgtMTkuMjUtMTUuNzgtMTkuMjV6Ii8+PHVzZSB0cmFuc2Zvcm09Im1hdHJpeCgxLDAsMCwxLC0zODAsMjkwKSB0cmFuc2xhdGUoMjQuNjIzNDU2NzkwMTIzNDYzIDE3Ljc3Nzc3Nzc3Nzc3Nzc4KSIgeGxpbms6aHJlZj0iI0kiLz48dXNlIHRyYW5zZm9ybT0ibWF0cml4KDEsMCwwLDEsLTM4MCwyOTApIHRyYW5zbGF0ZSg5LjQwNzQwNzQwNzQwNzQwNSA0NC40NDQ0NDQ0NDQ0NDQ0NCkiIHhsaW5rOmhyZWY9IiNKIi8+PHBhdGggZmlsbD0iIzhjMzEyMyIgZD0iTS0xNjguMDMtNDc2LjI4YzAgMzEuMDctMjUuMyA1Ni4yOC01Ni41IDU2LjI4LTMxLjE3IDAtNTYuNDctMjUuMi01Ni40Ny01Ni4yOCAwLTMxLjA3IDI1LjMtNTYuMjggNTYuNDgtNTYuMjggMzEuMTggMCA1Ni41IDI1LjIgNTYuNSA1Ni4yOHoiLz48cGF0aCBmaWxsPSIjOGMzMTIzIiBkPSJNLTI4MS00ODMuNzNoMTEzdjcuNDNoLTExM3YtNy40M3oiLz48cGF0aCBmaWxsPSIjZTA1MjQzIiBkPSJNLTE2OC4wMy00ODMuNzNjMCAzMS4wNy0yNS4zIDU2LjI4LTU2LjUgNTYuMjgtMzEuMTcgMC01Ni40Ny0yNS4yLTU2LjQ3LTU2LjI4IDAtMzEuMDYgMjUuMy01Ni4yNyA1Ni40OC01Ni4yNyAzMS4xOCAwIDU2LjUgMjUuMiA1Ni41IDU2LjI3eiIvPjxnPjx1c2UgdHJhbnNmb3JtPSJtYXRyaXgoMSwwLDAsMSwtMjgxLC00MjApIHRyYW5zbGF0ZSgxOS41NTU1NTU1NTU1NTU1NTcgMTcuNzc3Nzc3Nzc3Nzc3NzgpIiB4bGluazpocmVmPSIjSyIvPjx1c2UgdHJhbnNmb3JtPSJtYXRyaXgoMSwwLDAsMSwtMjgxLC00MjApIHRyYW5zbGF0ZSg1NC4wNjE3MjgzOTUwNjE3MyAxNy43Nzc3Nzc3Nzc3Nzc3OCkiIHhsaW5rOmhyZWY9IiNMIi8+PHVzZSB0cmFuc2Zvcm09Im1hdHJpeCgxLDAsMCwxLC0yODEsLTQyMCkgdHJhbnNsYXRlKDE3Ljc2NTQzMjA5ODc2NTQzIDQ0LjQ0NDQ0NDQ0NDQ0NDQ0KSIgeGxpbms6aHJlZj0iI00iLz48L2c+PHBhdGggZmlsbD0ibm9uZSIgc3Ryb2tlLXdpZHRoPSIyIiBzdHJva2U9IiM1ZTVlNWUiIGQ9Ik0tMjI0LjUtNDE5djI4OGE2IDYgMCAwIDEtNiA2aC05NGE2IDYgMCAwIDAtNiA2djI3MC41Ii8+PHBhdGggZmlsbD0iIzVlNWU1ZSIgc3Ryb2tlLXdpZHRoPSIuMDUiIHN0cm9rZT0iIzVlNWU1ZSIgZD0iTS0yMjQuNTItNDIwbDEtLjAzdjEuMDVoLTEuOTV2LTEuMDZ6Ii8+PHBhdGggZmlsbD0iIzVlNWU1ZSIgc3Ryb2tlLXdpZHRoPSIyIiBzdHJva2U9IiM1ZTVlNWUiIGQ9Ik0tMzMwLjUgMTY2Ljc3bC00LjYzLTE0LjI3aDkuMjZ6Ii8+PHBhdGggZmlsbD0ibm9uZSIgc3Ryb2tlLXdpZHRoPSIyIiBzdHJva2U9IiM1ZTVlNWUiIGQ9Ik0tMjgxLjk4LTQ3NS43aC04MDYuM2E2IDYgMCAwIDAtNiA2djQ5LjciLz48cGF0aCBmaWxsPSIjNWU1ZTVlIiBzdHJva2Utd2lkdGg9Ii4wNSIgc3Ryb2tlPSIjNWU1ZTVlIiBkPSJNLTI4MS00NzYuM3YuMDJsLjA1IDEuNTVILTI4MnYtMS45NWgxeiIvPjxwYXRoIGZpbGw9IiM1ZTVlNWUiIHN0cm9rZS13aWR0aD0iMiIgc3Ryb2tlPSIjNWU1ZTVlIiBkPSJNLTEwOTQuMjgtNDA0Ljc0bC00LjY0LTE0LjI2aDkuMjd6Ii8+PHBhdGggZmlsbD0ibm9uZSIgc3Ryb2tlLXdpZHRoPSIyIiBzdHJva2U9IiM1ZTVlNWUiIGQ9Ik02ODYuODcgMjAwLjEzSDU1Ni41NWE2IDYgMCAwIDAtNiA2VjIzNGE2IDYgMCAwIDEtNiA2aC0xMTIuOE02ODYuODQgMjAwLjEzaDEuMDMiLz48cGF0aCBmaWxsPSIjNWU1ZTVlIiBzdHJva2Utd2lkdGg9IjIiIHN0cm9rZT0iIzVlNWU1ZSIgZD0iTTQxNi40NyAyNDBsMTQuMjctNC42M3Y5LjI2eiIvPjxwYXRoIGZpbGw9Im5vbmUiIHN0cm9rZS13aWR0aD0iMiIgc3Ryb2tlPSIjNWU1ZTVlIiBkPSJNMzAwLjc2IDI0MEg5OC41Ii8+PHBhdGggZmlsbD0iIzVlNWU1ZSIgc3Ryb2tlLXdpZHRoPSIuMDUiIHN0cm9rZT0iIzVlNWU1ZSIgZD0iTTMwMS44NyAyNDAuNTNsLjE0LjQ0aC0xLjI2di0xLjk0aC44eiIvPjxwYXRoIGZpbGw9IiM1ZTVlNWUiIHN0cm9rZS13aWR0aD0iMiIgc3Ryb2tlPSIjNWU1ZTVlIiBkPSJNODMuMjIgMjQwbDE0LjI3LTQuNjN2OS4yNnoiLz48cGF0aCBmaWxsPSIjZmZmIiBzdHJva2Utd2lkdGg9IjMiIHN0cm9rZT0iIzVlNWU1ZSIgZD0iTTEwMC01NGE2IDYgMCAwIDEgNi02aDEzMmE2IDYgMCAwIDEgNiA2djk2Yy0yNC4wNS0xNy4wMy0zOS4wMi0xNy4wMy00OC4xLTE3LjAzLTE0LjQgMC0zMy41NSAxNy4wMy00Ny45NSAxNy4wMy04LjkzIDAtMjQuMDUgMC00Ny45NS0xNy4wM3oiLz48cGF0aCBmaWxsPSIjZmZmIiBzdHJva2Utd2lkdGg9IjMiIHN0cm9rZT0iIzVlNWU1ZSIgZD0iTTEwOC00NWE2IDYgMCAwIDEgNi02aDEzMmE2IDYgMCAwIDEgNiA2djk2Yy0yNC4wNS0xNy4wMy0zOS4wMi0xNy4wMy00OC4xLTE3LjAzLTE0LjQgMC0zMy41NSAxNy4wMy00Ny45NSAxNy4wMy04LjkzIDAtMjQuMDUgMC00Ny45NS0xNy4wM3oiLz48cGF0aCBmaWxsPSIjZmZmIiBzdHJva2Utd2lkdGg9IjMiIHN0cm9rZT0iIzVlNWU1ZSIgZD0iTTExNi0zNmE2IDYgMCAwIDEgNi02aDEzMmE2IDYgMCAwIDEgNiA2djk2Yy0yNC4wNS0xNy4wMy0zOS4wMi0xNy4wMy00OC4xLTE3LjAzLTE0LjQgMC0zMy41NSAxNy4wMy00Ny45NSAxNy4wMy04LjkzIDAtMjQuMDUgMC00Ny45NS0xNy4wM3oiLz48Zz48dXNlIHRyYW5zZm9ybT0ibWF0cml4KDEsMCwwLDEsMTIxLC0zNykgdHJhbnNsYXRlKDE2LjUgNDEuMjE1Mjc3Nzc3Nzc3NzgpIiB4bGluazpocmVmPSIjTiIvPjwvZz48ZGVmcz48cGF0aCBpZD0iTyIgZD0iTTk2LTE2OWMtNDAgMC00OCAzMy00OCA3M3M5IDc1IDQ4IDc1YzI0IDAgNDEtMTQgNDMtMzhsMzIgMmMtNiAzNy0zMSA2MS03NCA2MS01OSAwLTc2LTQxLTgyLTk5LTEwLTkzIDEwMS0xMzEgMTQ3LTY0IDQgNyA1IDE0IDcgMjJsLTMyIDNjLTQtMjEtMTYtMzUtNDEtMzUiLz48cGF0aCBpZD0iUCIgZD0iTTEwMC0xOTRjNjItMSA4NSAzNyA4NSA5OSAxIDYzLTI3IDk5LTg2IDk5UzE2LTM1IDE1LTk1YzAtNjYgMjgtOTkgODUtOTl6TTk5LTIwYzQ0IDEgNTMtMzEgNTMtNzUgMC00My04LTc1LTUxLTc1cy01MyAzMi01MyA3NSAxMCA3NCA1MSA3NSIvPjxwYXRoIGlkPSJRIiBkPSJNMTE3LTE5NGM4OS00IDUzIDExNiA2MCAxOTRoLTMydi0xMjFjMC0zMS04LTQ5LTM5LTQ4QzM0LTE2NyA2Mi02NyA1NyAwSDI1bC0xLTE5MGgzMGMxIDEwLTEgMjQgMiAzMiAxMS0yMiAyOS0zNSA2MS0zNiIvPjxwYXRoIGlkPSJSIiBkPSJNNTktNDdjLTIgMjQgMTggMjkgMzggMjJ2MjRDNjQgOSAyNyA0IDI3LTQwdi0xMjdINXYtMjNoMjRsOS00M2gyMXY0M2gzNXYyM0g1OXYxMjAiLz48cGF0aCBpZD0iUyIgZD0iTTEwMC0xOTRjNjMgMCA4NiA0MiA4NCAxMDZINDljMCA0MCAxNCA2NyA1MyA2OCAyNiAxIDQzLTEyIDQ5LTI5bDI4IDhjLTExIDI4LTM3IDQ1LTc3IDQ1QzQ0IDQgMTQtMzMgMTUtOTZjMS02MSAyNi05OCA4NS05OHptNTIgODFjNi02MC03Ni03Ny05Ny0yOC0zIDctNiAxNy02IDI4aDEwMyIvPjxwYXRoIGlkPSJUIiBkPSJNMjQtMjMxdi0zMGgzMnYzMEgyNHpNMjQgMHYtMTkwaDMyVjBIMjQiLz48cGF0aCBpZD0iVSIgZD0iTTg1LTE5NGMzMSAwIDQ4IDEzIDYwIDMzbC0xLTEwMGgzMmwxIDI2MWgtMzBjLTItMTAgMC0yMy0zLTMxQzEzNC04IDExNiA0IDg1IDQgMzIgNCAxNi0zNSAxNS05NGMwLTY2IDIzLTEwMCA3MC0xMDB6bTkgMjRjLTQwIDAtNDYgMzQtNDYgNzUgMCA0MCA2IDc0IDQ1IDc0IDQyIDAgNTEtMzIgNTEtNzYgMC00Mi05LTc0LTUwLTczIi8+PHBhdGggaWQ9IlYiIGQ9Ik0xMzUtMTQzYy0zLTM0LTg2LTM4LTg3IDAgMTUgNTMgMTE1IDEyIDExOSA5MFMxNyAyMSAxMC00NWwyOC01YzQgMzYgOTcgNDUgOTggMC0xMC01Ni0xMTMtMTUtMTE4LTkwLTQtNTcgODItNjMgMTIyLTQyIDEyIDcgMjEgMTkgMjQgMzUiLz48ZyBpZD0iYSI+PHVzZSB4bGluazpocmVmPSIjTyIgdHJhbnNmb3JtPSJtYXRyaXgoMC4wNjE3MjgzOTUwNjE3MjgzOSwwLDAsMC4wNjE3MjgzOTUwNjE3MjgzOSwwLDApIi8+PHVzZSB4bGluazpocmVmPSIjUCIgdHJhbnNmb3JtPSJtYXRyaXgoMC4wNjE3MjgzOTUwNjE3MjgzOSwwLDAsMC4wNjE3MjgzOTUwNjE3MjgzOSwxMS4xMTExMTExMTExMTExMSwwKSIvPjx1c2UgeGxpbms6aHJlZj0iI1EiIHRyYW5zZm9ybT0ibWF0cml4KDAuMDYxNzI4Mzk1MDYxNzI4MzksMCwwLDAuMDYxNzI4Mzk1MDYxNzI4MzksMjMuNDU2NzkwMTIzNDU2NzksMCkiLz48dXNlIHhsaW5rOmhyZWY9IiNSIiB0cmFuc2Zvcm09Im1hdHJpeCgwLjA2MTcyODM5NTA2MTcyODM5LDAsMCwwLjA2MTcyODM5NTA2MTcyODM5LDM1LjgwMjQ2OTEzNTgwMjQ3LDApIi8+PHVzZSB4bGluazpocmVmPSIjUyIgdHJhbnNmb3JtPSJtYXRyaXgoMC4wNjE3MjgzOTUwNjE3MjgzOSwwLDAsMC4wNjE3MjgzOTUwNjE3MjgzOSw0MS45NzUzMDg2NDE5NzUzMSwwKSIvPjx1c2UgeGxpbms6aHJlZj0iI1EiIHRyYW5zZm9ybT0ibWF0cml4KDAuMDYxNzI4Mzk1MDYxNzI4MzksMCwwLDAuMDYxNzI4Mzk1MDYxNzI4MzksNTQuMzIwOTg3NjU0MzIwOTksMCkiLz48dXNlIHhsaW5rOmhyZWY9IiNUIiB0cmFuc2Zvcm09Im1hdHJpeCgwLjA2MTcyODM5NTA2MTcyODM5LDAsMCwwLjA2MTcyODM5NTA2MTcyODM5LDY2LjY2NjY2NjY2NjY2NjY3LDApIi8+PHVzZSB4bGluazpocmVmPSIjVSIgdHJhbnNmb3JtPSJtYXRyaXgoMC4wNjE3MjgzOTUwNjE3MjgzOSwwLDAsMC4wNjE3MjgzOTUwNjE3MjgzOSw3MS41NDMyMDk4NzY1NDMyMiwwKSIvPjx1c2UgeGxpbms6aHJlZj0iI1AiIHRyYW5zZm9ybT0ibWF0cml4KDAuMDYxNzI4Mzk1MDYxNzI4MzksMCwwLDAuMDYxNzI4Mzk1MDYxNzI4MzksODMuODg4ODg4ODg4ODg4OSwwKSIvPjx1c2UgeGxpbms6aHJlZj0iI1YiIHRyYW5zZm9ybT0ibWF0cml4KDAuMDYxNzI4Mzk1MDYxNzI4MzksMCwwLDAuMDYxNzI4Mzk1MDYxNzI4MzksOTYuMjM0NTY3OTAxMjM0NTgsMCkiLz48L2c+PGcgaWQ9ImIiPjx1c2UgeGxpbms6aHJlZj0iI1UiIHRyYW5zZm9ybT0ibWF0cml4KDAuMDYxNzI4Mzk1MDYxNzI4MzksMCwwLDAuMDYxNzI4Mzk1MDYxNzI4MzksMCwwKSIvPjx1c2UgeGxpbms6aHJlZj0iI1MiIHRyYW5zZm9ybT0ibWF0cml4KDAuMDYxNzI4Mzk1MDYxNzI4MzksMCwwLDAuMDYxNzI4Mzk1MDYxNzI4MzksMTIuMzQ1Njc5MDEyMzQ1Njc5LDApIi8+PC9nPjxwYXRoIGlkPSJXIiBkPSJNMTE0LTE2M0MzNi0xNzkgNjEtNzIgNTcgMEgyNWwtMS0xOTBoMzBjMSAxMi0xIDI5IDIgMzkgNi0yNyAyMy00OSA1OC00MXYyOSIvPjxwYXRoIGlkPSJYIiBkPSJNMTA4IDBINzBMMS0xOTBoMzRMODktMjVsNTYtMTY1aDM0Ii8+PGcgaWQ9ImMiPjx1c2UgeGxpbms6aHJlZj0iI1YiIHRyYW5zZm9ybT0ibWF0cml4KDAuMDYxNzI4Mzk1MDYxNzI4MzksMCwwLDAuMDYxNzI4Mzk1MDYxNzI4MzksMCwwKSIvPjx1c2UgeGxpbms6aHJlZj0iI1MiIHRyYW5zZm9ybT0ibWF0cml4KDAuMDYxNzI4Mzk1MDYxNzI4MzksMCwwLDAuMDYxNzI4Mzk1MDYxNzI4MzksMTEuMTExMTExMTExMTExMTEsMCkiLz48dXNlIHhsaW5rOmhyZWY9IiNXIiB0cmFuc2Zvcm09Im1hdHJpeCgwLjA2MTcyODM5NTA2MTcyODM5LDAsMCwwLjA2MTcyODM5NTA2MTcyODM5LDIzLjQ1Njc5MDEyMzQ1Njc5LDApIi8+PHVzZSB4bGluazpocmVmPSIjWCIgdHJhbnNmb3JtPSJtYXRyaXgoMC4wNjE3MjgzOTUwNjE3MjgzOSwwLDAsMC4wNjE3MjgzOTUwNjE3MjgzOSwzMC44MDI0NjkxMzU4MDI0NywwKSIvPjx1c2UgeGxpbms6aHJlZj0iI1QiIHRyYW5zZm9ybT0ibWF0cml4KDAuMDYxNzI4Mzk1MDYxNzI4MzksMCwwLDAuMDYxNzI4Mzk1MDYxNzI4MzksNDEuOTEzNTgwMjQ2OTEzNTgsMCkiLz48dXNlIHhsaW5rOmhyZWY9IiNVIiB0cmFuc2Zvcm09Im1hdHJpeCgwLjA2MTcyODM5NTA2MTcyODM5LDAsMCwwLjA2MTcyODM5NTA2MTcyODM5LDQ2Ljc5MDEyMzQ1Njc5MDEzLDApIi8+PHVzZSB4bGluazpocmVmPSIjUCIgdHJhbnNmb3JtPSJtYXRyaXgoMC4wNjE3MjgzOTUwNjE3MjgzOSwwLDAsMC4wNjE3MjgzOTUwNjE3MjgzOSw1OS4xMzU4MDI0NjkxMzU4MDQsMCkiLz48dXNlIHhsaW5rOmhyZWY9IiNXIiB0cmFuc2Zvcm09Im1hdHJpeCgwLjA2MTcyODM5NTA2MTcyODM5LDAsMCwwLjA2MTcyODM5NTA2MTcyODM5LDcxLjQ4MTQ4MTQ4MTQ4MTQ4LDApIi8+PC9nPjxwYXRoIGlkPSJZIiBkPSJNMjEyLTE3OWMtMTAtMjgtMzUtNDUtNzMtNDUtNTkgMC04NyA0MC04NyA5OSAwIDYwIDI5IDEwMSA4OSAxMDEgNDMgMCA2Mi0yNCA3OC01MmwyNyAxNEMyMjgtMjQgMTk1IDQgMTM5IDQgNTkgNCAyMi00NiAxOC0xMjVjLTYtMTA0IDk5LTE1MyAxODctMTExIDE5IDkgMzEgMjYgMzkgNDYiLz48cGF0aCBpZD0iWiIgZD0iTTI0IDB2LTI2MWgzMlYwSDI0Ii8+PHBhdGggaWQ9ImFhIiBkPSJNODQgNEMtNSA4IDMwLTExMiAyMy0xOTBoMzJ2MTIwYzAgMzEgNyA1MCAzOSA0OSA3Mi0yIDQ1LTEwMSA1MC0xNjloMzFsMSAxOTBoLTMwYy0xLTEwIDEtMjUtMi0zMy0xMSAyMi0yOCAzNi02MCAzNyIvPjxnIGlkPSJkIj48dXNlIHhsaW5rOmhyZWY9IiNZIiB0cmFuc2Zvcm09Im1hdHJpeCgwLjA1LDAsMCwwLjA1LDAsMCkiLz48dXNlIHhsaW5rOmhyZWY9IiNaIiB0cmFuc2Zvcm09Im1hdHJpeCgwLjA1LDAsMCwwLjA1LDEyLjk1MDAwMDAwMDAwMDAwMSwwKSIvPjx1c2UgeGxpbms6aHJlZj0iI1AiIHRyYW5zZm9ybT0ibWF0cml4KDAuMDUsMCwwLDAuMDUsMTYuOTAwMDAwMDAwMDAwMDAyLDApIi8+PHVzZSB4bGluazpocmVmPSIjYWEiIHRyYW5zZm9ybT0ibWF0cml4KDAuMDUsMCwwLDAuMDUsMjYuOTAwMDAwMDAwMDAwMDAyLDApIi8+PHVzZSB4bGluazpocmVmPSIjVSIgdHJhbnNmb3JtPSJtYXRyaXgoMC4wNSwwLDAsMC4wNSwzNi45MDAwMDAwMDAwMDAwMDYsMCkiLz48L2c+PGcgaWQ9ImUiPjx1c2UgeGxpbms6aHJlZj0iI1UiIHRyYW5zZm9ybT0ibWF0cml4KDAuMDUsMCwwLDAuMDUsMCwwKSIvPjx1c2UgeGxpbms6aHJlZj0iI1MiIHRyYW5zZm9ybT0ibWF0cml4KDAuMDUsMCwwLDAuMDUsMTAsMCkiLz48L2c+PHBhdGggaWQ9ImFiIiBkPSJNMjA1IDBsLTI4LTcySDY0TDM2IDBIMWwxMDEtMjQ4aDM4TDIzOSAwaC0zNHptLTM4LTk5bC00Ny0xMjNjLTEyIDQ1LTMxIDgyLTQ2IDEyM2g5MyIvPjxwYXRoIGlkPSJhYyIgZD0iTTI2NiAwaC00MGwtNTYtMjEwTDExNSAwSDc1TDItMjQ4aDM1TDk2LTMwbDE1LTY0IDQzLTE1NGgzMmw1OSAyMTggNTktMjE4aDM1Ii8+PHBhdGggaWQ9ImFkIiBkPSJNMTg1LTE4OWMtNS00OC0xMjMtNTQtMTI0IDIgMTQgNzUgMTU4IDE0IDE2MyAxMTkgMyA3OC0xMjEgODctMTc1IDU1LTE3LTEwLTI4LTI2LTMzLTQ2bDMzLTdjNSA1NiAxNDEgNjMgMTQxLTEgMC03OC0xNTUtMTQtMTYyLTExOC01LTgyIDE0NS04NCAxNzktMzQgNSA3IDggMTYgMTEgMjUiLz48ZyBpZD0iZiI+PHVzZSB4bGluazpocmVmPSIjYWIiIHRyYW5zZm9ybT0ibWF0cml4KDAuMDUsMCwwLDAuMDUsMCwwKSIvPjx1c2UgeGxpbms6aHJlZj0iI2FjIiB0cmFuc2Zvcm09Im1hdHJpeCgwLjA1LDAsMCwwLjA1LDExLjM1LDApIi8+PHVzZSB4bGluazpocmVmPSIjYWQiIHRyYW5zZm9ybT0ibWF0cml4KDAuMDUsMCwwLDAuMDUsMjguMjk5OTk5OTk5OTk5OTk3LDApIi8+PC9nPjxwYXRoIGlkPSJhZSIgZD0iTTExNS0xOTRjNTMgMCA2OSAzOSA3MCA5OCAwIDY2LTIzIDEwMC03MCAxMDBDODQgMyA2Ni03IDU2LTMwTDU0IDBIMjNsMS0yNjFoMzJ2MTAxYzEwLTIzIDI4LTM0IDU5LTM0em0tOCAxNzRjNDAgMCA0NS0zNCA0NS03NSAwLTQwLTUtNzUtNDUtNzQtNDIgMC01MSAzMi01MSA3NiAwIDQzIDEwIDczIDUxIDczIi8+PGcgaWQ9ImciPjx1c2UgeGxpbms6aHJlZj0iI1EiIHRyYW5zZm9ybT0ibWF0cml4KDAuMDUsMCwwLDAuMDUsMCwwKSIvPjx1c2UgeGxpbms6aHJlZj0iI2FhIiB0cmFuc2Zvcm09Im1hdHJpeCgwLjA1LDAsMCwwLjA1LDEwLDApIi8+PHVzZSB4bGluazpocmVmPSIjYWUiIHRyYW5zZm9ybT0ibWF0cml4KDAuMDUsMCwwLDAuMDUsMjAsMCkiLz48dXNlIHhsaW5rOmhyZWY9IiNTIiB0cmFuc2Zvcm09Im1hdHJpeCgwLjA1LDAsMCwwLjA1LDMwLDApIi8+PC9nPjxwYXRoIGlkPSJhZiIgZD0iTTExNS0xOTRjNTUgMSA3MCA0MSA3MCA5OFMxNjkgMiAxMTUgNEM4NCA0IDY2LTkgNTUtMzBsMSAxMDVIMjRsLTEtMjY1aDMxbDIgMzBjMTAtMjEgMjgtMzQgNTktMzR6bS04IDE3NGM0MCAwIDQ1LTM0IDQ1LTc1cy02LTczLTQ1LTc0Yy00MiAwLTUxIDMyLTUxIDc2IDAgNDMgMTAgNzMgNTEgNzMiLz48cGF0aCBpZD0iYWciIGQ9Ik0xNDEtMzZDMTI2LTE1IDExMCA1IDczIDQgMzcgMyAxNS0xNyAxNS01M2MtMS02NCA2My02MyAxMjUtNjMgMy0zNS05LTU0LTQxLTU0LTI0IDEtNDEgNy00MiAzMWwtMzMtM2M1LTM3IDMzLTUyIDc2LTUyIDQ1IDAgNzIgMjAgNzIgNjR2ODJjLTEgMjAgNyAzMiAyOCAyN3YyMGMtMzEgOS02MS0yLTU5LTM1ek00OC01M2MwIDIwIDEyIDMzIDMyIDMzIDQxLTMgNjMtMjkgNjAtNzQtNDMgMi05Mi01LTkyIDQxIi8+PGcgaWQ9ImgiPjx1c2UgeGxpbms6aHJlZj0iI2FmIiB0cmFuc2Zvcm09Im1hdHJpeCgwLjA1LDAsMCwwLjA1LDAsMCkiLz48dXNlIHhsaW5rOmhyZWY9IiNXIiB0cmFuc2Zvcm09Im1hdHJpeCgwLjA1LDAsMCwwLjA1LDEwLDApIi8+PHVzZSB4bGluazpocmVmPSIjVCIgdHJhbnNmb3JtPSJtYXRyaXgoMC4wNSwwLDAsMC4wNSwxNS45NDk5OTk5OTk5OTk5OTgsMCkiLz48dXNlIHhsaW5rOmhyZWY9IiNYIiB0cmFuc2Zvcm09Im1hdHJpeCgwLjA1LDAsMCwwLjA1LDE5LjksMCkiLz48dXNlIHhsaW5rOmhyZWY9IiNhZyIgdHJhbnNmb3JtPSJtYXRyaXgoMC4wNSwwLDAsMC4wNSwyOC44OTk5OTk5OTk5OTk5OTUsMCkiLz48dXNlIHhsaW5rOmhyZWY9IiNVIiB0cmFuc2Zvcm09Im1hdHJpeCgwLjA1LDAsMCwwLjA1LDM4LjksMCkiLz48dXNlIHhsaW5rOmhyZWY9IiNhZyIgdHJhbnNmb3JtPSJtYXRyaXgoMC4wNSwwLDAsMC4wNSw0OC45LDApIi8+PC9nPjxnIGlkPSJpIj48dXNlIHhsaW5rOmhyZWY9IiNYIiB0cmFuc2Zvcm09Im1hdHJpeCgwLjA1LDAsMCwwLjA1LDAsMCkiLz48dXNlIHhsaW5rOmhyZWY9IiNUIiB0cmFuc2Zvcm09Im1hdHJpeCgwLjA1LDAsMCwwLjA1LDksMCkiLz48dXNlIHhsaW5rOmhyZWY9IiNXIiB0cmFuc2Zvcm09Im1hdHJpeCgwLjA1LDAsMCwwLjA1LDEyLjk0OTk5OTk5OTk5OTk5OCwwKSIvPjx1c2UgeGxpbms6aHJlZj0iI1IiIHRyYW5zZm9ybT0ibWF0cml4KDAuMDUsMCwwLDAuMDUsMTguOSwwKSIvPjx1c2UgeGxpbms6aHJlZj0iI2FhIiB0cmFuc2Zvcm09Im1hdHJpeCgwLjA1LDAsMCwwLjA1LDIzLjksMCkiLz48dXNlIHhsaW5rOmhyZWY9IiNhZyIgdHJhbnNmb3JtPSJtYXRyaXgoMC4wNSwwLDAsMC4wNSwzMy45LDApIi8+PHVzZSB4bGluazpocmVmPSIjWiIgdHJhbnNmb3JtPSJtYXRyaXgoMC4wNSwwLDAsMC4wNSw0My45LDApIi8+PC9nPjxwYXRoIGlkPSJhaCIgZD0iTTEwMS0yMzRjLTMxLTktNDIgMTAtMzggNDRoMzh2MjNINjNWMEgzMnYtMTY3SDV2LTIzaDI3Yy03LTUyIDE3LTgyIDY5LTY4djI0Ii8+PGcgaWQ9ImoiPjx1c2UgeGxpbms6aHJlZj0iI1UiIHRyYW5zZm9ybT0ibWF0cml4KDAuMDUsMCwwLDAuMDUsMCwwKSIvPjx1c2UgeGxpbms6aHJlZj0iI1MiIHRyYW5zZm9ybT0ibWF0cml4KDAuMDUsMCwwLDAuMDUsMTAsMCkiLz48dXNlIHhsaW5rOmhyZWY9IiNhaCIgdHJhbnNmb3JtPSJtYXRyaXgoMC4wNSwwLDAsMC4wNSwyMCwwKSIvPjx1c2UgeGxpbms6aHJlZj0iI2FnIiB0cmFuc2Zvcm09Im1hdHJpeCgwLjA1LDAsMCwwLjA1LDI1LDApIi8+PHVzZSB4bGluazpocmVmPSIjYWEiIHRyYW5zZm9ybT0ibWF0cml4KDAuMDUsMCwwLDAuMDUsMzUsMCkiLz48dXNlIHhsaW5rOmhyZWY9IiNaIiB0cmFuc2Zvcm09Im1hdHJpeCgwLjA1LDAsMCwwLjA1LDQ1LDApIi8+PHVzZSB4bGluazpocmVmPSIjUiIgdHJhbnNmb3JtPSJtYXRyaXgoMC4wNSwwLDAsMC4wNSw0OC45NSwwKSIvPjwvZz48cGF0aCBpZD0iYWkiIGQ9Ik0xNDAtMjUxYzgxIDAgMTIzIDQ2IDEyMyAxMjZDMjYzLTQ2IDIxOSA0IDE0MCA0IDU5IDQgMTctNDUgMTctMTI1czQyLTEyNiAxMjMtMTI2em0wIDIyN2M2MyAwIDg5LTQxIDg5LTEwMXMtMjktOTktODktOTljLTYxIDAtODkgMzktODkgOTlTNzktMjUgMTQwLTI0Ii8+PHBhdGggaWQ9ImFqIiBkPSJNMTA2LTE2OUMzNC0xNjkgNjItNjcgNTcgMEgyNXYtMjYxaDMybC0xIDEwM2MxMi0yMSAyOC0zNiA2MS0zNiA4OSAwIDUzIDExNiA2MCAxOTRoLTMydi0xMjFjMi0zMi04LTQ5LTM5LTQ4Ii8+PGcgaWQ9ImsiPjx1c2UgeGxpbms6aHJlZj0iI2FpIiB0cmFuc2Zvcm09Im1hdHJpeCgwLjA1LDAsMCwwLjA1LDAsMCkiLz48dXNlIHhsaW5rOmhyZWY9IiNhaiIgdHJhbnNmb3JtPSJtYXRyaXgoMC4wNSwwLDAsMC4wNSwxNCwwKSIvPjx1c2UgeGxpbms6aHJlZj0iI1QiIHRyYW5zZm9ybT0ibWF0cml4KDAuMDUsMCwwLDAuMDUsMjQsMCkiLz48dXNlIHhsaW5rOmhyZWY9IiNQIiB0cmFuc2Zvcm09Im1hdHJpeCgwLjA1LDAsMCwwLjA1LDI3Ljk1MDAwMDAwMDAwMDAwMywwKSIvPjwvZz48cGF0aCBpZD0iYWsiIGQ9Ik0tNSA3MlY0OWgyMDl2MjNILTUiLz48cGF0aCBpZD0iYWwiIGQ9Ik05IDB2LTI0bDExNi0xNDJIMTZ2LTI0aDE0NHYyNEw0NC0yNGgxMjNWMEg5Ii8+PGcgaWQ9ImwiPjx1c2UgeGxpbms6aHJlZj0iI1UiIHRyYW5zZm9ybT0ibWF0cml4KDAuMDYxNzI4Mzk1MDYxNzI4MzksMCwwLDAuMDYxNzI4Mzk1MDYxNzI4MzksMCwwKSIvPjx1c2UgeGxpbms6aHJlZj0iI2FnIiB0cmFuc2Zvcm09Im1hdHJpeCgwLjA2MTcyODM5NTA2MTcyODM5LDAsMCwwLjA2MTcyODM5NTA2MTcyODM5LDEyLjM0NTY3OTAxMjM0NTY3OSwwKSIvPjx1c2UgeGxpbms6aHJlZj0iI1IiIHRyYW5zZm9ybT0ibWF0cml4KDAuMDYxNzI4Mzk1MDYxNzI4MzksMCwwLDAuMDYxNzI4Mzk1MDYxNzI4MzksMjQuNjkxMzU4MDI0NjkxMzU4LDApIi8+PHVzZSB4bGluazpocmVmPSIjYWciIHRyYW5zZm9ybT0ibWF0cml4KDAuMDYxNzI4Mzk1MDYxNzI4MzksMCwwLDAuMDYxNzI4Mzk1MDYxNzI4MzksMzAuODY0MTk3NTMwODY0MTk2LDApIi8+PHVzZSB4bGluazpocmVmPSIjYWsiIHRyYW5zZm9ybT0ibWF0cml4KDAuMDYxNzI4Mzk1MDYxNzI4MzksMCwwLDAuMDYxNzI4Mzk1MDYxNzI4MzksNDMuMjA5ODc2NTQzMjA5ODcsMCkiLz48dXNlIHhsaW5rOmhyZWY9IiNUIiB0cmFuc2Zvcm09Im1hdHJpeCgwLjA2MTcyODM5NTA2MTcyODM5LDAsMCwwLjA2MTcyODM5NTA2MTcyODM5LDU1LjU1NTU1NTU1NTU1NTU1LDApIi8+PHVzZSB4bGluazpocmVmPSIjUSIgdHJhbnNmb3JtPSJtYXRyaXgoMC4wNjE3MjgzOTUwNjE3MjgzOSwwLDAsMC4wNjE3MjgzOTUwNjE3MjgzOSw2MC40MzIwOTg3NjU0MzIwOTQsMCkiLz48dXNlIHhsaW5rOmhyZWY9IiNhayIgdHJhbnNmb3JtPSJtYXRyaXgoMC4wNjE3MjgzOTUwNjE3MjgzOSwwLDAsMC4wNjE3MjgzOTUwNjE3MjgzOSw3Mi43Nzc3Nzc3Nzc3Nzc3NywwKSIvPjx1c2UgeGxpbms6aHJlZj0iI1IiIHRyYW5zZm9ybT0ibWF0cml4KDAuMDYxNzI4Mzk1MDYxNzI4MzksMCwwLDAuMDYxNzI4Mzk1MDYxNzI4MzksODUuMTIzNDU2NzkwMTIzNDYsMCkiLz48dXNlIHhsaW5rOmhyZWY9IiNQIiB0cmFuc2Zvcm09Im1hdHJpeCgwLjA2MTcyODM5NTA2MTcyODM5LDAsMCwwLjA2MTcyODM5NTA2MTcyODM5LDkxLjI5NjI5NjI5NjI5NjI5LDApIi8+PHVzZSB4bGluazpocmVmPSIjYWsiIHRyYW5zZm9ybT0ibWF0cml4KDAuMDYxNzI4Mzk1MDYxNzI4MzksMCwwLDAuMDYxNzI4Mzk1MDYxNzI4MzksMTAzLjY0MTk3NTMwODY0MTk3LDApIi8+PHVzZSB4bGluazpocmVmPSIjYWUiIHRyYW5zZm9ybT0ibWF0cml4KDAuMDYxNzI4Mzk1MDYxNzI4MzksMCwwLDAuMDYxNzI4Mzk1MDYxNzI4MzksMTE1Ljk4NzY1NDMyMDk4NzY2LDApIi8+PHVzZSB4bGluazpocmVmPSIjVyIgdHJhbnNmb3JtPSJtYXRyaXgoMC4wNjE3MjgzOTUwNjE3MjgzOSwwLDAsMC4wNjE3MjgzOTUwNjE3MjgzOSwxMjguMzMzMzMzMzMzMzMzMzQsMCkiLz48dXNlIHhsaW5rOmhyZWY9IiNQIiB0cmFuc2Zvcm09Im1hdHJpeCgwLjA2MTcyODM5NTA2MTcyODM5LDAsMCwwLjA2MTcyODM5NTA2MTcyODM5LDEzNS42NzkwMTIzNDU2NzksMCkiLz48dXNlIHhsaW5rOmhyZWY9IiNRIiB0cmFuc2Zvcm09Im1hdHJpeCgwLjA2MTcyODM5NTA2MTcyODM5LDAsMCwwLjA2MTcyODM5NTA2MTcyODM5LDE0OC4wMjQ2OTEzNTgwMjQ2OCwwKSIvPjx1c2UgeGxpbms6aHJlZj0iI2FsIiB0cmFuc2Zvcm09Im1hdHJpeCgwLjA2MTcyODM5NTA2MTcyODM5LDAsMCwwLjA2MTcyODM5NTA2MTcyODM5LDE2MC4zNzAzNzAzNzAzNzAzNSwwKSIvPjx1c2UgeGxpbms6aHJlZj0iI1MiIHRyYW5zZm9ybT0ibWF0cml4KDAuMDYxNzI4Mzk1MDYxNzI4MzksMCwwLDAuMDYxNzI4Mzk1MDYxNzI4MzksMTcxLjQ4MTQ4MTQ4MTQ4MTQ3LDApIi8+PC9nPjxwYXRoIGlkPSJhbSIgZD0iTTAgNGw3Mi0yNjVoMjhMMjggNEgwIi8+PGcgaWQ9Im0iPjx1c2UgeGxpbms6aHJlZj0iI2FtIiB0cmFuc2Zvcm09Im1hdHJpeCgwLjA2MTcyODM5NTA2MTcyODM5LDAsMCwwLjA2MTcyODM5NTA2MTcyODM5LDAsMCkiLz48dXNlIHhsaW5rOmhyZWY9IiNVIiB0cmFuc2Zvcm09Im1hdHJpeCgwLjA2MTcyODM5NTA2MTcyODM5LDAsMCwwLjA2MTcyODM5NTA2MTcyODM5LDYuMTcyODM5NTA2MTcyODM5LDApIi8+PHVzZSB4bGluazpocmVmPSIjYWciIHRyYW5zZm9ybT0ibWF0cml4KDAuMDYxNzI4Mzk1MDYxNzI4MzksMCwwLDAuMDYxNzI4Mzk1MDYxNzI4MzksMTguNTE4NTE4NTE4NTE4NTIsMCkiLz48dXNlIHhsaW5rOmhyZWY9IiNSIiB0cmFuc2Zvcm09Im1hdHJpeCgwLjA2MTcyODM5NTA2MTcyODM5LDAsMCwwLjA2MTcyODM5NTA2MTcyODM5LDMwLjg2NDE5NzUzMDg2NDE5NiwwKSIvPjx1c2UgeGxpbms6aHJlZj0iI2FnIiB0cmFuc2Zvcm09Im1hdHJpeCgwLjA2MTcyODM5NTA2MTcyODM5LDAsMCwwLjA2MTcyODM5NTA2MTcyODM5LDM3LjAzNzAzNzAzNzAzNzA0LDApIi8+PHVzZSB4bGluazpocmVmPSIjYW0iIHRyYW5zZm9ybT0ibWF0cml4KDAuMDYxNzI4Mzk1MDYxNzI4MzksMCwwLDAuMDYxNzI4Mzk1MDYxNzI4MzksNDkuMzgyNzE2MDQ5MzgyNzE1LDApIi8+PHVzZSB4bGluazpocmVmPSIjVCIgdHJhbnNmb3JtPSJtYXRyaXgoMC4wNjE3MjgzOTUwNjE3MjgzOSwwLDAsMC4wNjE3MjgzOTUwNjE3MjgzOSw1NS41NTU1NTU1NTU1NTU1NiwwKSIvPjx1c2UgeGxpbms6aHJlZj0iI1EiIHRyYW5zZm9ybT0ibWF0cml4KDAuMDYxNzI4Mzk1MDYxNzI4MzksMCwwLDAuMDYxNzI4Mzk1MDYxNzI4MzksNjAuNDMyMDk4NzY1NDMyMSwwKSIvPjx1c2UgeGxpbms6aHJlZj0iI2FtIiB0cmFuc2Zvcm09Im1hdHJpeCgwLjA2MTcyODM5NTA2MTcyODM5LDAsMCwwLjA2MTcyODM5NTA2MTcyODM5LDcyLjc3Nzc3Nzc3Nzc3Nzc5LDApIi8+PC9nPjxnIGlkPSJuIj48dXNlIHhsaW5rOmhyZWY9IiNhbSIgdHJhbnNmb3JtPSJtYXRyaXgoMC4wNjE3MjgzOTUwNjE3MjgzOSwwLDAsMC4wNjE3MjgzOTUwNjE3MjgzOSwwLDApIi8+PHVzZSB4bGluazpocmVmPSIjYWUiIHRyYW5zZm9ybT0ibWF0cml4KDAuMDYxNzI4Mzk1MDYxNzI4MzksMCwwLDAuMDYxNzI4Mzk1MDYxNzI4MzksNi4xNzI4Mzk1MDYxNzI4MzksMCkiLz48dXNlIHhsaW5rOmhyZWY9IiNXIiB0cmFuc2Zvcm09Im1hdHJpeCgwLjA2MTcyODM5NTA2MTcyODM5LDAsMCwwLjA2MTcyODM5NTA2MTcyODM5LDE4LjUxODUxODUxODUxODUyLDApIi8+PHVzZSB4bGluazpocmVmPSIjUCIgdHJhbnNmb3JtPSJtYXRyaXgoMC4wNjE3MjgzOTUwNjE3MjgzOSwwLDAsMC4wNjE3MjgzOTUwNjE3MjgzOSwyNS44NjQxOTc1MzA4NjQxOTYsMCkiLz48dXNlIHhsaW5rOmhyZWY9IiNRIiB0cmFuc2Zvcm09Im1hdHJpeCgwLjA2MTcyODM5NTA2MTcyODM5LDAsMCwwLjA2MTcyODM5NTA2MTcyODM5LDM4LjIwOTg3NjU0MzIwOTg3LDApIi8+PHVzZSB4bGluazpocmVmPSIjYWwiIHRyYW5zZm9ybT0ibWF0cml4KDAuMDYxNzI4Mzk1MDYxNzI4MzksMCwwLDAuMDYxNzI4Mzk1MDYxNzI4MzksNTAuNTU1NTU1NTU1NTU1NTUsMCkiLz48dXNlIHhsaW5rOmhyZWY9IiNTIiB0cmFuc2Zvcm09Im1hdHJpeCgwLjA2MTcyODM5NTA2MTcyODM5LDAsMCwwLjA2MTcyODM5NTA2MTcyODM5LDYxLjY2NjY2NjY2NjY2NjY2LDApIi8+PHVzZSB4bGluazpocmVmPSIjYW0iIHRyYW5zZm9ybT0ibWF0cml4KDAuMDYxNzI4Mzk1MDYxNzI4MzksMCwwLDAuMDYxNzI4Mzk1MDYxNzI4MzksNzQuMDEyMzQ1Njc5MDEyMzQsMCkiLz48L2c+PGcgaWQ9Im8iPjx1c2UgeGxpbms6aHJlZj0iI2FtIiB0cmFuc2Zvcm09Im1hdHJpeCgwLjA2MTcyODM5NTA2MTcyODM5LDAsMCwwLjA2MTcyODM5NTA2MTcyODM5LDAsMCkiLz48dXNlIHhsaW5rOmhyZWY9IiNWIiB0cmFuc2Zvcm09Im1hdHJpeCgwLjA2MTcyODM5NTA2MTcyODM5LDAsMCwwLjA2MTcyODM5NTA2MTcyODM5LDYuMTcyODM5NTA2MTcyODM5LDApIi8+PHVzZSB4bGluazpocmVmPSIjVCIgdHJhbnNmb3JtPSJtYXRyaXgoMC4wNjE3MjgzOTUwNjE3MjgzOSwwLDAsMC4wNjE3MjgzOTUwNjE3MjgzOSwxNy4yODM5NTA2MTcyODM5NSwwKSIvPjx1c2UgeGxpbms6aHJlZj0iI1oiIHRyYW5zZm9ybT0ibWF0cml4KDAuMDYxNzI4Mzk1MDYxNzI4MzksMCwwLDAuMDYxNzI4Mzk1MDYxNzI4MzksMjIuMTYwNDkzODI3MTYwNDk0LDApIi8+PHVzZSB4bGluazpocmVmPSIjWCIgdHJhbnNmb3JtPSJtYXRyaXgoMC4wNjE3MjgzOTUwNjE3MjgzOSwwLDAsMC4wNjE3MjgzOTUwNjE3MjgzOSwyNy4wMzcwMzcwMzcwMzcwMzgsMCkiLz48dXNlIHhsaW5rOmhyZWY9IiNTIiB0cmFuc2Zvcm09Im1hdHJpeCgwLjA2MTcyODM5NTA2MTcyODM5LDAsMCwwLjA2MTcyODM5NTA2MTcyODM5LDM4LjE0ODE0ODE0ODE0ODE1LDApIi8+PHVzZSB4bGluazpocmVmPSIjVyIgdHJhbnNmb3JtPSJtYXRyaXgoMC4wNjE3MjgzOTUwNjE3MjgzOSwwLDAsMC4wNjE3MjgzOTUwNjE3MjgzOSw1MC40OTM4MjcxNjA0OTM4MywwKSIvPjx1c2UgeGxpbms6aHJlZj0iI2FtIiB0cmFuc2Zvcm09Im1hdHJpeCgwLjA2MTcyODM5NTA2MTcyODM5LDAsMCwwLjA2MTcyODM5NTA2MTcyODM5LDU3LjgzOTUwNjE3MjgzOTUwNiwwKSIvPjwvZz48cGF0aCBpZD0iYW4iIGQ9Ik0yMTAtMTY5Yy02NyAzLTM4IDEwNS00NCAxNjloLTMxdi0xMjFjMC0yOS01LTUwLTM1LTQ4QzM0LTE2NSA2Mi02NSA1NiAwSDI1bC0xLTE5MGgzMGMxIDEwLTEgMjQgMiAzMiAxMC00NCA5OS01MCAxMDcgMCAxMS0yMSAyNy0zNSA1OC0zNiA4NS0yIDQ3IDExOSA1NSAxOTRoLTMxdi0xMjFjMC0yOS01LTQ5LTM1LTQ4Ii8+PGcgaWQ9InAiPjx1c2UgeGxpbms6aHJlZj0iI1QiIHRyYW5zZm9ybT0ibWF0cml4KDAuMDYxNzI4Mzk1MDYxNzI4MzksMCwwLDAuMDYxNzI4Mzk1MDYxNzI4MzksMCwwKSIvPjx1c2UgeGxpbms6aHJlZj0iI2FnIiB0cmFuc2Zvcm09Im1hdHJpeCgwLjA2MTcyODM5NTA2MTcyODM5LDAsMCwwLjA2MTcyODM5NTA2MTcyODM5LDQuODc2NTQzMjA5ODc2NTQzLDApIi8+PHVzZSB4bGluazpocmVmPSIjYW4iIHRyYW5zZm9ybT0ibWF0cml4KDAuMDYxNzI4Mzk1MDYxNzI4MzksMCwwLDAuMDYxNzI4Mzk1MDYxNzI4MzksMTcuMjIyMjIyMjIyMjIyMjIsMCkiLz48L2c+PHBhdGggaWQ9ImFvIiBkPSJNMTc5LTE5MEw5MyAzMUM3OSA1OSA1NiA4MiAxMiA3M1Y0OWMzOSA2IDUzLTIwIDY0LTUwTDEtMTkwaDM0TDkyLTM0bDU0LTE1NmgzMyIvPjxwYXRoIGlkPSJhcCIgZD0iTTMzLTE1NHYtMzZoMzR2MzZIMzN6TTMzIDB2LTM2aDM0VjBIMzMiLz48ZyBpZD0icSI+PHVzZSB4bGluazpocmVmPSIjYWYiIHRyYW5zZm9ybT0ibWF0cml4KDAuMDYxNzI4Mzk1MDYxNzI4MzksMCwwLDAuMDYxNzI4Mzk1MDYxNzI4MzksMCwwKSIvPjx1c2UgeGxpbms6aHJlZj0iI1AiIHRyYW5zZm9ybT0ibWF0cml4KDAuMDYxNzI4Mzk1MDYxNzI4MzksMCwwLDAuMDYxNzI4Mzk1MDYxNzI4MzksMTIuMzQ1Njc5MDEyMzQ1Njc5LDApIi8+PHVzZSB4bGluazpocmVmPSIjWiIgdHJhbnNmb3JtPSJtYXRyaXgoMC4wNjE3MjgzOTUwNjE3MjgzOSwwLDAsMC4wNjE3MjgzOTUwNjE3MjgzOSwyNC42OTEzNTgwMjQ2OTEzNTgsMCkiLz48dXNlIHhsaW5rOmhyZWY9IiNUIiB0cmFuc2Zvcm09Im1hdHJpeCgwLjA2MTcyODM5NTA2MTcyODM5LDAsMCwwLjA2MTcyODM5NTA2MTcyODM5LDI5LjU2NzkwMTIzNDU2NzksMCkiLz48dXNlIHhsaW5rOmhyZWY9IiNPIiB0cmFuc2Zvcm09Im1hdHJpeCgwLjA2MTcyODM5NTA2MTcyODM5LDAsMCwwLjA2MTcyODM5NTA2MTcyODM5LDM0LjQ0NDQ0NDQ0NDQ0NDQ0LDApIi8+PHVzZSB4bGluazpocmVmPSIjYW8iIHRyYW5zZm9ybT0ibWF0cml4KDAuMDYxNzI4Mzk1MDYxNzI4MzksMCwwLDAuMDYxNzI4Mzk1MDYxNzI4MzksNDUuNTU1NTU1NTU1NTU1NTYsMCkiLz48dXNlIHhsaW5rOmhyZWY9IiNhcCIgdHJhbnNmb3JtPSJtYXRyaXgoMC4wNjE3MjgzOTUwNjE3MjgzOSwwLDAsMC4wNjE3MjgzOTUwNjE3MjgzOSw1Ni42NjY2NjY2NjY2NjY2NywwKSIvPjwvZz48cGF0aCBpZD0iYXEiIGQ9Ik0xNDMgMEw3OS04NyA1Ni02OFYwSDI0di0yNjFoMzJ2MTYzbDgzLTkyaDM3bC03NyA4MkwxODEgMGgtMzgiLz48ZyBpZD0iciI+PHVzZSB4bGluazpocmVmPSIjWiIgdHJhbnNmb3JtPSJtYXRyaXgoMC4wNjE3MjgzOTUwNjE3MjgzOSwwLDAsMC4wNjE3MjgzOTUwNjE3MjgzOSwwLDApIi8+PHVzZSB4bGluazpocmVmPSIjYWciIHRyYW5zZm9ybT0ibWF0cml4KDAuMDYxNzI4Mzk1MDYxNzI4MzksMCwwLDAuMDYxNzI4Mzk1MDYxNzI4MzksNC44NzY1NDMyMDk4NzY1NDMsMCkiLz48dXNlIHhsaW5rOmhyZWY9IiNhbiIgdHJhbnNmb3JtPSJtYXRyaXgoMC4wNjE3MjgzOTUwNjE3MjgzOSwwLDAsMC4wNjE3MjgzOTUwNjE3MjgzOSwxNy4yMjIyMjIyMjIyMjIyMiwwKSIvPjx1c2UgeGxpbms6aHJlZj0iI2FlIiB0cmFuc2Zvcm09Im1hdHJpeCgwLjA2MTcyODM5NTA2MTcyODM5LDAsMCwwLjA2MTcyODM5NTA2MTcyODM5LDM1LjY3OTAxMjM0NTY3OTAxLDApIi8+PHVzZSB4bGluazpocmVmPSIjVSIgdHJhbnNmb3JtPSJtYXRyaXgoMC4wNjE3MjgzOTUwNjE3MjgzOSwwLDAsMC4wNjE3MjgzOTUwNjE3MjgzOSw0OC4wMjQ2OTEzNTgwMjQ2OSwwKSIvPjx1c2UgeGxpbms6aHJlZj0iI2FnIiB0cmFuc2Zvcm09Im1hdHJpeCgwLjA2MTcyODM5NTA2MTcyODM5LDAsMCwwLjA2MTcyODM5NTA2MTcyODM5LDYwLjM3MDM3MDM3MDM3MDM3LDApIi8+PHVzZSB4bGluazpocmVmPSIjYWsiIHRyYW5zZm9ybT0ibWF0cml4KDAuMDYxNzI4Mzk1MDYxNzI4MzksMCwwLDAuMDYxNzI4Mzk1MDYxNzI4MzksNzIuNzE2MDQ5MzgyNzE2MDUsMCkiLz48dXNlIHhsaW5rOmhyZWY9IiNPIiB0cmFuc2Zvcm09Im1hdHJpeCgwLjA2MTcyODM5NTA2MTcyODM5LDAsMCwwLjA2MTcyODM5NTA2MTcyODM5LDg1LjA2MTcyODM5NTA2MTczLDApIi8+PHVzZSB4bGluazpocmVmPSIjUCIgdHJhbnNmb3JtPSJtYXRyaXgoMC4wNjE3MjgzOTUwNjE3MjgzOSwwLDAsMC4wNjE3MjgzOTUwNjE3MjgzOSw5Ni4xNzI4Mzk1MDYxNzI4NSwwKSIvPjx1c2UgeGxpbms6aHJlZj0iI2FuIiB0cmFuc2Zvcm09Im1hdHJpeCgwLjA2MTcyODM5NTA2MTcyODM5LDAsMCwwLjA2MTcyODM5NTA2MTcyODM5LDEwOC41MTg1MTg1MTg1MTg1MywwKSIvPjx1c2UgeGxpbms6aHJlZj0iI2FuIiB0cmFuc2Zvcm09Im1hdHJpeCgwLjA2MTcyODM5NTA2MTcyODM5LDAsMCwwLjA2MTcyODM5NTA2MTcyODM5LDEyNi45NzUzMDg2NDE5NzUzMywwKSIvPjx1c2UgeGxpbms6aHJlZj0iI1AiIHRyYW5zZm9ybT0ibWF0cml4KDAuMDYxNzI4Mzk1MDYxNzI4MzksMCwwLDAuMDYxNzI4Mzk1MDYxNzI4MzksMTQ1LjQzMjA5ODc2NTQzMjEsMCkiLz48dXNlIHhsaW5rOmhyZWY9IiNRIiB0cmFuc2Zvcm09Im1hdHJpeCgwLjA2MTcyODM5NTA2MTcyODM5LDAsMCwwLjA2MTcyODM5NTA2MTcyODM5LDE1Ny43Nzc3Nzc3Nzc3Nzc3NywwKSIvPjx1c2UgeGxpbms6aHJlZj0iI2FrIiB0cmFuc2Zvcm09Im1hdHJpeCgwLjA2MTcyODM5NTA2MTcyODM5LDAsMCwwLjA2MTcyODM5NTA2MTcyODM5LDE3MC4xMjM0NTY3OTAxMjM0NCwwKSIvPjx1c2UgeGxpbms6aHJlZj0iI2FmIiB0cmFuc2Zvcm09Im1hdHJpeCgwLjA2MTcyODM5NTA2MTcyODM5LDAsMCwwLjA2MTcyODM5NTA2MTcyODM5LDE4Mi40NjkxMzU4MDI0NjkxLDApIi8+PHVzZSB4bGluazpocmVmPSIjUCIgdHJhbnNmb3JtPSJtYXRyaXgoMC4wNjE3MjgzOTUwNjE3MjgzOSwwLDAsMC4wNjE3MjgzOTUwNjE3MjgzOSwxOTQuODE0ODE0ODE0ODE0NzgsMCkiLz48dXNlIHhsaW5rOmhyZWY9IiNXIiB0cmFuc2Zvcm09Im1hdHJpeCgwLjA2MTcyODM5NTA2MTcyODM5LDAsMCwwLjA2MTcyODM5NTA2MTcyODM5LDIwNy4xNjA0OTM4MjcxNjA0NSwwKSIvPjx1c2UgeGxpbms6aHJlZj0iI1IiIHRyYW5zZm9ybT0ibWF0cml4KDAuMDYxNzI4Mzk1MDYxNzI4MzksMCwwLDAuMDYxNzI4Mzk1MDYxNzI4MzksMjE0LjUwNjE3MjgzOTUwNjEyLDApIi8+PHVzZSB4bGluazpocmVmPSIjYWgiIHRyYW5zZm9ybT0ibWF0cml4KDAuMDYxNzI4Mzk1MDYxNzI4MzksMCwwLDAuMDYxNzI4Mzk1MDYxNzI4MzksMjIwLjY3OTAxMjM0NTY3ODk2LDApIi8+PHVzZSB4bGluazpocmVmPSIjUCIgdHJhbnNmb3JtPSJtYXRyaXgoMC4wNjE3MjgzOTUwNjE3MjgzOSwwLDAsMC4wNjE3MjgzOTUwNjE3MjgzOSwyMjYuODUxODUxODUxODUxOCwwKSIvPjx1c2UgeGxpbms6aHJlZj0iI1oiIHRyYW5zZm9ybT0ibWF0cml4KDAuMDYxNzI4Mzk1MDYxNzI4MzksMCwwLDAuMDYxNzI4Mzk1MDYxNzI4MzksMjM5LjE5NzUzMDg2NDE5NzQ2LDApIi8+PHVzZSB4bGluazpocmVmPSIjVCIgdHJhbnNmb3JtPSJtYXRyaXgoMC4wNjE3MjgzOTUwNjE3MjgzOSwwLDAsMC4wNjE3MjgzOTUwNjE3MjgzOSwyNDQuMDc0MDc0MDc0MDc0LDApIi8+PHVzZSB4bGluazpocmVmPSIjUCIgdHJhbnNmb3JtPSJtYXRyaXgoMC4wNjE3MjgzOTUwNjE3MjgzOSwwLDAsMC4wNjE3MjgzOTUwNjE3MjgzOSwyNDguOTUwNjE3MjgzOTUwNTIsMCkiLz48dXNlIHhsaW5rOmhyZWY9IiNWIiB0cmFuc2Zvcm09Im1hdHJpeCgwLjA2MTcyODM5NTA2MTcyODM5LDAsMCwwLjA2MTcyODM5NTA2MTcyODM5LDI2MS4yOTYyOTYyOTYyOTYyLDApIi8+PHVzZSB4bGluazpocmVmPSIjWiIgdHJhbnNmb3JtPSJtYXRyaXgoMC4wNjE3MjgzOTUwNjE3MjgzOSwwLDAsMC4wNjE3MjgzOTUwNjE3MjgzOSwyNzIuNDA3NDA3NDA3NDA3MywwKSIvPjx1c2UgeGxpbms6aHJlZj0iI2FnIiB0cmFuc2Zvcm09Im1hdHJpeCgwLjA2MTcyODM5NTA2MTcyODM5LDAsMCwwLjA2MTcyODM5NTA2MTcyODM5LDI3Ny4yODM5NTA2MTcyODM4NCwwKSIvPjx1c2UgeGxpbms6aHJlZj0iI2FxIiB0cmFuc2Zvcm09Im1hdHJpeCgwLjA2MTcyODM5NTA2MTcyODM5LDAsMCwwLjA2MTcyODM5NTA2MTcyODM5LDI4OS42Mjk2Mjk2Mjk2Mjk1LDApIi8+PHVzZSB4bGluazpocmVmPSIjUyIgdHJhbnNmb3JtPSJtYXRyaXgoMC4wNjE3MjgzOTUwNjE3MjgzOSwwLDAsMC4wNjE3MjgzOTUwNjE3MjgzOSwzMDAuNzQwNzQwNzQwNzQwNiwwKSIvPjwvZz48ZyBpZD0icyI+PHVzZSB4bGluazpocmVmPSIjYWYiIHRyYW5zZm9ybT0ibWF0cml4KDAuMDYxNzI4Mzk1MDYxNzI4MzksMCwwLDAuMDYxNzI4Mzk1MDYxNzI4MzksMCwwKSIvPjx1c2UgeGxpbms6aHJlZj0iI1AiIHRyYW5zZm9ybT0ibWF0cml4KDAuMDYxNzI4Mzk1MDYxNzI4MzksMCwwLDAuMDYxNzI4Mzk1MDYxNzI4MzksMTIuMzQ1Njc5MDEyMzQ1Njc5LDApIi8+PHVzZSB4bGluazpocmVmPSIjVyIgdHJhbnNmb3JtPSJtYXRyaXgoMC4wNjE3MjgzOTUwNjE3MjgzOSwwLDAsMC4wNjE3MjgzOTUwNjE3MjgzOSwyNC42OTEzNTgwMjQ2OTEzNTgsMCkiLz48dXNlIHhsaW5rOmhyZWY9IiNSIiB0cmFuc2Zvcm09Im1hdHJpeCgwLjA2MTcyODM5NTA2MTcyODM5LDAsMCwwLjA2MTcyODM5NTA2MTcyODM5LDMyLjAzNzAzNzAzNzAzNzA0LDApIi8+PHVzZSB4bGluazpocmVmPSIjYWgiIHRyYW5zZm9ybT0ibWF0cml4KDAuMDYxNzI4Mzk1MDYxNzI4MzksMCwwLDAuMDYxNzI4Mzk1MDYxNzI4MzksMzguMjA5ODc2NTQzMjA5ODgsMCkiLz48dXNlIHhsaW5rOmhyZWY9IiNQIiB0cmFuc2Zvcm09Im1hdHJpeCgwLjA2MTcyODM5NTA2MTcyODM5LDAsMCwwLjA2MTcyODM5NTA2MTcyODM5LDQ0LjM4MjcxNjA0OTM4MjcyLDApIi8+PHVzZSB4bGluazpocmVmPSIjWiIgdHJhbnNmb3JtPSJtYXRyaXgoMC4wNjE3MjgzOTUwNjE3MjgzOSwwLDAsMC4wNjE3MjgzOTUwNjE3MjgzOSw1Ni43MjgzOTUwNjE3Mjg0LDApIi8+PHVzZSB4bGluazpocmVmPSIjVCIgdHJhbnNmb3JtPSJtYXRyaXgoMC4wNjE3MjgzOTUwNjE3MjgzOSwwLDAsMC4wNjE3MjgzOTUwNjE3MjgzOSw2MS42MDQ5MzgyNzE2MDQ5NDQsMCkiLz48dXNlIHhsaW5rOmhyZWY9IiNQIiB0cmFuc2Zvcm09Im1hdHJpeCgwLjA2MTcyODM5NTA2MTcyODM5LDAsMCwwLjA2MTcyODM5NTA2MTcyODM5LDY2LjQ4MTQ4MTQ4MTQ4MTQ4LDApIi8+PHVzZSB4bGluazpocmVmPSIjViIgdHJhbnNmb3JtPSJtYXRyaXgoMC4wNjE3MjgzOTUwNjE3MjgzOSwwLDAsMC4wNjE3MjgzOTUwNjE3MjgzOSw3OC44MjcxNjA0OTM4MjcxNywwKSIvPjx1c2UgeGxpbms6aHJlZj0iI1oiIHRyYW5zZm9ybT0ibWF0cml4KDAuMDYxNzI4Mzk1MDYxNzI4MzksMCwwLDAuMDYxNzI4Mzk1MDYxNzI4MzksODkuOTM4MjcxNjA0OTM4MjgsMCkiLz48dXNlIHhsaW5rOmhyZWY9IiNhZyIgdHJhbnNmb3JtPSJtYXRyaXgoMC4wNjE3MjgzOTUwNjE3MjgzOSwwLDAsMC4wNjE3MjgzOTUwNjE3MjgzOSw5NC44MTQ4MTQ4MTQ4MTQ4MiwwKSIvPjx1c2UgeGxpbms6aHJlZj0iI2FxIiB0cmFuc2Zvcm09Im1hdHJpeCgwLjA2MTcyODM5NTA2MTcyODM5LDAsMCwwLjA2MTcyODM5NTA2MTcyODM5LDEwNy4xNjA0OTM4MjcxNjA1MSwwKSIvPjx1c2UgeGxpbms6aHJlZj0iI1MiIHRyYW5zZm9ybT0ibWF0cml4KDAuMDYxNzI4Mzk1MDYxNzI4MzksMCwwLDAuMDYxNzI4Mzk1MDYxNzI4MzksMTE4LjI3MTYwNDkzODI3MTYyLDApIi8+PC9nPjxnIGlkPSJ0Ij48dXNlIHhsaW5rOmhyZWY9IiNhbSIgdHJhbnNmb3JtPSJtYXRyaXgoMC4wNjE3MjgzOTUwNjE3MjgzOSwwLDAsMC4wNjE3MjgzOTUwNjE3MjgzOSwwLDApIi8+PHVzZSB4bGluazpocmVmPSIjViIgdHJhbnNmb3JtPSJtYXRyaXgoMC4wNjE3MjgzOTUwNjE3MjgzOSwwLDAsMC4wNjE3MjgzOTUwNjE3MjgzOSw2LjE3MjgzOTUwNjE3MjgzOSwwKSIvPjx1c2UgeGxpbms6aHJlZj0iI1QiIHRyYW5zZm9ybT0ibWF0cml4KDAuMDYxNzI4Mzk1MDYxNzI4MzksMCwwLDAuMDYxNzI4Mzk1MDYxNzI4MzksMTcuMjgzOTUwNjE3MjgzOTUsMCkiLz48dXNlIHhsaW5rOmhyZWY9IiNaIiB0cmFuc2Zvcm09Im1hdHJpeCgwLjA2MTcyODM5NTA2MTcyODM5LDAsMCwwLjA2MTcyODM5NTA2MTcyODM5LDIyLjE2MDQ5MzgyNzE2MDQ5NCwwKSIvPjx1c2UgeGxpbms6aHJlZj0iI1giIHRyYW5zZm9ybT0ibWF0cml4KDAuMDYxNzI4Mzk1MDYxNzI4MzksMCwwLDAuMDYxNzI4Mzk1MDYxNzI4MzksMjcuMDM3MDM3MDM3MDM3MDM4LDApIi8+PHVzZSB4bGluazpocmVmPSIjUyIgdHJhbnNmb3JtPSJtYXRyaXgoMC4wNjE3MjgzOTUwNjE3MjgzOSwwLDAsMC4wNjE3MjgzOTUwNjE3MjgzOSwzOC4xNDgxNDgxNDgxNDgxNSwwKSIvPjx1c2UgeGxpbms6aHJlZj0iI1ciIHRyYW5zZm9ybT0ibWF0cml4KDAuMDYxNzI4Mzk1MDYxNzI4MzksMCwwLDAuMDYxNzI4Mzk1MDYxNzI4MzksNTAuNDkzODI3MTYwNDkzODMsMCkiLz48dXNlIHhsaW5rOmhyZWY9IiNhbSIgdHJhbnNmb3JtPSJtYXRyaXgoMC4wNjE3MjgzOTUwNjE3MjgzOSwwLDAsMC4wNjE3MjgzOTUwNjE3MjgzOSw1Ny44Mzk1MDYxNzI4Mzk1MDYsMCkiLz48dXNlIHhsaW5rOmhyZWY9IiNWIiB0cmFuc2Zvcm09Im1hdHJpeCgwLjA2MTcyODM5NTA2MTcyODM5LDAsMCwwLjA2MTcyODM5NTA2MTcyODM5LDY0LjAxMjM0NTY3OTAxMjM0LDApIi8+PHVzZSB4bGluazpocmVmPSIjUiIgdHJhbnNmb3JtPSJtYXRyaXgoMC4wNjE3MjgzOTUwNjE3MjgzOSwwLDAsMC4wNjE3MjgzOTUwNjE3MjgzOSw3NS4xMjM0NTY3OTAxMjM0NiwwKSIvPjx1c2UgeGxpbms6aHJlZj0iI1AiIHRyYW5zZm9ybT0ibWF0cml4KDAuMDYxNzI4Mzk1MDYxNzI4MzksMCwwLDAuMDYxNzI4Mzk1MDYxNzI4MzksODEuMjk2Mjk2Mjk2Mjk2MjksMCkiLz48dXNlIHhsaW5rOmhyZWY9IiNPIiB0cmFuc2Zvcm09Im1hdHJpeCgwLjA2MTcyODM5NTA2MTcyODM5LDAsMCwwLjA2MTcyODM5NTA2MTcyODM5LDkzLjY0MTk3NTMwODY0MTk3LDApIi8+PHVzZSB4bGluazpocmVmPSIjYXEiIHRyYW5zZm9ybT0ibWF0cml4KDAuMDYxNzI4Mzk1MDYxNzI4MzksMCwwLDAuMDYxNzI4Mzk1MDYxNzI4MzksMTA0Ljc1MzA4NjQxOTc1MzA5LDApIi8+PHVzZSB4bGluazpocmVmPSIjViIgdHJhbnNmb3JtPSJtYXRyaXgoMC4wNjE3MjgzOTUwNjE3MjgzOSwwLDAsMC4wNjE3MjgzOTUwNjE3MjgzOSwxMTUuODY0MTk3NTMwODY0MiwwKSIvPjwvZz48cGF0aCBpZD0iYXIiIGQ9Ik0yMDYgMGgtMzZsLTQwLTE2NEw4OSAwSDUzTC0xLTE5MGgzMkw3MC0yNmw0My0xNjRoMzRsNDEgMTY0IDQyLTE2NGgzMSIvPjxnIGlkPSJ1Ij48dXNlIHhsaW5rOmhyZWY9IiNhbSIgdHJhbnNmb3JtPSJtYXRyaXgoMC4wNjE3MjgzOTUwNjE3MjgzOSwwLDAsMC4wNjE3MjgzOTUwNjE3MjgzOSwwLDApIi8+PHVzZSB4bGluazpocmVmPSIjViIgdHJhbnNmb3JtPSJtYXRyaXgoMC4wNjE3MjgzOTUwNjE3MjgzOSwwLDAsMC4wNjE3MjgzOTUwNjE3MjgzOSw2LjE3MjgzOTUwNjE3MjgzOSwwKSIvPjx1c2UgeGxpbms6aHJlZj0iI1QiIHRyYW5zZm9ybT0ibWF0cml4KDAuMDYxNzI4Mzk1MDYxNzI4MzksMCwwLDAuMDYxNzI4Mzk1MDYxNzI4MzksMTcuMjgzOTUwNjE3MjgzOTUsMCkiLz48dXNlIHhsaW5rOmhyZWY9IiNaIiB0cmFuc2Zvcm09Im1hdHJpeCgwLjA2MTcyODM5NTA2MTcyODM5LDAsMCwwLjA2MTcyODM5NTA2MTcyODM5LDIyLjE2MDQ5MzgyNzE2MDQ5NCwwKSIvPjx1c2UgeGxpbms6aHJlZj0iI1giIHRyYW5zZm9ybT0ibWF0cml4KDAuMDYxNzI4Mzk1MDYxNzI4MzksMCwwLDAuMDYxNzI4Mzk1MDYxNzI4MzksMjcuMDM3MDM3MDM3MDM3MDM4LDApIi8+PHVzZSB4bGluazpocmVmPSIjUyIgdHJhbnNmb3JtPSJtYXRyaXgoMC4wNjE3MjgzOTUwNjE3MjgzOSwwLDAsMC4wNjE3MjgzOTUwNjE3MjgzOSwzOC4xNDgxNDgxNDgxNDgxNSwwKSIvPjx1c2UgeGxpbms6aHJlZj0iI1ciIHRyYW5zZm9ybT0ibWF0cml4KDAuMDYxNzI4Mzk1MDYxNzI4MzksMCwwLDAuMDYxNzI4Mzk1MDYxNzI4MzksNTAuNDkzODI3MTYwNDkzODMsMCkiLz48dXNlIHhsaW5rOmhyZWY9IiNhbSIgdHJhbnNmb3JtPSJtYXRyaXgoMC4wNjE3MjgzOTUwNjE3MjgzOSwwLDAsMC4wNjE3MjgzOTUwNjE3MjgzOSw1Ny44Mzk1MDYxNzI4Mzk1MDYsMCkiLz48dXNlIHhsaW5rOmhyZWY9IiNPIiB0cmFuc2Zvcm09Im1hdHJpeCgwLjA2MTcyODM5NTA2MTcyODM5LDAsMCwwLjA2MTcyODM5NTA2MTcyODM5LDY0LjAxMjM0NTY3OTAxMjM0LDApIi8+PHVzZSB4bGluazpocmVmPSIjYWciIHRyYW5zZm9ybT0ibWF0cml4KDAuMDYxNzI4Mzk1MDYxNzI4MzksMCwwLDAuMDYxNzI4Mzk1MDYxNzI4MzksNzUuMTIzNDU2NzkwMTIzNDYsMCkiLz48dXNlIHhsaW5rOmhyZWY9IiNWIiB0cmFuc2Zvcm09Im1hdHJpeCgwLjA2MTcyODM5NTA2MTcyODM5LDAsMCwwLjA2MTcyODM5NTA2MTcyODM5LDg3LjQ2OTEzNTgwMjQ2OTE0LDApIi8+PHVzZSB4bGluazpocmVmPSIjYWoiIHRyYW5zZm9ybT0ibWF0cml4KDAuMDYxNzI4Mzk1MDYxNzI4MzksMCwwLDAuMDYxNzI4Mzk1MDYxNzI4MzksOTguNTgwMjQ2OTEzNTgwMjUsMCkiLz48dXNlIHhsaW5rOmhyZWY9IiNhaCIgdHJhbnNmb3JtPSJtYXRyaXgoMC4wNjE3MjgzOTUwNjE3MjgzOSwwLDAsMC4wNjE3MjgzOTUwNjE3MjgzOSwxMTAuOTI1OTI1OTI1OTI1OTQsMCkiLz48dXNlIHhsaW5rOmhyZWY9IiNaIiB0cmFuc2Zvcm09Im1hdHJpeCgwLjA2MTcyODM5NTA2MTcyODM5LDAsMCwwLjA2MTcyODM5NTA2MTcyODM5LDExNy4wOTg3NjU0MzIwOTg3NywwKSIvPjx1c2UgeGxpbms6aHJlZj0iI1AiIHRyYW5zZm9ybT0ibWF0cml4KDAuMDYxNzI4Mzk1MDYxNzI4MzksMCwwLDAuMDYxNzI4Mzk1MDYxNzI4MzksMTIxLjk3NTMwODY0MTk3NTMyLDApIi8+PHVzZSB4bGluazpocmVmPSIjYXIiIHRyYW5zZm9ybT0ibWF0cml4KDAuMDYxNzI4Mzk1MDYxNzI4MzksMCwwLDAuMDYxNzI4Mzk1MDYxNzI4MzksMTM0LjMyMDk4NzY1NDMyMSwwKSIvPjwvZz48ZyBpZD0idiI+PHVzZSB4bGluazpocmVmPSIjTyIgdHJhbnNmb3JtPSJtYXRyaXgoMC4wNjE3MjgzOTUwNjE3MjgzOSwwLDAsMC4wNjE3MjgzOTUwNjE3MjgzOSwwLDApIi8+PHVzZSB4bGluazpocmVmPSIjYWciIHRyYW5zZm9ybT0ibWF0cml4KDAuMDYxNzI4Mzk1MDYxNzI4MzksMCwwLDAuMDYxNzI4Mzk1MDYxNzI4MzksMTEuMTExMTExMTExMTExMTEsMCkiLz48dXNlIHhsaW5rOmhyZWY9IiNWIiB0cmFuc2Zvcm09Im1hdHJpeCgwLjA2MTcyODM5NTA2MTcyODM5LDAsMCwwLjA2MTcyODM5NTA2MTcyODM5LDIzLjQ1Njc5MDEyMzQ1Njc5LDApIi8+PHVzZSB4bGluazpocmVmPSIjYWoiIHRyYW5zZm9ybT0ibWF0cml4KDAuMDYxNzI4Mzk1MDYxNzI4MzksMCwwLDAuMDYxNzI4Mzk1MDYxNzI4MzksMzQuNTY3OTAxMjM0NTY3OSwwKSIvPjx1c2UgeGxpbms6aHJlZj0iI2FoIiB0cmFuc2Zvcm09Im1hdHJpeCgwLjA2MTcyODM5NTA2MTcyODM5LDAsMCwwLjA2MTcyODM5NTA2MTcyODM5LDQ2LjkxMzU4MDI0NjkxMzU3NSwwKSIvPjx1c2UgeGxpbms6aHJlZj0iI1oiIHRyYW5zZm9ybT0ibWF0cml4KDAuMDYxNzI4Mzk1MDYxNzI4MzksMCwwLDAuMDYxNzI4Mzk1MDYxNzI4MzksNTMuMDg2NDE5NzUzMDg2NDIsMCkiLz48dXNlIHhsaW5rOmhyZWY9IiNQIiB0cmFuc2Zvcm09Im1hdHJpeCgwLjA2MTcyODM5NTA2MTcyODM5LDAsMCwwLjA2MTcyODM5NTA2MTcyODM5LDU3Ljk2Mjk2Mjk2Mjk2Mjk2LDApIi8+PHVzZSB4bGluazpocmVmPSIjYXIiIHRyYW5zZm9ybT0ibWF0cml4KDAuMDYxNzI4Mzk1MDYxNzI4MzksMCwwLDAuMDYxNzI4Mzk1MDYxNzI4MzksNzAuMzA4NjQxOTc1MzA4NjUsMCkiLz48dXNlIHhsaW5rOmhyZWY9IiNhayIgdHJhbnNmb3JtPSJtYXRyaXgoMC4wNjE3MjgzOTUwNjE3MjgzOSwwLDAsMC4wNjE3MjgzOTUwNjE3MjgzOSw4Ni4yOTYyOTYyOTYyOTYzLDApIi8+PHVzZSB4bGluazpocmVmPSIjVCIgdHJhbnNmb3JtPSJtYXRyaXgoMC4wNjE3MjgzOTUwNjE3MjgzOSwwLDAsMC4wNjE3MjgzOTUwNjE3MjgzOSw5OC42NDE5NzUzMDg2NDE5OSwwKSIvPjx1c2UgeGxpbms6aHJlZj0iI1EiIHRyYW5zZm9ybT0ibWF0cml4KDAuMDYxNzI4Mzk1MDYxNzI4MzksMCwwLDAuMDYxNzI4Mzk1MDYxNzI4MzksMTAzLjUxODUxODUxODUxODUzLDApIi8+PHVzZSB4bGluazpocmVmPSIjYWgiIHRyYW5zZm9ybT0ibWF0cml4KDAuMDYxNzI4Mzk1MDYxNzI4MzksMCwwLDAuMDYxNzI4Mzk1MDYxNzI4MzksMTE1Ljg2NDE5NzUzMDg2NDIyLDApIi8+PHVzZSB4bGluazpocmVmPSIjUCIgdHJhbnNmb3JtPSJtYXRyaXgoMC4wNjE3MjgzOTUwNjE3MjgzOSwwLDAsMC4wNjE3MjgzOTUwNjE3MjgzOSwxMjIuMDM3MDM3MDM3MDM3MDUsMCkiLz48dXNlIHhsaW5rOmhyZWY9IiNXIiB0cmFuc2Zvcm09Im1hdHJpeCgwLjA2MTcyODM5NTA2MTcyODM5LDAsMCwwLjA2MTcyODM5NTA2MTcyODM5LDEzNC4zODI3MTYwNDkzODI3NCwwKSIvPjx1c2UgeGxpbms6aHJlZj0iI2FuIiB0cmFuc2Zvcm09Im1hdHJpeCgwLjA2MTcyODM5NTA2MTcyODM5LDAsMCwwLjA2MTcyODM5NTA2MTcyODM5LDE0MS43MjgzOTUwNjE3Mjg0LDApIi8+PHVzZSB4bGluazpocmVmPSIjYWciIHRyYW5zZm9ybT0ibWF0cml4KDAuMDYxNzI4Mzk1MDYxNzI4MzksMCwwLDAuMDYxNzI4Mzk1MDYxNzI4MzksMTYwLjE4NTE4NTE4NTE4NTIsMCkiLz48dXNlIHhsaW5rOmhyZWY9IiNSIiB0cmFuc2Zvcm09Im1hdHJpeCgwLjA2MTcyODM5NTA2MTcyODM5LDAsMCwwLjA2MTcyODM5NTA2MTcyODM5LDE3Mi41MzA4NjQxOTc1MzA4NiwwKSIvPjx1c2UgeGxpbms6aHJlZj0iI1QiIHRyYW5zZm9ybT0ibWF0cml4KDAuMDYxNzI4Mzk1MDYxNzI4MzksMCwwLDAuMDYxNzI4Mzk1MDYxNzI4MzksMTc4LjcwMzcwMzcwMzcwMzcsMCkiLz48dXNlIHhsaW5rOmhyZWY9IiNQIiB0cmFuc2Zvcm09Im1hdHJpeCgwLjA2MTcyODM5NTA2MTcyODM5LDAsMCwwLjA2MTcyODM5NTA2MTcyODM5LDE4My41ODAyNDY5MTM1ODAyMywwKSIvPjx1c2UgeGxpbms6aHJlZj0iI1EiIHRyYW5zZm9ybT0ibWF0cml4KDAuMDYxNzI4Mzk1MDYxNzI4MzksMCwwLDAuMDYxNzI4Mzk1MDYxNzI4MzksMTk1LjkyNTkyNTkyNTkyNTksMCkiLz48L2c+PHBhdGggaWQ9ImFzIiBkPSJNMTM1LTE5NGM1MyAwIDcwIDQ0IDcwIDk4IDAgNTYtMTkgOTgtNzMgMTAwLTMxIDEtNDUtMTctNTktMzQgMyAzMyAyIDY5IDIgMTA1SDI1bC0xLTI2NWg0OGMyIDEwIDAgMjMgMyAzMSAxMS0yNCAyOS0zNSA2MC0zNXpNMTE0LTMwYzMzIDAgMzktMzEgNDAtNjYgMC0zOC05LTY0LTQwLTY0LTU2IDAtNTUgMTMwIDAgMTMwIiBmaWxsPSIjMzMzIi8+PHBhdGggaWQ9ImF0IiBkPSJNMTEwLTE5NGM2NCAwIDk2IDM2IDk2IDk5IDAgNjQtMzUgOTktOTcgOTktNjEgMC05NS0zNi05NS05OSAwLTYyIDM0LTk5IDk2LTk5em0tMSAxNjRjMzUgMCA0NS0yOCA0NS02NSAwLTQwLTEwLTY1LTQzLTY1LTM0IDAtNDUgMjYtNDUgNjUgMCAzNiAxMCA2NSA0MyA2NSIgZmlsbD0iIzMzMyIvPjxwYXRoIGlkPSJhdSIgZD0iTTI1IDB2LTI2MWg1MFYwSDI1IiBmaWxsPSIjMzMzIi8+PHBhdGggaWQ9ImF2IiBkPSJNMjUtMjI0di0zN2g1MHYzN0gyNXpNMjUgMHYtMTkwaDUwVjBIMjUiIGZpbGw9IiMzMzMiLz48cGF0aCBpZD0iYXciIGQ9Ik0xMTUtM0M3OSAxMSAyOCA0IDI4LTQ1di0xMTJINHYtMzNoMjdsMTUtNDVoMzF2NDVoMzZ2MzNINzd2OTljLTEgMjMgMTYgMzEgMzggMjV2MzAiIGZpbGw9IiMzMzMiLz48cGF0aCBpZD0iYXgiIGQ9Ik0xOTAtNjNjLTcgNDItMzggNjctODYgNjctNTkgMC04NC0zOC05MC05OC0xMi0xMTAgMTU0LTEzNyAxNzQtMzZsLTQ5IDJjLTItMTktMTUtMzItMzUtMzItMzAgMC0zNSAyOC0zOCA2NC02IDc0IDY1IDg3IDc0IDMwIiBmaWxsPSIjMzMzIi8+PHBhdGggaWQ9ImF5IiBkPSJNMTMzLTM0QzExNy0xNSAxMDMgNSA2OSA0IDMyIDMgMTEtMTYgMTEtNTRjLTEtNjAgNTUtNjMgMTE2LTYxIDEtMjYtMy00Ny0yOC00Ny0xOCAxLTI2IDktMjggMjdsLTUyLTJjNy0zOCAzNi01OCA4Mi01N3M3NCAyMiA3NSA2OGwxIDgyYy0xIDE0IDEyIDE4IDI1IDE1djI3Yy0zMCA4LTcxIDUtNjktMzJ6bS00OCAzYzI5IDAgNDMtMjQgNDItNTctMzIgMC02Ni0zLTY1IDMwIDAgMTcgOCAyNyAyMyAyNyIgZmlsbD0iIzMzMyIvPjxnIGlkPSJ3Ij48dXNlIHhsaW5rOmhyZWY9IiNhcyIgdHJhbnNmb3JtPSJtYXRyaXgoMC4wNDkzODI3MTYwNDkzODI3MiwwLDAsMC4wNDkzODI3MTYwNDkzODI3MiwwLDApIi8+PHVzZSB4bGluazpocmVmPSIjYXQiIHRyYW5zZm9ybT0ibWF0cml4KDAuMDQ5MzgyNzE2MDQ5MzgyNzIsMCwwLDAuMDQ5MzgyNzE2MDQ5MzgyNzIsMTAuODE0ODE0ODE0ODE0ODE1LDApIi8+PHVzZSB4bGluazpocmVmPSIjYXUiIHRyYW5zZm9ybT0ibWF0cml4KDAuMDQ5MzgyNzE2MDQ5MzgyNzIsMCwwLDAuMDQ5MzgyNzE2MDQ5MzgyNzIsMjEuNjI5NjI5NjI5NjI5NjMsMCkiLz48dXNlIHhsaW5rOmhyZWY9IiNhdiIgdHJhbnNmb3JtPSJtYXRyaXgoMC4wNDkzODI3MTYwNDkzODI3MiwwLDAsMC4wNDkzODI3MTYwNDkzODI3MiwyNi41Njc5MDEyMzQ1Njc5MDIsMCkiLz48dXNlIHhsaW5rOmhyZWY9IiNhdyIgdHJhbnNmb3JtPSJtYXRyaXgoMC4wNDkzODI3MTYwNDkzODI3MiwwLDAsMC4wNDkzODI3MTYwNDkzODI3MiwzMS41MDYxNzI4Mzk1MDYxNzQsMCkiLz48dXNlIHhsaW5rOmhyZWY9IiNhdiIgdHJhbnNmb3JtPSJtYXRyaXgoMC4wNDkzODI3MTYwNDkzODI3MiwwLDAsMC4wNDkzODI3MTYwNDkzODI3MiwzNy4zODI3MTYwNDkzODI3MTUsMCkiLz48dXNlIHhsaW5rOmhyZWY9IiNheCIgdHJhbnNmb3JtPSJtYXRyaXgoMC4wNDkzODI3MTYwNDkzODI3MiwwLDAsMC4wNDkzODI3MTYwNDkzODI3Miw0Mi4zMjA5ODc2NTQzMjA5OSwwKSIvPjx1c2UgeGxpbms6aHJlZj0iI2F5IiB0cmFuc2Zvcm09Im1hdHJpeCgwLjA0OTM4MjcxNjA0OTM4MjcyLDAsMCwwLjA0OTM4MjcxNjA0OTM4MjcyLDUyLjE5NzUzMDg2NDE5NzU0LDApIi8+PC9nPjxwYXRoIGlkPSJheiIgZD0iTTIyMC0xNTdjLTUzIDktMjggMTAwLTM0IDE1N2gtNDl2LTEwN2MxLTI3LTUtNDktMjktNTBDNTUtMTQ3IDgxLTU3IDc1IDBIMjVsLTEtMTkwaDQ3YzIgMTItMSAyOCAzIDM4IDEwLTUzIDEwMS01NiAxMDggMCAxMy0yMiAyNC00MyA1OS00MiA4MiAxIDUxIDExNiA1NyAxOTRoLTQ5di0xMDdjLTEtMjUtNS00OC0yOS01MCIgZmlsbD0iIzMzMyIvPjxwYXRoIGlkPSJhQSIgZD0iTTEzNS0xNTBjLTM5LTEyLTYwIDEzLTYwIDU3VjBIMjVsLTEtMTkwaDQ3YzIgMTMtMSAyOSAzIDQwIDYtMjggMjctNTMgNjEtNDF2NDEiIGZpbGw9IiMzMzMiLz48cGF0aCBpZD0iYUIiIGQ9Ik04OC0xOTRjMzEtMSA0NiAxNSA1OCAzNGwtMS0xMDFoNTBsMSAyNjFoLTQ4Yy0yLTEwIDAtMjMtMy0zMUMxMzQtOCAxMTYgNCA4NCA0IDMyIDQgMTYtNDEgMTUtOTVjMC01NiAxOS05NyA3My05OXptMTcgMTY0YzMzIDAgNDAtMzAgNDEtNjYgMS0zNy05LTY0LTQxLTY0cy0zOCAzMC0zOSA2NWMwIDQzIDEzIDY1IDM5IDY1IiBmaWxsPSIjMzMzIi8+PGcgaWQ9IngiPjx1c2UgeGxpbms6aHJlZj0iI2F4IiB0cmFuc2Zvcm09Im1hdHJpeCgwLjA0OTM4MjcxNjA0OTM4MjcyLDAsMCwwLjA0OTM4MjcxNjA0OTM4MjcyLDAsMCkiLz48dXNlIHhsaW5rOmhyZWY9IiNhdCIgdHJhbnNmb3JtPSJtYXRyaXgoMC4wNDkzODI3MTYwNDkzODI3MiwwLDAsMC4wNDkzODI3MTYwNDkzODI3Miw5Ljg3NjU0MzIwOTg3NjU0NCwwKSIvPjx1c2UgeGxpbms6aHJlZj0iI2F6IiB0cmFuc2Zvcm09Im1hdHJpeCgwLjA0OTM4MjcxNjA0OTM4MjcyLDAsMCwwLjA0OTM4MjcxNjA0OTM4MjcyLDIwLjY5MTM1ODAyNDY5MTM2LDApIi8+PHVzZSB4bGluazpocmVmPSIjYXMiIHRyYW5zZm9ybT0ibWF0cml4KDAuMDQ5MzgyNzE2MDQ5MzgyNzIsMCwwLDAuMDQ5MzgyNzE2MDQ5MzgyNzIsMzYuNDkzODI3MTYwNDkzODMsMCkiLz48dXNlIHhsaW5rOmhyZWY9IiNheSIgdHJhbnNmb3JtPSJtYXRyaXgoMC4wNDkzODI3MTYwNDkzODI3MiwwLDAsMC4wNDkzODI3MTYwNDkzODI3Miw0Ny4zMDg2NDE5NzUzMDg2NDYsMCkiLz48dXNlIHhsaW5rOmhyZWY9IiNhQSIgdHJhbnNmb3JtPSJtYXRyaXgoMC4wNDkzODI3MTYwNDkzODI3MiwwLDAsMC4wNDkzODI3MTYwNDkzODI3Miw1Ny4xODUxODUxODUxODUxOSwwKSIvPjx1c2UgeGxpbms6aHJlZj0iI2F3IiB0cmFuc2Zvcm09Im1hdHJpeCgwLjA0OTM4MjcxNjA0OTM4MjcyLDAsMCwwLjA0OTM4MjcxNjA0OTM4MjcyLDY0LjA5ODc2NTQzMjA5ODc3LDApIi8+PHVzZSB4bGluazpocmVmPSIjYXYiIHRyYW5zZm9ybT0ibWF0cml4KDAuMDQ5MzgyNzE2MDQ5MzgyNzIsMCwwLDAuMDQ5MzgyNzE2MDQ5MzgyNzIsNjkuOTc1MzA4NjQxOTc1MzIsMCkiLz48dXNlIHhsaW5rOmhyZWY9IiNhQiIgdHJhbnNmb3JtPSJtYXRyaXgoMC4wNDkzODI3MTYwNDkzODI3MiwwLDAsMC4wNDkzODI3MTYwNDkzODI3Miw3NC45MTM1ODAyNDY5MTM2LDApIi8+PHVzZSB4bGluazpocmVmPSIjYXkiIHRyYW5zZm9ybT0ibWF0cml4KDAuMDQ5MzgyNzE2MDQ5MzgyNzIsMCwwLDAuMDQ5MzgyNzE2MDQ5MzgyNzIsODUuNzI4Mzk1MDYxNzI4NCwwKSIvPjwvZz48cGF0aCBpZD0iYUMiIGQ9Ik0yNCAwdi0yNDhoNTJ2MjA4aDEzM1YwSDI0IiBmaWxsPSIjMzMzIi8+PHBhdGggaWQ9ImFEIiBkPSJNMTk1LTZDMjA2IDgyIDc1IDEwMCAzMSA0NmMtNC02LTYtMTMtOC0yMWw0OS02YzMgMTYgMTYgMjQgMzQgMjUgNDAgMCA0Mi0zNyA0MC03OS0xMSAyMi0zMCAzNS02MSAzNS01MyAwLTcwLTQzLTcwLTk3IDAtNTYgMTgtOTYgNzMtOTcgMzAgMCA0NiAxNCA1OSAzNGwyLTMwaDQ3em0tOTAtMjljMzIgMCA0MS0yNyA0MS02MyAwLTM1LTktNjItNDAtNjItMzIgMC0zOSAyOS00MCA2MyAwIDM2IDkgNjIgMzkgNjIiIGZpbGw9IiMzMzMiLz48cGF0aCBpZD0iYUUiIGQ9Ik0xMzctMTM4YzEtMjktNzAtMzQtNzEtNCAxNSA0NiAxMTggNyAxMTkgODYgMSA4My0xNjQgNzYtMTcyIDlsNDMtN2M0IDE5IDIwIDI1IDQ0IDI1IDMzIDggNTctMzAgMjQtNDFDODEtODQgMjItODEgMjAtMTM2Yy0yLTgwIDE1NC03NCAxNjEtNyIgZmlsbD0iIzMzMyIvPjxnIGlkPSJ6Ij48dXNlIHhsaW5rOmhyZWY9IiNhQyIgdHJhbnNmb3JtPSJtYXRyaXgoMC4wNDkzODI3MTYwNDkzODI3MiwwLDAsMC4wNDkzODI3MTYwNDkzODI3MiwwLDApIi8+PHVzZSB4bGluazpocmVmPSIjYXQiIHRyYW5zZm9ybT0ibWF0cml4KDAuMDQ5MzgyNzE2MDQ5MzgyNzIsMCwwLDAuMDQ5MzgyNzE2MDQ5MzgyNzIsMTAuODE0ODE0ODE0ODE0ODE1LDApIi8+PHVzZSB4bGluazpocmVmPSIjYUQiIHRyYW5zZm9ybT0ibWF0cml4KDAuMDQ5MzgyNzE2MDQ5MzgyNzIsMCwwLDAuMDQ5MzgyNzE2MDQ5MzgyNzIsMjEuNjI5NjI5NjI5NjI5NjMsMCkiLz48dXNlIHhsaW5rOmhyZWY9IiNhRSIgdHJhbnNmb3JtPSJtYXRyaXgoMC4wNDkzODI3MTYwNDkzODI3MiwwLDAsMC4wNDkzODI3MTYwNDkzODI3MiwzMi40NDQ0NDQ0NDQ0NDQ0NCwwKSIvPjwvZz48cGF0aCBpZD0iYUYiIGQ9Ik0yMzMtMTc3Yy0xIDQxLTIzIDY0LTYwIDcwTDI0MyAwaC0zOGwtNjUtMTAzSDYzVjBIMzB2LTI0OGM4OCAzIDIwNS0yMSAyMDMgNzF6TTYzLTEyOWM2MC0yIDEzNyAxMyAxMzctNDcgMC02MS04MC00Mi0xMzctNDV2OTIiLz48cGF0aCBpZD0iYUciIGQ9Ik0zMC0yNDhjMTE4LTcgMjE2IDggMjEzIDEyMkMyNDAtNDggMjAwIDAgMTIyIDBIMzB2LTI0OHpNNjMtMjdjODkgOCAxNDYtMTYgMTQ2LTk5cy02MC0xMDEtMTQ2LTk1djE5NCIvPjxnIGlkPSJBIj48dXNlIHhsaW5rOmhyZWY9IiNhRiIgdHJhbnNmb3JtPSJtYXRyaXgoMC4wNjE3MjgzOTUwNjE3MjgzOSwwLDAsMC4wNjE3MjgzOTUwNjE3MjgzOSwwLDApIi8+PHVzZSB4bGluazpocmVmPSIjYUciIHRyYW5zZm9ybT0ibWF0cml4KDAuMDYxNzI4Mzk1MDYxNzI4MzksMCwwLDAuMDYxNzI4Mzk1MDYxNzI4MzksMTUuOTg3NjU0MzIwOTg3NjUzLDApIi8+PHVzZSB4bGluazpocmVmPSIjYWQiIHRyYW5zZm9ybT0ibWF0cml4KDAuMDYxNzI4Mzk1MDYxNzI4MzksMCwwLDAuMDYxNzI4Mzk1MDYxNzI4MzksMzEuOTc1MzA4NjQxOTc1MzA3LDApIi8+PC9nPjxwYXRoIGlkPSJhSCIgZD0iTTMwLTI0OGM4NyAxIDE5MS0xNSAxOTEgNzUgMCA3OC03NyA4MC0xNTggNzZWMEgzMHYtMjQ4em0zMyAxMjVjNTcgMCAxMjQgMTEgMTI0LTUwIDAtNTktNjgtNDctMTI0LTQ4djk4Ii8+PHBhdGggaWQ9ImFJIiBkPSJNMTc3LTE5MEMxNjctNjUgMjE4IDEwMyA2NyA3MWMtMjMtNi0zOC0yMC00NC00M2wzMi01YzE1IDQ3IDEwMCAzMiA4OS0yOHYtMzBDMTMzLTE0IDExNSAxIDgzIDEgMjkgMSAxNS00MCAxNS05NWMwLTU2IDE2LTk3IDcxLTk4IDI5LTEgNDggMTYgNTkgMzUgMS0xMCAwLTIzIDItMzJoMzB6TTk0LTIyYzM2IDAgNTAtMzIgNTAtNzMgMC00Mi0xNC03NS01MC03NS0zOSAwLTQ2IDM0LTQ2IDc1czYgNzMgNDYgNzMiLz48cGF0aCBpZD0iYUoiIGQ9Ik0xNDAtMjUxYzgxIDAgMTIzIDQ2IDEyMyAxMjZDMjYzLTUzIDIyOC04IDE2MyAxYzcgMzAgMzAgNDggNjkgNDB2MjNjLTU1IDE2LTk1LTE1LTEwMy02MUM1Ni0zIDE3LTQ4IDE3LTEyNWMwLTgwIDQyLTEyNiAxMjMtMTI2em0wIDIyN2M2MyAwIDg5LTQxIDg5LTEwMXMtMjktOTktODktOTljLTYxIDAtODkgMzktODkgOTlTNzktMjUgMTQwLTI0Ii8+PHBhdGggaWQ9ImFLIiBkPSJNMzAgMHYtMjQ4aDMzdjIyMWgxMjVWMEgzMCIvPjxnIGlkPSJCIj48dXNlIHhsaW5rOmhyZWY9IiNhSCIgdHJhbnNmb3JtPSJtYXRyaXgoMC4wNjE3MjgzOTUwNjE3MjgzOSwwLDAsMC4wNjE3MjgzOTUwNjE3MjgzOSwwLDApIi8+PHVzZSB4bGluazpocmVmPSIjUCIgdHJhbnNmb3JtPSJtYXRyaXgoMC4wNjE3MjgzOTUwNjE3MjgzOSwwLDAsMC4wNjE3MjgzOTUwNjE3MjgzOSwxNC44MTQ4MTQ4MTQ4MTQ4MTMsMCkiLz48dXNlIHhsaW5rOmhyZWY9IiNWIiB0cmFuc2Zvcm09Im1hdHJpeCgwLjA2MTcyODM5NTA2MTcyODM5LDAsMCwwLjA2MTcyODM5NTA2MTcyODM5LDI3LjE2MDQ5MzgyNzE2MDQ5NCwwKSIvPjx1c2UgeGxpbms6aHJlZj0iI1IiIHRyYW5zZm9ybT0ibWF0cml4KDAuMDYxNzI4Mzk1MDYxNzI4MzksMCwwLDAuMDYxNzI4Mzk1MDYxNzI4MzksMzguMjcxNjA0OTM4MjcxNjEsMCkiLz48dXNlIHhsaW5rOmhyZWY9IiNhSSIgdHJhbnNmb3JtPSJtYXRyaXgoMC4wNjE3MjgzOTUwNjE3MjgzOSwwLDAsMC4wNjE3MjgzOTUwNjE3MjgzOSw0NC40NDQ0NDQ0NDQ0NDQ0NSwwKSIvPjx1c2UgeGxpbms6aHJlZj0iI1ciIHRyYW5zZm9ybT0ibWF0cml4KDAuMDYxNzI4Mzk1MDYxNzI4MzksMCwwLDAuMDYxNzI4Mzk1MDYxNzI4MzksNTYuNzkwMTIzNDU2NzkwMTMsMCkiLz48dXNlIHhsaW5rOmhyZWY9IiNTIiB0cmFuc2Zvcm09Im1hdHJpeCgwLjA2MTcyODM5NTA2MTcyODM5LDAsMCwwLjA2MTcyODM5NTA2MTcyODM5LDY0LjEzNTgwMjQ2OTEzNTgxLDApIi8+PHVzZSB4bGluazpocmVmPSIjYWQiIHRyYW5zZm9ybT0ibWF0cml4KDAuMDYxNzI4Mzk1MDYxNzI4MzksMCwwLDAuMDYxNzI4Mzk1MDYxNzI4MzksNzYuNDgxNDgxNDgxNDgxNSwwKSIvPjx1c2UgeGxpbms6aHJlZj0iI2FKIiB0cmFuc2Zvcm09Im1hdHJpeCgwLjA2MTcyODM5NTA2MTcyODM5LDAsMCwwLjA2MTcyODM5NTA2MTcyODM5LDkxLjI5NjI5NjI5NjI5NjMsMCkiLz48dXNlIHhsaW5rOmhyZWY9IiNhSyIgdHJhbnNmb3JtPSJtYXRyaXgoMC4wNjE3MjgzOTUwNjE3MjgzOSwwLDAsMC4wNjE3MjgzOTUwNjE3MjgzOSwxMDguNTgwMjQ2OTEzNTgwMjUsMCkiLz48L2c+PGcgaWQ9IkMiPjx1c2UgeGxpbms6aHJlZj0iI1oiIHRyYW5zZm9ybT0ibWF0cml4KDAuMDYxNzI4Mzk1MDYxNzI4MzksMCwwLDAuMDYxNzI4Mzk1MDYxNzI4MzksMCwwKSIvPjx1c2UgeGxpbms6aHJlZj0iI1QiIHRyYW5zZm9ybT0ibWF0cml4KDAuMDYxNzI4Mzk1MDYxNzI4MzksMCwwLDAuMDYxNzI4Mzk1MDYxNzI4MzksNC44NzY1NDMyMDk4NzY1NDMsMCkiLz48dXNlIHhsaW5rOmhyZWY9IiNWIiB0cmFuc2Zvcm09Im1hdHJpeCgwLjA2MTcyODM5NTA2MTcyODM5LDAsMCwwLjA2MTcyODM5NTA2MTcyODM5LDkuNzUzMDg2NDE5NzUzMDg1LDApIi8+PHVzZSB4bGluazpocmVmPSIjUiIgdHJhbnNmb3JtPSJtYXRyaXgoMC4wNjE3MjgzOTUwNjE3MjgzOSwwLDAsMC4wNjE3MjgzOTUwNjE3MjgzOSwyMC44NjQxOTc1MzA4NjQxOTYsMCkiLz48dXNlIHhsaW5rOmhyZWY9IiNhZyIgdHJhbnNmb3JtPSJtYXRyaXgoMC4wNjE3MjgzOTUwNjE3MjgzOSwwLDAsMC4wNjE3MjgzOTUwNjE3MjgzOSwyNy4wMzcwMzcwMzcwMzcwMzUsMCkiLz48L2c+PGcgaWQ9IkQiPjx1c2UgeGxpbms6aHJlZj0iI1UiIHRyYW5zZm9ybT0ibWF0cml4KDAuMDYxNzI4Mzk1MDYxNzI4MzksMCwwLDAuMDYxNzI4Mzk1MDYxNzI4MzksMCwwKSIvPjx1c2UgeGxpbms6aHJlZj0iI1MiIHRyYW5zZm9ybT0ibWF0cml4KDAuMDYxNzI4Mzk1MDYxNzI4MzksMCwwLDAuMDYxNzI4Mzk1MDYxNzI4MzksMTIuMzQ1Njc5MDEyMzQ1Njc5LDApIi8+PC9nPjxnIGlkPSJFIj48dXNlIHhsaW5rOmhyZWY9IiNPIiB0cmFuc2Zvcm09Im1hdHJpeCgwLjA2MTcyODM5NTA2MTcyODM5LDAsMCwwLjA2MTcyODM5NTA2MTcyODM5LDAsMCkiLz48dXNlIHhsaW5rOmhyZWY9IiNQIiB0cmFuc2Zvcm09Im1hdHJpeCgwLjA2MTcyODM5NTA2MTcyODM5LDAsMCwwLjA2MTcyODM5NTA2MTcyODM5LDExLjExMTExMTExMTExMTExLDApIi8+PHVzZSB4bGluazpocmVmPSIjUSIgdHJhbnNmb3JtPSJtYXRyaXgoMC4wNjE3MjgzOTUwNjE3MjgzOSwwLDAsMC4wNjE3MjgzOTUwNjE3MjgzOSwyMy40NTY3OTAxMjM0NTY3OSwwKSIvPjx1c2UgeGxpbms6aHJlZj0iI1IiIHRyYW5zZm9ybT0ibWF0cml4KDAuMDYxNzI4Mzk1MDYxNzI4MzksMCwwLDAuMDYxNzI4Mzk1MDYxNzI4MzksMzUuODAyNDY5MTM1ODAyNDcsMCkiLz48dXNlIHhsaW5rOmhyZWY9IiNXIiB0cmFuc2Zvcm09Im1hdHJpeCgwLjA2MTcyODM5NTA2MTcyODM5LDAsMCwwLjA2MTcyODM5NTA2MTcyODM5LDQxLjk3NTMwODY0MTk3NTMxLDApIi8+PHVzZSB4bGluazpocmVmPSIjUCIgdHJhbnNmb3JtPSJtYXRyaXgoMC4wNjE3MjgzOTUwNjE3MjgzOSwwLDAsMC4wNjE3MjgzOTUwNjE3MjgzOSw0OS4zMjA5ODc2NTQzMjA5OSwwKSIvPjx1c2UgeGxpbms6aHJlZj0iI1oiIHRyYW5zZm9ybT0ibWF0cml4KDAuMDYxNzI4Mzk1MDYxNzI4MzksMCwwLDAuMDYxNzI4Mzk1MDYxNzI4MzksNjEuNjY2NjY2NjY2NjY2NjY0LDApIi8+PC9nPjxnIGlkPSJGIj48dXNlIHhsaW5rOmhyZWY9IiNhZyIgdHJhbnNmb3JtPSJtYXRyaXgoMC4wNjE3MjgzOTUwNjE3MjgzOSwwLDAsMC4wNjE3MjgzOTUwNjE3MjgzOSwwLDApIi8+PHVzZSB4bGluazpocmVmPSIjTyIgdHJhbnNmb3JtPSJtYXRyaXgoMC4wNjE3MjgzOTUwNjE3MjgzOSwwLDAsMC4wNjE3MjgzOTUwNjE3MjgzOSwxMi4zNDU2NzkwMTIzNDU2NzksMCkiLz48dXNlIHhsaW5rOmhyZWY9IiNPIiB0cmFuc2Zvcm09Im1hdHJpeCgwLjA2MTcyODM5NTA2MTcyODM5LDAsMCwwLjA2MTcyODM5NTA2MTcyODM5LDIzLjQ1Njc5MDEyMzQ1Njc5LDApIi8+PHVzZSB4bGluazpocmVmPSIjUyIgdHJhbnNmb3JtPSJtYXRyaXgoMC4wNjE3MjgzOTUwNjE3MjgzOSwwLDAsMC4wNjE3MjgzOTUwNjE3MjgzOSwzNC41Njc5MDEyMzQ1Njc5LDApIi8+PHVzZSB4bGluazpocmVmPSIjViIgdHJhbnNmb3JtPSJtYXRyaXgoMC4wNjE3MjgzOTUwNjE3MjgzOSwwLDAsMC4wNjE3MjgzOTUwNjE3MjgzOSw0Ni45MTM1ODAyNDY5MTM1NzUsMCkiLz48dXNlIHhsaW5rOmhyZWY9IiNQIiB0cmFuc2Zvcm09Im1hdHJpeCgwLjA2MTcyODM5NTA2MTcyODM5LDAsMCwwLjA2MTcyODM5NTA2MTcyODM5LDU4LjAyNDY5MTM1ODAyNDY4LDApIi8+PC9nPjxwYXRoIGlkPSJhTCIgZD0iTTg3IDc1QzQ5IDMzIDIyLTE3IDIyLTk0YzAtNzYgMjgtMTI2IDY1LTE2N2gzMWMtMzggNDEtNjQgOTItNjQgMTY4UzgwIDM0IDExOCA3NUg4NyIvPjxwYXRoIGlkPSJhTSIgZD0iTTMzLTI2MWMzOCA0MSA2NSA5MiA2NSAxNjhTNzEgMzQgMzMgNzVIMkMzOSAzNCA2Ni0xNyA2Ni05M1MzOS0yMjAgMi0yNjFoMzEiLz48ZyBpZD0iRyI+PHVzZSB4bGluazpocmVmPSIjYUwiIHRyYW5zZm9ybT0ibWF0cml4KDAuMDYxNzI4Mzk1MDYxNzI4MzksMCwwLDAuMDYxNzI4Mzk1MDYxNzI4MzksMCwwKSIvPjx1c2UgeGxpbms6aHJlZj0iI2FiIiB0cmFuc2Zvcm09Im1hdHJpeCgwLjA2MTcyODM5NTA2MTcyODM5LDAsMCwwLjA2MTcyODM5NTA2MTcyODM5LDcuMzQ1Njc5MDEyMzQ1Njc5LDApIi8+PHVzZSB4bGluazpocmVmPSIjWSIgdHJhbnNmb3JtPSJtYXRyaXgoMC4wNjE3MjgzOTUwNjE3MjgzOSwwLDAsMC4wNjE3MjgzOTUwNjE3MjgzOSwyMi4xNjA0OTM4MjcxNjA0OTQsMCkiLz48dXNlIHhsaW5rOmhyZWY9IiNhSyIgdHJhbnNmb3JtPSJtYXRyaXgoMC4wNjE3MjgzOTUwNjE3MjgzOSwwLDAsMC4wNjE3MjgzOTUwNjE3MjgzOSwzOC4xNDgxNDgxNDgxNDgxNDUsMCkiLz48dXNlIHhsaW5rOmhyZWY9IiNhTSIgdHJhbnNmb3JtPSJtYXRyaXgoMC4wNjE3MjgzOTUwNjE3MjgzOSwwLDAsMC4wNjE3MjgzOTUwNjE3MjgzOSw1MC40OTM4MjcxNjA0OTM4MiwwKSIvPjwvZz48ZyBpZD0iSCI+PHVzZSB4bGluazpocmVmPSIjVyIgdHJhbnNmb3JtPSJtYXRyaXgoMC4wNjE3MjgzOTUwNjE3MjgzOSwwLDAsMC4wNjE3MjgzOTUwNjE3MjgzOSwwLDApIi8+PHVzZSB4bGluazpocmVmPSIjUyIgdHJhbnNmb3JtPSJtYXRyaXgoMC4wNjE3MjgzOTUwNjE3MjgzOSwwLDAsMC4wNjE3MjgzOTUwNjE3MjgzOSw3LjM0NTY3OTAxMjM0NTY3OSwwKSIvPjx1c2UgeGxpbms6aHJlZj0iI1UiIHRyYW5zZm9ybT0ibWF0cml4KDAuMDYxNzI4Mzk1MDYxNzI4MzksMCwwLDAuMDYxNzI4Mzk1MDYxNzI4MzksMTkuNjkxMzU4MDI0NjkxMzU4LDApIi8+PC9nPjxnIGlkPSJJIj48dXNlIHhsaW5rOmhyZWY9IiNhYiIgdHJhbnNmb3JtPSJtYXRyaXgoMC4wNjE3MjgzOTUwNjE3MjgzOSwwLDAsMC4wNjE3MjgzOTUwNjE3MjgzOSwwLDApIi8+PHVzZSB4bGluazpocmVmPSIjYWMiIHRyYW5zZm9ybT0ibWF0cml4KDAuMDYxNzI4Mzk1MDYxNzI4MzksMCwwLDAuMDYxNzI4Mzk1MDYxNzI4MzksMTQuMDEyMzQ1Njc5MDEyMzQ1LDApIi8+PHVzZSB4bGluazpocmVmPSIjYWQiIHRyYW5zZm9ybT0ibWF0cml4KDAuMDYxNzI4Mzk1MDYxNzI4MzksMCwwLDAuMDYxNzI4Mzk1MDYxNzI4MzksMzQuOTM4MjcxNjA0OTM4MjY1LDApIi8+PC9nPjxnIGlkPSJKIj48dXNlIHhsaW5rOmhyZWY9IiNhSyIgdHJhbnNmb3JtPSJtYXRyaXgoMC4wNjE3MjgzOTUwNjE3MjgzOSwwLDAsMC4wNjE3MjgzOTUwNjE3MjgzOSwwLDApIi8+PHVzZSB4bGluazpocmVmPSIjYWciIHRyYW5zZm9ybT0ibWF0cml4KDAuMDYxNzI4Mzk1MDYxNzI4MzksMCwwLDAuMDYxNzI4Mzk1MDYxNzI4MzksMTIuMzQ1Njc5MDEyMzQ1Njc5LDApIi8+PHVzZSB4bGluazpocmVmPSIjYW4iIHRyYW5zZm9ybT0ibWF0cml4KDAuMDYxNzI4Mzk1MDYxNzI4MzksMCwwLDAuMDYxNzI4Mzk1MDYxNzI4MzksMjQuNjkxMzU4MDI0NjkxMzU4LDApIi8+PHVzZSB4bGluazpocmVmPSIjYWUiIHRyYW5zZm9ybT0ibWF0cml4KDAuMDYxNzI4Mzk1MDYxNzI4MzksMCwwLDAuMDYxNzI4Mzk1MDYxNzI4MzksNDMuMTQ4MTQ4MTQ4MTQ4MTQ1LDApIi8+PHVzZSB4bGluazpocmVmPSIjVSIgdHJhbnNmb3JtPSJtYXRyaXgoMC4wNjE3MjgzOTUwNjE3MjgzOSwwLDAsMC4wNjE3MjgzOTUwNjE3MjgzOSw1NS40OTM4MjcxNjA0OTM4MiwwKSIvPjx1c2UgeGxpbms6aHJlZj0iI2FnIiB0cmFuc2Zvcm09Im1hdHJpeCgwLjA2MTcyODM5NTA2MTcyODM5LDAsMCwwLjA2MTcyODM5NTA2MTcyODM5LDY3LjgzOTUwNjE3MjgzOTUsMCkiLz48L2c+PGcgaWQ9IksiPjx1c2UgeGxpbms6aHJlZj0iI2FsIiB0cmFuc2Zvcm09Im1hdHJpeCgwLjA2MTcyODM5NTA2MTcyODM5LDAsMCwwLjA2MTcyODM5NTA2MTcyODM5LDAsMCkiLz48dXNlIHhsaW5rOmhyZWY9IiNUIiB0cmFuc2Zvcm09Im1hdHJpeCgwLjA2MTcyODM5NTA2MTcyODM5LDAsMCwwLjA2MTcyODM5NTA2MTcyODM5LDExLjExMTExMTExMTExMTExLDApIi8+PHVzZSB4bGluazpocmVmPSIjYWYiIHRyYW5zZm9ybT0ibWF0cml4KDAuMDYxNzI4Mzk1MDYxNzI4MzksMCwwLDAuMDYxNzI4Mzk1MDYxNzI4MzksMTUuOTg3NjU0MzIwOTg3NjUzLDApIi8+PC9nPjxnIGlkPSJMIj48dXNlIHhsaW5rOmhyZWY9IiNhciIgdHJhbnNmb3JtPSJtYXRyaXgoMC4wNjE3MjgzOTUwNjE3MjgzOSwwLDAsMC4wNjE3MjgzOTUwNjE3MjgzOSwwLDApIi8+PHVzZSB4bGluazpocmVmPSIjVCIgdHJhbnNmb3JtPSJtYXRyaXgoMC4wNjE3MjgzOTUwNjE3MjgzOSwwLDAsMC4wNjE3MjgzOTUwNjE3MjgzOSwxNS45ODc2NTQzMjA5ODc2NTMsMCkiLz48dXNlIHhsaW5rOmhyZWY9IiNSIiB0cmFuc2Zvcm09Im1hdHJpeCgwLjA2MTcyODM5NTA2MTcyODM5LDAsMCwwLjA2MTcyODM5NTA2MTcyODM5LDIwLjg2NDE5NzUzMDg2NDE5NiwwKSIvPjx1c2UgeGxpbms6aHJlZj0iI2FqIiB0cmFuc2Zvcm09Im1hdHJpeCgwLjA2MTcyODM5NTA2MTcyODM5LDAsMCwwLjA2MTcyODM5NTA2MTcyODM5LDI3LjAzNzAzNzAzNzAzNzAzNSwwKSIvPjwvZz48ZyBpZD0iTSI+PHVzZSB4bGluazpocmVmPSIjWiIgdHJhbnNmb3JtPSJtYXRyaXgoMC4wNjE3MjgzOTUwNjE3MjgzOSwwLDAsMC4wNjE3MjgzOTUwNjE3MjgzOSwwLDApIi8+PHVzZSB4bGluazpocmVmPSIjVCIgdHJhbnNmb3JtPSJtYXRyaXgoMC4wNjE3MjgzOTUwNjE3MjgzOSwwLDAsMC4wNjE3MjgzOTUwNjE3MjgzOSw0Ljg3NjU0MzIwOTg3NjU0MywwKSIvPjx1c2UgeGxpbms6aHJlZj0iI2FlIiB0cmFuc2Zvcm09Im1hdHJpeCgwLjA2MTcyODM5NTA2MTcyODM5LDAsMCwwLjA2MTcyODM5NTA2MTcyODM5LDkuNzUzMDg2NDE5NzUzMDg1LDApIi8+PHVzZSB4bGluazpocmVmPSIjVyIgdHJhbnNmb3JtPSJtYXRyaXgoMC4wNjE3MjgzOTUwNjE3MjgzOSwwLDAsMC4wNjE3MjgzOTUwNjE3MjgzOSwyMi4wOTg3NjU0MzIwOTg3NjYsMCkiLz48dXNlIHhsaW5rOmhyZWY9IiNhZyIgdHJhbnNmb3JtPSJtYXRyaXgoMC4wNjE3MjgzOTUwNjE3MjgzOSwwLDAsMC4wNjE3MjgzOTUwNjE3MjgzOSwyOS40NDQ0NDQ0NDQ0NDQ0NDMsMCkiLz48dXNlIHhsaW5rOmhyZWY9IiNXIiB0cmFuc2Zvcm09Im1hdHJpeCgwLjA2MTcyODM5NTA2MTcyODM5LDAsMCwwLjA2MTcyODM5NTA2MTcyODM5LDQxLjc5MDEyMzQ1Njc5MDEyLDApIi8+PHVzZSB4bGluazpocmVmPSIjVCIgdHJhbnNmb3JtPSJtYXRyaXgoMC4wNjE3MjgzOTUwNjE3MjgzOSwwLDAsMC4wNjE3MjgzOTUwNjE3MjgzOSw0OS4xMzU4MDI0NjkxMzU4LDApIi8+PHVzZSB4bGluazpocmVmPSIjUyIgdHJhbnNmb3JtPSJtYXRyaXgoMC4wNjE3MjgzOTUwNjE3MjgzOSwwLDAsMC4wNjE3MjgzOTUwNjE3MjgzOSw1NC4wMTIzNDU2NzkwMTIzNCwwKSIvPjx1c2UgeGxpbms6aHJlZj0iI1YiIHRyYW5zZm9ybT0ibWF0cml4KDAuMDYxNzI4Mzk1MDYxNzI4MzksMCwwLDAuMDYxNzI4Mzk1MDYxNzI4MzksNjYuMzU4MDI0NjkxMzU4MDMsMCkiLz48L2c+PGcgaWQ9Ik4iPjx1c2UgeGxpbms6aHJlZj0iI2FGIiB0cmFuc2Zvcm09Im1hdHJpeCgwLjA2MTcyODM5NTA2MTcyODM5LDAsMCwwLjA2MTcyODM5NTA2MTcyODM5LDAsMCkiLz48dXNlIHhsaW5rOmhyZWY9IiNTIiB0cmFuc2Zvcm09Im1hdHJpeCgwLjA2MTcyODM5NTA2MTcyODM5LDAsMCwwLjA2MTcyODM5NTA2MTcyODM5LDE1Ljk4NzY1NDMyMDk4NzY1MywwKSIvPjx1c2UgeGxpbms6aHJlZj0iI2FmIiB0cmFuc2Zvcm09Im1hdHJpeCgwLjA2MTcyODM5NTA2MTcyODM5LDAsMCwwLjA2MTcyODM5NTA2MTcyODM5LDI4LjMzMzMzMzMzMzMzMzMzMiwwKSIvPjx1c2UgeGxpbms6aHJlZj0iI1AiIHRyYW5zZm9ybT0ibWF0cml4KDAuMDYxNzI4Mzk1MDYxNzI4MzksMCwwLDAuMDYxNzI4Mzk1MDYxNzI4MzksNDAuNjc5MDEyMzQ1Njc5MDEsMCkiLz48dXNlIHhsaW5rOmhyZWY9IiNXIiB0cmFuc2Zvcm09Im1hdHJpeCgwLjA2MTcyODM5NTA2MTcyODM5LDAsMCwwLjA2MTcyODM5NTA2MTcyODM5LDUzLjAyNDY5MTM1ODAyNDY5LDApIi8+PHVzZSB4bGluazpocmVmPSIjUiIgdHJhbnNmb3JtPSJtYXRyaXgoMC4wNjE3MjgzOTUwNjE3MjgzOSwwLDAsMC4wNjE3MjgzOTUwNjE3MjgzOSw2MC4zNzAzNzAzNzAzNzAzNywwKSIvPjx1c2UgeGxpbms6aHJlZj0iI1MiIHRyYW5zZm9ybT0ibWF0cml4KDAuMDYxNzI4Mzk1MDYxNzI4MzksMCwwLDAuMDYxNzI4Mzk1MDYxNzI4MzksNjYuNTQzMjA5ODc2NTQzMiwwKSIvPjx1c2UgeGxpbms6aHJlZj0iI1YiIHRyYW5zZm9ybT0ibWF0cml4KDAuMDYxNzI4Mzk1MDYxNzI4MzksMCwwLDAuMDYxNzI4Mzk1MDYxNzI4MzksNzguODg4ODg4ODg4ODg4ODksMCkiLz48L2c+PC9kZWZzPjwvZz48L3N2Zz4=;" vertex="1" parent="1">
          <mxGeometry width="1200" height="734" as="geometry" />
        </mxCell>
      </root>
    </mxGraphModel>
  </diagram>
</mxfile>
